<svg width="41" height="41" viewBox="0 0 41 41" fill="none" xmlns="http://www.w3.org/2000/svg">
<g clip-path="url(#clip0_551_36)">
<path d="M20.18 40.36C31.3251 40.36 40.36 31.3251 40.36 20.18C40.36 9.03489 31.3251 0 20.18 0C9.03489 0 0 9.03489 0 20.18C0 31.3251 9.03489 40.36 20.18 40.36Z" fill="white"/>
<path d="M8.10809 32.5713L9.25809 25.2213C8.50809 23.6713 5.53809 16.4913 11.5581 10.7813C17.9781 4.69131 25.4681 8.53131 26.2181 8.94131C26.8781 9.23131 32.3781 11.8913 32.7281 20.0213C33.0981 28.6013 23.8781 31.5513 23.7881 31.5813C23.5681 31.6413 18.9681 32.9313 15.0781 31.0213L8.10809 32.5813V32.5713ZM15.3381 29.0713L15.6381 29.2313C18.9081 31.0113 23.2181 29.8213 23.2581 29.8113C23.5581 29.7113 31.1981 27.2513 30.8881 20.0913C30.5781 12.8413 25.6681 10.6913 25.4581 10.6013L25.3481 10.5413C25.0781 10.3813 18.5381 6.67131 12.8181 12.0913C7.11809 17.5013 10.8481 24.3213 11.0081 24.6013L11.1681 24.8813L10.3381 30.1813L15.3381 29.0613V29.0713Z" fill="#00AECE"/>
<path d="M16.5099 13.5708C16.5099 13.5708 17.2399 14.6708 17.6099 15.7708C17.9799 16.8708 17.6099 17.2408 17.6099 17.2408L16.8799 17.9708C16.8799 17.9708 16.1499 18.7008 18.7099 21.2708C21.2699 23.8408 22.0099 23.4708 22.0099 23.4708L23.4799 22.0008C23.8499 21.6308 24.2099 22.0008 24.2099 22.0008C24.2099 22.0008 25.6799 22.7308 26.0399 23.1008C26.3999 23.4708 26.0399 24.2008 26.0399 24.2008L25.3099 25.3008C24.5799 26.4008 23.1099 26.0308 23.1099 26.0308C23.1099 26.0308 19.6299 25.4808 17.0599 22.9108C15.3199 21.1708 14.5899 18.9308 14.2999 17.6608C14.0999 16.7808 14.1799 15.8408 14.5999 15.0308C14.9399 14.3708 15.5199 13.7208 16.5099 13.5508V13.5708Z" fill="#00AECE"/>
</g>
<defs>
<clipPath id="clip0_551_36">
<rect width="40.35" height="40.35" fill="white"/>
</clipPath>
</defs>
</svg>
