<svg width="41" height="41" viewBox="0 0 41 41" fill="none" xmlns="http://www.w3.org/2000/svg">
<g clip-path="url(#clip0_551_30)">
<path d="M20.3597 40.5397C31.5048 40.5397 40.5397 31.5048 40.5397 20.3597C40.5397 9.21458 31.5048 0.179688 20.3597 0.179688C9.21458 0.179688 0.179688 9.21458 0.179688 20.3597C0.179688 31.5048 9.21458 40.5397 20.3597 40.5397Z" fill="white"/>
<path d="M20.36 40.72C9.13 40.72 0 31.59 0 20.36C0 9.13 9.13 0 20.36 0C31.59 0 40.72 9.13 40.72 20.36C40.72 31.59 31.59 40.72 20.36 40.72ZM20.36 0.37C9.34 0.37 0.37 9.34 0.37 20.36C0.37 31.38 9.34 40.35 20.36 40.35C31.38 40.35 40.35 31.38 40.35 20.36C40.35 9.34 31.38 0.37 20.36 0.37Z" fill="white"/>
<path d="M10.0917 11.5609C10.0917 11.5609 15.5917 17.4309 20.3617 16.7009C20.3617 16.7009 19.9917 10.8309 25.1317 10.4609C25.1317 10.4609 27.7017 10.4609 29.5317 12.2909C29.5317 12.2909 31.3617 11.9209 32.4617 10.8209C32.4617 10.8209 32.0917 12.6509 30.6317 13.7509L33.2017 13.0209C33.2017 13.0209 31.7317 15.2209 30.6317 15.5909C30.6317 15.5909 31.7317 23.6609 24.0317 28.4309C16.3317 33.2009 8.26172 28.8009 8.26172 28.8009C8.26172 28.8009 13.7617 29.1709 15.2317 26.2309C15.2317 26.2309 11.9317 26.2309 10.8317 22.9309C10.8317 22.9309 12.6617 23.3009 13.0317 22.9309C13.0317 22.9309 8.99172 21.4609 9.36172 17.7909C9.36172 17.7909 10.8317 18.5209 11.5617 18.1609C11.5617 18.1609 7.16172 14.8609 10.0917 11.5609Z" fill="#00AECE"/>
</g>
<defs>
<clipPath id="clip0_551_30">
<rect width="40.72" height="40.72" fill="white"/>
</clipPath>
</defs>
</svg>
