<svg width="41" height="41" viewBox="0 0 41 41" fill="none" xmlns="http://www.w3.org/2000/svg">
<g clip-path="url(#clip0_551_41)">
<path d="M20.3597 40.5397C31.5048 40.5397 40.5397 31.5048 40.5397 20.3597C40.5397 9.21458 31.5048 0.179688 20.3597 0.179688C9.21458 0.179688 0.179688 9.21458 0.179688 20.3597C0.179688 31.5048 9.21458 40.5397 20.3597 40.5397Z" fill="white"/>
<path d="M20.36 40.72C9.13 40.72 0 31.59 0 20.36C0 9.13 9.13 0 20.36 0C31.59 0 40.72 9.13 40.72 20.36C40.72 31.59 31.59 40.72 20.36 40.72ZM20.36 0.37C9.34 0.37 0.37 9.34 0.37 20.36C0.37 31.38 9.34 40.35 20.36 40.35C31.38 40.35 40.35 31.38 40.35 20.36C40.35 9.34 31.38 0.37 20.36 0.37Z" fill="white"/>
<path d="M24.21 11.9219H16.87C12.1093 11.9219 8.25 15.7812 8.25 20.5419C8.25 25.3026 12.1093 29.1619 16.87 29.1619H24.21C28.9707 29.1619 32.83 25.3026 32.83 20.5419C32.83 15.7812 28.9707 11.9219 24.21 11.9219Z" fill="#00AECE"/>
<path d="M18.1602 20.3571V17.3371C18.1602 17.1271 18.3902 16.9871 18.5702 17.0971L21.1802 18.6071L23.7902 20.1171C23.9702 20.2271 23.9702 20.4871 23.7902 20.5971L21.1802 22.1071L18.5702 23.6171C18.3902 23.7271 18.1602 23.5871 18.1602 23.3771V20.3571Z" fill="white"/>
<path d="M18.4288 23.8288C18.3488 23.8288 18.2688 23.8088 18.1988 23.7688C18.0588 23.6888 17.9688 23.5388 17.9688 23.3688V17.3388C17.9688 17.1688 18.0588 17.0288 18.1988 16.9388C18.3388 16.8488 18.5188 16.8588 18.6588 16.9388L23.8787 19.9588C24.0187 20.0388 24.1088 20.1888 24.1088 20.3588C24.1088 20.5288 24.0187 20.6788 23.8787 20.7588L18.6488 23.7788C18.5788 23.8188 18.4988 23.8388 18.4188 23.8388L18.4288 23.8288ZM18.4288 17.2388C18.4288 17.2388 18.3887 17.2388 18.3787 17.2488C18.3687 17.2488 18.3288 17.2788 18.3288 17.3288V23.3588C18.3288 23.3588 18.3587 23.4288 18.3787 23.4388C18.3887 23.4388 18.4288 23.4588 18.4688 23.4388L23.6888 20.4188C23.6888 20.4188 23.7388 20.3588 23.7388 20.3388C23.7388 20.3188 23.7388 20.2788 23.6888 20.2588L18.4688 17.2388C18.4688 17.2388 18.4388 17.2288 18.4188 17.2288L18.4288 17.2388Z" fill="white"/>
</g>
<defs>
<clipPath id="clip0_551_41">
<rect width="40.72" height="40.72" fill="white"/>
</clipPath>
</defs>
</svg>
