<svg width="41" height="41" viewBox="0 0 41 41" fill="none" xmlns="http://www.w3.org/2000/svg">
<g clip-path="url(#clip0_551_1197)">
<path d="M20.3597 40.5397C31.5048 40.5397 40.5397 31.5048 40.5397 20.3597C40.5397 9.21458 31.5048 0.179688 20.3597 0.179688C9.21458 0.179688 0.179688 9.21458 0.179688 20.3597C0.179688 31.5048 9.21458 40.5397 20.3597 40.5397Z" fill="white"/>
<path d="M20.36 40.72C9.13 40.72 0 31.59 0 20.36C0 9.13 9.13 0 20.36 0C31.59 0 40.72 9.13 40.72 20.36C40.72 31.59 31.59 40.72 20.36 40.72ZM20.36 0.37C9.34 0.37 0.37 9.34 0.37 20.36C0.37 31.38 9.34 40.35 20.36 40.35C31.38 40.35 40.35 31.38 40.35 20.36C40.35 9.34 31.38 0.37 20.36 0.37Z" fill="white"/>
<path d="M27.3313 11.5598V7.51976C27.3313 7.51976 23.6613 6.78976 21.0913 7.51976C19.7813 7.88976 18.7613 8.83976 18.0712 9.67976C17.3812 10.5198 17.0512 11.5098 17.0512 12.5498V17.7898H12.2812V22.9298H17.2312V35.3998H22.3713V22.9298H26.5913L26.9612 17.7898H22.1913V13.3898C22.1913 13.3898 22.1912 10.8198 27.3313 11.5598Z" fill="#00AECE"/>
</g>
<defs>
<clipPath id="clip0_551_1197">
<rect width="40.72" height="40.72" fill="white"/>
</clipPath>
</defs>
</svg>
