<svg width="41" height="41" viewBox="0 0 41 41" fill="none" xmlns="http://www.w3.org/2000/svg">
<g clip-path="url(#clip0_551_1203)">
<path d="M20.3597 40.5397C31.5048 40.5397 40.5397 31.5048 40.5397 20.3597C40.5397 9.21458 31.5048 0.179688 20.3597 0.179688C9.21458 0.179688 0.179688 9.21458 0.179688 20.3597C0.179688 31.5048 9.21458 40.5397 20.3597 40.5397Z" fill="white"/>
<path d="M20.36 40.72C9.13 40.72 0 31.59 0 20.36C0 9.13 9.13 0 20.36 0C31.59 0 40.72 9.13 40.72 20.36C40.72 31.59 31.59 40.72 20.36 40.72ZM20.36 0.37C9.34 0.37 0.37 9.34 0.37 20.36C0.37 31.38 9.34 40.35 20.36 40.35C31.38 40.35 40.35 31.38 40.35 20.36C40.35 9.34 31.38 0.37 20.36 0.37Z" fill="white"/>
<path d="M11.6694 13.8817C13.2213 13.8817 14.4794 12.6236 14.4794 11.0717C14.4794 9.5198 13.2213 8.26172 11.6694 8.26172C10.1175 8.26172 8.85938 9.5198 8.85938 11.0717C8.85938 12.6236 10.1175 13.8817 11.6694 13.8817Z" fill="#00AECE"/>
<path d="M14.1711 15.9414H9.12109V31.6714H14.1711V15.9414Z" fill="#00AECE"/>
<path d="M27.1598 22.0034V31.7834H32.1798V22.0034C32.2098 20.6334 31.5598 16.1434 27.5398 15.6534C23.5198 15.1634 21.9398 18.0634 21.9398 18.0634V15.9434H16.8398V31.8134H21.8898V22.1334C21.8898 22.1334 22.5098 19.7434 24.7898 19.7434C27.0698 19.7434 27.1598 22.0034 27.1598 22.0034Z" fill="#00AECE"/>
</g>
<defs>
<clipPath id="clip0_551_1203">
<rect width="40.72" height="40.72" fill="white"/>
</clipPath>
</defs>
</svg>
