<svg width="41" height="41" viewBox="0 0 41 41" fill="none" xmlns="http://www.w3.org/2000/svg">
<g clip-path="url(#clip0_551_18)">
<path d="M20.3597 40.5397C31.5048 40.5397 40.5397 31.5048 40.5397 20.3597C40.5397 9.21458 31.5048 0.179688 20.3597 0.179688C9.21458 0.179688 0.179688 9.21458 0.179688 20.3597C0.179688 31.5048 9.21458 40.5397 20.3597 40.5397Z" fill="white"/>
<path d="M20.36 40.72C9.13 40.72 0 31.59 0 20.36C0 9.13 9.13 0 20.36 0C31.59 0 40.72 9.13 40.72 20.36C40.72 31.59 31.59 40.72 20.36 40.72ZM20.36 0.37C9.34 0.37 0.37 9.34 0.37 20.36C0.37 31.38 9.34 40.35 20.36 40.35C31.38 40.35 40.35 31.38 40.35 20.36C40.35 9.34 31.38 0.37 20.36 0.37Z" fill="white"/>
<path d="M20.2989 34.7395C12.7589 34.7395 6.62891 28.5195 6.62891 20.8795C6.62891 13.2395 12.7589 7.01953 20.2989 7.01953C27.8389 7.01953 33.9689 13.2395 33.9689 20.8795C33.9689 28.5195 27.8389 34.7395 20.2989 34.7395ZM20.2989 8.85953C13.7789 8.85953 8.46891 14.2495 8.46891 20.8795C8.46891 27.5095 13.7789 32.8995 20.2989 32.8995C26.8189 32.8995 32.1289 27.5095 32.1289 20.8795C32.1289 14.2495 26.8189 8.85953 20.2989 8.85953Z" fill="#00AECE"/>
<path d="M20.2375 33.9208C16.1475 33.9208 12.9375 28.1808 12.9375 20.8608C12.9375 13.5408 16.1475 7.80078 20.2375 7.80078C24.3275 7.80078 27.5375 13.5408 27.5375 20.8608C27.5375 28.1808 24.3275 33.9208 20.2375 33.9208ZM20.2375 9.27078C17.0775 9.27078 14.3975 14.5808 14.3975 20.8608C14.3975 27.1408 17.0675 32.4508 20.2375 32.4508C23.4075 32.4508 26.0675 27.1408 26.0675 20.8608C26.0675 14.5808 23.3975 9.27078 20.2375 9.27078Z" fill="#00AECE"/>
<path d="M20.9778 8.53906H19.5078V33.6891H20.9778V8.53906Z" fill="#00AECE"/>
<path d="M31.3702 13.6289H9.16016V15.0989H31.3702V13.6289Z" fill="#00AECE"/>
<path d="M33.0391 20.1484H7.53906V21.6184H33.0391V20.1484Z" fill="#00AECE"/>
<path d="M31.19 26.668H9.25V28.138H31.19V26.668Z" fill="#00AECE"/>
</g>
<defs>
<clipPath id="clip0_551_18">
<rect width="40.72" height="40.72" fill="white"/>
</clipPath>
</defs>
</svg>
