<?xml version="1.0" encoding="UTF-8"?>
<svg id="Capa_2" data-name="Capa 2" xmlns="http://www.w3.org/2000/svg" viewBox="0 0 87.8 87.8">
  <defs>
    <style>
      .cls-1 {
        fill: #fff;
      }

      .cls-1, .cls-2 {
        stroke-width: 0px;
      }

      .cls-2 {
        fill: #00a3ff;
      }
    </style>
  </defs>
  <g id="Capa_1-2" data-name="Capa 1">
    <circle class="cls-2" cx="43.9" cy="43.9" r="43.9"/>
    <path class="cls-1" d="m30.86,19.66s2.9,4.35,4.35,8.71c1.45,4.35,0,5.8,0,5.8l-2.9,2.9s-2.9,2.9,7.26,13.06c10.16,10.16,13.06,8.71,13.06,8.71,0,0,4.35-4.35,5.8-5.8,1.45-1.45,2.9,0,2.9,0,0,0,5.8,2.9,7.26,4.35s0,4.35,0,4.35l-2.9,4.35c-2.9,4.35-8.71,2.9-8.71,2.9,0,0-13.79-2.18-23.94-12.33-6.88-6.88-9.77-15.76-10.91-20.77-.8-3.5-.47-7.21,1.17-10.4,1.35-2.62,3.65-5.18,7.57-5.84Z"/>
  </g>
</svg>