<?xml version="1.0" encoding="UTF-8"?>
<svg id="Capa_2" data-name="Capa 2" xmlns="http://www.w3.org/2000/svg" viewBox="0 0 87.8 87.8">
  <defs>
    <style>
      .cls-1 {
        fill: #fff;
      }

      .cls-1, .cls-2 {
        stroke-width: 0px;
      }

      .cls-2 {
        fill: #00a3ff;
      }
    </style>
  </defs>
  <g id="Capa_1-2" data-name="Capa 1">
    <circle class="cls-2" cx="43.9" cy="43.9" r="43.9"/>
    <path class="cls-1" d="m17.66,70.86l2.51-16c-1.63-3.37-8.09-18.99,5-31.43,13.96-13.26,30.26-4.9,31.9-4,1.43.63,13.4,6.42,14.16,24.11.8,18.68-19.25,25.09-19.46,25.15-.47.13-10.49,2.93-18.94-1.23l-15.17,3.39Zm15.73-7.61l.66.36c7.12,3.88,16.49,1.29,16.58,1.26.66-.21,17.27-5.58,16.61-21.16-.68-15.78-11.36-20.45-11.82-20.64l-.25-.12c-.6-.35-14.83-8.43-27.26,3.38-12.4,11.77-4.29,26.6-3.94,27.23l.34.6-1.8,11.53,10.88-2.43Z"/>
    <path class="cls-1" d="m35.92,29.53s1.6,2.39,2.39,4.79c.8,2.39,0,3.19,0,3.19l-1.6,1.6s-1.6,1.6,3.99,7.18c5.59,5.59,7.18,4.79,7.18,4.79,0,0,2.39-2.39,3.19-3.19.8-.8,1.6,0,1.6,0,0,0,3.19,1.6,3.99,2.39.8.8,0,2.39,0,2.39l-1.6,2.39c-1.6,2.39-4.79,1.6-4.79,1.6,0,0-7.58-1.2-13.17-6.78-3.78-3.78-5.37-8.67-6-11.42-.44-1.92-.26-3.96.64-5.72.74-1.44,2.01-2.85,4.16-3.21Z"/>
  </g>
</svg>