<svg width="151" height="198" viewBox="0 0 151 198" fill="none" xmlns="http://www.w3.org/2000/svg">
<g clip-path="url(#clip0_580_1235)">
<path d="M36.6009 191.207H34.7009V189.207H34.6509C33.8209 190.737 32.6009 191.507 30.9909 191.507C29.8109 191.507 28.8809 191.167 28.2109 190.497C27.5409 189.827 27.2109 188.927 27.2109 187.817C27.2109 185.427 28.5209 184.037 31.1309 183.647L34.7009 183.107C34.7009 180.937 33.8809 179.847 32.2509 179.847C30.8209 179.847 29.5209 180.377 28.3709 181.417V179.317C29.5409 178.517 30.8909 178.117 32.4109 178.117C35.2009 178.117 36.6009 179.707 36.6009 182.887V191.207ZM34.7009 184.737L31.8309 185.157C30.9509 185.287 30.2809 185.527 29.8309 185.867C29.3809 186.207 29.1609 186.807 29.1609 187.657C29.1609 188.277 29.3709 188.787 29.7809 189.187C30.1909 189.587 30.7509 189.777 31.4409 189.777C32.3809 189.777 33.1609 189.417 33.7809 188.707C34.4009 187.997 34.7009 187.097 34.7009 186.007V184.737Z" fill="#415364"/>
<path d="M39.0391 190.734V188.534C40.0791 189.354 41.2191 189.774 42.4691 189.774C44.1391 189.774 44.9791 189.174 44.9791 187.974C44.9791 187.634 44.9091 187.344 44.7691 187.104C44.6291 186.864 44.4291 186.654 44.1891 186.474C43.9491 186.294 43.6591 186.124 43.3291 185.984C42.9991 185.844 42.6491 185.684 42.2691 185.524C41.7391 185.304 41.2791 185.074 40.8791 184.844C40.4791 184.614 40.1491 184.354 39.8791 184.064C39.6091 183.774 39.4091 183.454 39.2791 183.084C39.1391 182.714 39.0791 182.294 39.0791 181.794C39.0791 181.194 39.2091 180.664 39.4591 180.204C39.7091 179.744 40.0591 179.354 40.4791 179.044C40.8991 178.734 41.3891 178.494 41.9391 178.334C42.4891 178.174 43.0491 178.094 43.6291 178.094C44.6591 178.094 45.5791 178.284 46.3891 178.664V180.734C45.5091 180.114 44.5091 179.804 43.3691 179.804C43.0091 179.804 42.6891 179.844 42.4091 179.934C42.1191 180.024 41.8791 180.144 41.6691 180.304C41.4591 180.464 41.3091 180.654 41.1891 180.874C41.0791 181.094 41.0191 181.334 41.0191 181.604C41.0191 181.934 41.0791 182.214 41.1891 182.444C41.2991 182.674 41.4691 182.874 41.6791 183.044C41.8991 183.224 42.1591 183.374 42.4691 183.514C42.7791 183.654 43.1291 183.814 43.5291 183.974C44.0591 184.194 44.5291 184.414 44.9491 184.644C45.3691 184.874 45.7191 185.134 46.0191 185.414C46.3091 185.704 46.5391 186.034 46.6991 186.404C46.8591 186.784 46.9391 187.224 46.9391 187.744C46.9391 188.374 46.8091 188.924 46.5491 189.394C46.2891 189.864 45.9391 190.244 45.5091 190.554C45.0791 190.864 44.5791 191.094 44.0091 191.244C43.4491 191.394 42.8491 191.464 42.2291 191.464C41.0091 191.464 39.9491 191.214 39.0491 190.704L39.0391 190.734Z" fill="#415364"/>
<path d="M51.3797 189.357H51.3297V197.087H49.4297V178.417H51.3297V180.667H51.3797C52.3197 178.967 53.6897 178.117 55.4897 178.117C57.0197 178.117 58.2197 178.687 59.0797 179.837C59.9397 180.987 60.3697 182.517 60.3697 184.437C60.3697 186.577 59.8897 188.287 58.9197 189.577C57.9497 190.867 56.6297 191.507 54.9497 191.507C53.4097 191.507 52.2197 190.797 51.3897 189.357H51.3797ZM51.3297 184.197V185.987C51.3297 187.047 51.6497 187.947 52.2897 188.677C52.9297 189.407 53.7397 189.787 54.7197 189.787C55.8697 189.787 56.7797 189.317 57.4297 188.367C58.0797 187.417 58.4097 186.097 58.4097 184.407C58.4097 182.987 58.0997 181.867 57.4897 181.057C56.8797 180.247 56.0497 179.847 55.0097 179.847C53.8997 179.847 53.0097 180.257 52.3397 181.087C51.6697 181.917 51.3297 182.957 51.3297 184.207V184.197Z" fill="#415364"/>
<path d="M72.5323 185.312H64.1323C64.1623 186.732 64.5223 187.832 65.2023 188.612C65.8823 189.392 66.8223 189.772 68.0123 189.772C69.3523 189.772 70.5823 189.302 71.7023 188.352V190.272C70.6623 191.082 69.2723 191.492 67.5523 191.492C65.8323 191.492 64.5523 190.912 63.5923 189.752C62.6323 188.592 62.1523 186.962 62.1523 184.852C62.1523 182.862 62.6723 181.242 63.7223 179.982C64.7723 178.732 66.0723 178.102 67.6323 178.102C69.1923 178.102 70.3923 178.642 71.2423 179.722C72.0923 180.802 72.5223 182.312 72.5223 184.232V185.302L72.5323 185.312ZM70.5823 183.582C70.5823 182.402 70.3123 181.482 69.7823 180.822C69.2623 180.162 68.5323 179.832 67.6023 179.832C66.6723 179.832 65.9423 180.182 65.3123 180.872C64.6823 181.562 64.3023 182.462 64.1523 183.582H70.5723H70.5823Z" fill="#415364"/>
<path d="M76.8922 191.203H74.9922V172.273H76.8922V191.203Z" fill="#415364"/>
<path d="M86.9202 190.257C85.5802 188.997 84.9102 187.267 84.9102 185.047V179.577C84.9102 177.367 85.5802 175.627 86.9202 174.367C88.2602 173.107 90.1402 172.477 92.5502 172.477C96.2902 172.477 98.7202 173.957 99.8202 176.917C99.9002 177.117 99.9302 177.287 99.9302 177.447C99.9302 177.657 99.8602 177.827 99.7302 177.957C99.6002 178.077 99.4002 178.187 99.1402 178.277L97.0602 178.887C96.8502 178.957 96.6702 178.997 96.5002 178.997C96.3102 178.997 96.1602 178.937 96.0402 178.807C95.9202 178.687 95.8102 178.477 95.7202 178.197C95.5002 177.557 95.1302 177.087 94.6102 176.777C94.1002 176.467 93.4202 176.317 92.5702 176.317C91.4502 176.317 90.6201 176.587 90.0901 177.117C89.5601 177.647 89.2902 178.467 89.2902 179.567V185.097C89.2902 186.197 89.5602 187.007 90.1002 187.537C90.6402 188.067 91.4801 188.337 92.6301 188.337C94.1801 188.337 95.1902 187.697 95.6602 186.427C95.7502 186.127 95.8702 185.917 96.0002 185.787C96.1302 185.667 96.2902 185.597 96.4802 185.597C96.5702 185.597 96.7502 185.637 97.0102 185.707L99.1702 186.367C99.6802 186.527 99.9302 186.787 99.9302 187.167C99.9302 187.347 99.8902 187.527 99.8202 187.727C99.3202 189.167 98.4502 190.257 97.2202 191.017C95.9902 191.777 94.4402 192.157 92.5502 192.157C90.1302 192.157 88.2602 191.527 86.9202 190.267V190.257Z" fill="#00ACD8"/>
<path d="M104.069 190.257C102.729 188.997 102.059 187.267 102.059 185.047V179.577C102.059 177.367 102.729 175.627 104.069 174.367C105.409 173.107 107.289 172.477 109.729 172.477C112.169 172.477 114.079 173.107 115.419 174.367C116.759 175.627 117.429 177.357 117.429 179.577V185.047C117.429 187.257 116.759 188.997 115.419 190.257C114.079 191.517 112.189 192.147 109.729 192.147C107.269 192.147 105.409 191.517 104.069 190.257ZM107.269 187.507C107.819 188.047 108.639 188.317 109.729 188.317C110.819 188.317 111.639 188.047 112.199 187.507C112.759 186.967 113.039 186.177 113.039 185.127V179.497C113.039 178.457 112.759 177.657 112.199 177.117C111.639 176.577 110.809 176.307 109.729 176.307C108.649 176.307 107.829 176.577 107.269 177.117C106.719 177.657 106.439 178.447 106.439 179.497V185.127C106.439 186.167 106.719 186.967 107.269 187.507Z" fill="#00ACD8"/>
<path d="M120.91 191.525C120.74 191.385 120.66 191.125 120.66 190.755V173.835C120.66 173.465 120.74 173.215 120.91 173.075C121.08 172.945 121.32 172.875 121.64 172.875H124.11C124.43 172.875 124.66 172.945 124.81 173.075C124.96 173.205 125.03 173.455 125.03 173.835V190.755C125.03 191.125 124.95 191.385 124.78 191.525C124.61 191.665 124.37 191.735 124.05 191.735H121.63C121.31 191.735 121.07 191.665 120.9 191.525H120.91Z" fill="#00ACD8"/>
<path d="M75.06 150.62C33.67 150.62 0 116.95 0 75.56C0 34.17 33.67 0.5 75.06 0.5C116.45 0.5 150.12 34.17 150.12 75.56C150.12 116.95 116.45 150.62 75.06 150.62ZM75.06 11.64C39.82 11.64 11.14 40.31 11.14 75.56C11.14 110.81 39.81 139.48 75.06 139.48C110.31 139.48 138.98 110.81 138.98 75.56C138.98 40.31 110.3 11.64 75.06 11.64Z" fill="#00ACD8"/>
<path d="M98.3106 116.77H53.5706C48.7806 116.77 44.8906 112.88 44.8906 108.09V44.8597C44.8906 40.0697 48.7806 36.1797 53.5706 36.1797H98.3106C103.101 36.1797 106.991 40.0697 106.991 44.8597V108.09C106.991 112.88 103.101 116.77 98.3106 116.77ZM53.5706 41.3197C51.6206 41.3197 50.0306 42.9097 50.0306 44.8597V108.09C50.0306 110.04 51.6206 111.63 53.5706 111.63H98.3106C100.261 111.63 101.851 110.04 101.851 108.09V44.8597C101.851 42.9097 100.261 41.3197 98.3106 41.3197H53.5706Z" fill="#A2A9AD"/>
<path d="M60.4219 79.0781C62.2168 79.0781 63.6719 77.6231 63.6719 75.8281C63.6719 74.0332 62.2168 72.5781 60.4219 72.5781C58.6269 72.5781 57.1719 74.0332 57.1719 75.8281C57.1719 77.6231 58.6269 79.0781 60.4219 79.0781Z" fill="#00ACD8"/>
<path d="M70.4219 79.0781C72.2168 79.0781 73.6719 77.6231 73.6719 75.8281C73.6719 74.0332 72.2168 72.5781 70.4219 72.5781C68.6269 72.5781 67.1719 74.0332 67.1719 75.8281C67.1719 77.6231 68.6269 79.0781 70.4219 79.0781Z" fill="#00ACD8"/>
<path d="M80.9609 79.0781C82.7559 79.0781 84.2109 77.6231 84.2109 75.8281C84.2109 74.0332 82.7559 72.5781 80.9609 72.5781C79.166 72.5781 77.7109 74.0332 77.7109 75.8281C77.7109 77.6231 79.166 79.0781 80.9609 79.0781Z" fill="#00ACD8"/>
<path d="M91.2695 79.0781C93.0645 79.0781 94.5195 77.6231 94.5195 75.8281C94.5195 74.0332 93.0645 72.5781 91.2695 72.5781C89.4746 72.5781 88.0195 74.0332 88.0195 75.8281C88.0195 77.6231 89.4746 79.0781 91.2695 79.0781Z" fill="#00ACD8"/>
<path d="M60.4219 89.5391C62.2168 89.5391 63.6719 88.084 63.6719 86.2891C63.6719 84.4941 62.2168 83.0391 60.4219 83.0391C58.6269 83.0391 57.1719 84.4941 57.1719 86.2891C57.1719 88.084 58.6269 89.5391 60.4219 89.5391Z" fill="#00ACD8"/>
<path d="M70.4219 89.5391C72.2168 89.5391 73.6719 88.084 73.6719 86.2891C73.6719 84.4941 72.2168 83.0391 70.4219 83.0391C68.6269 83.0391 67.1719 84.4941 67.1719 86.2891C67.1719 88.084 68.6269 89.5391 70.4219 89.5391Z" fill="#00ACD8"/>
<path d="M80.9609 89.5391C82.7559 89.5391 84.2109 88.084 84.2109 86.2891C84.2109 84.4941 82.7559 83.0391 80.9609 83.0391C79.166 83.0391 77.7109 84.4941 77.7109 86.2891C77.7109 88.084 79.166 89.5391 80.9609 89.5391Z" fill="#00ACD8"/>
<path d="M60.4219 100.531C62.2168 100.531 63.6719 99.0762 63.6719 97.2812C63.6719 95.4863 62.2168 94.0312 60.4219 94.0312C58.6269 94.0312 57.1719 95.4863 57.1719 97.2812C57.1719 99.0762 58.6269 100.531 60.4219 100.531Z" fill="#00ACD8"/>
<path d="M70.4219 100.531C72.2168 100.531 73.6719 99.0762 73.6719 97.2812C73.6719 95.4863 72.2168 94.0312 70.4219 94.0312C68.6269 94.0312 67.1719 95.4863 67.1719 97.2812C67.1719 99.0762 68.6269 100.531 70.4219 100.531Z" fill="#00ACD8"/>
<path d="M80.9609 100.531C82.7559 100.531 84.2109 99.0762 84.2109 97.2812C84.2109 95.4863 82.7559 94.0312 80.9609 94.0312C79.166 94.0312 77.7109 95.4863 77.7109 97.2812C77.7109 99.0762 79.166 100.531 80.9609 100.531Z" fill="#00ACD8"/>
<path d="M94.0909 86.5181C94.0909 84.8944 92.7747 83.5781 91.1509 83.5781C89.5272 83.5781 88.2109 84.8944 88.2109 86.5181V97.2081C88.2109 98.8318 89.5272 100.148 91.1509 100.148C92.7747 100.148 94.0909 98.8318 94.0909 97.2081V86.5181Z" fill="#00ACD8"/>
<path d="M94.2891 50.5625H57.5391V65.0225H94.2891V50.5625Z" fill="#A2A9AD"/>
</g>
<defs>
<clipPath id="clip0_580_1235">
<rect width="150.12" height="196.58" fill="white" transform="translate(0 0.5)"/>
</clipPath>
</defs>
</svg>
