<svg width="151" height="198" viewBox="0 0 151 198" fill="none" xmlns="http://www.w3.org/2000/svg">
<g clip-path="url(#clip0_580_1346)">
<path d="M75.06 150.12C33.67 150.12 0 116.45 0 75.06C0 33.67 33.67 0 75.06 0C116.45 0 150.12 33.67 150.12 75.06C150.12 116.45 116.45 150.12 75.06 150.12ZM75.06 11.14C39.82 11.14 11.14 39.81 11.14 75.06C11.14 110.31 39.81 138.98 75.06 138.98C110.31 138.98 138.98 110.31 138.98 75.06C138.98 39.81 110.3 11.14 75.06 11.14Z" fill="#EA0029"/>
<path d="M40.3883 74.0918C40.3883 74.0918 36.6183 35.1018 82.2383 40.5918L84.4083 31.9918C84.7383 30.6718 86.4183 30.2518 87.3283 31.2718L109.718 56.3618C110.528 57.2718 110.228 58.7118 109.118 59.2218L78.5383 73.1218C77.2683 73.7018 75.8683 72.6118 76.1183 71.2318L77.7583 62.2718C77.7583 62.2718 51.7983 57.3818 40.3883 74.0818V74.0918Z" fill="#EA0029"/>
<path d="M107.66 75.4609C107.66 75.4609 111.43 114.451 65.8102 108.961L63.6402 117.561C63.3102 118.881 61.6302 119.301 60.7202 118.281L38.3302 93.1909C37.5202 92.2809 37.8202 90.8409 38.9302 90.3309L69.5102 76.4309C70.7802 75.8509 72.1802 76.9409 71.9302 78.3209L70.2902 87.2809C70.2902 87.2809 96.2502 92.1709 107.66 75.4709V75.4609Z" fill="white"/>
<path d="M61.9898 120.552C61.0298 120.552 60.0998 120.142 59.4498 119.412L37.0598 94.3216C36.3098 93.4716 36.0098 92.3516 36.2398 91.2516C36.4698 90.1516 37.1998 89.2416 38.2298 88.7716L68.8098 74.8716C69.9798 74.3416 71.3398 74.5016 72.3598 75.2916C73.3798 76.0816 73.8598 77.3616 73.6298 78.6316L72.3098 85.8316C78.0998 86.5216 97.2498 87.6816 106.25 74.5016L108.92 70.6016L109.38 75.3116C109.44 75.9816 110.83 91.7416 100.05 102.272C92.7098 109.442 81.6398 112.322 67.1198 110.842L65.3198 117.992C65.0098 119.222 64.0498 120.172 62.8198 120.472C62.5498 120.542 62.2698 120.572 61.9998 120.572L61.9898 120.552ZM70.2498 78.0016L39.6498 91.8816C39.6498 91.8816 39.5998 91.9016 39.5898 91.9516C39.5798 92.0016 39.5998 92.0216 39.6098 92.0316L61.9998 117.122L64.5198 107.062L66.0198 107.242C80.1798 108.952 90.8098 106.452 97.6198 99.8116C103.87 93.7216 105.52 85.3716 105.91 80.2416C93.0998 93.1016 70.9898 89.1316 69.9798 88.9416L68.2998 88.6216L70.2498 77.9916V78.0016Z" fill="#A2A9AD"/>
<path d="M29.9017 191.654H28.0017V189.684H27.9517C27.1217 191.194 25.9017 191.954 24.2917 191.954C23.1117 191.954 22.1817 191.624 21.5117 190.954C20.8417 190.284 20.5117 189.404 20.5117 188.304C20.5117 185.944 21.8217 184.574 24.4417 184.184L28.0017 183.654C28.0017 181.514 27.1817 180.434 25.5517 180.434C24.1217 180.434 22.8217 180.954 21.6717 181.984V179.914C22.8417 179.124 24.1917 178.734 25.7117 178.734C28.5017 178.734 29.9017 180.304 29.9017 183.444V191.654ZM28.0017 185.274L25.1317 185.694C24.2517 185.824 23.5817 186.054 23.1317 186.394C22.6817 186.724 22.4617 187.314 22.4617 188.164C22.4617 188.784 22.6717 189.284 23.0817 189.674C23.4917 190.064 24.0517 190.264 24.7317 190.264C25.6717 190.264 26.4517 189.914 27.0717 189.214C27.6917 188.514 27.9917 187.624 27.9917 186.544V185.284L28.0017 185.274Z" fill="#415364"/>
<path d="M32.7734 191.21V189.04C33.8134 189.85 34.9534 190.26 36.2034 190.26C37.8734 190.26 38.7134 189.67 38.7134 188.49C38.7134 188.15 38.6434 187.87 38.5034 187.63C38.3634 187.39 38.1634 187.19 37.9234 187.01C37.6834 186.83 37.3934 186.67 37.0634 186.52C36.7334 186.37 36.3834 186.23 36.0034 186.07C35.4734 185.85 35.0134 185.62 34.6134 185.4C34.2134 185.17 33.8834 184.92 33.6134 184.64C33.3434 184.36 33.1434 184.03 33.0134 183.67C32.8834 183.31 32.8134 182.89 32.8134 182.4C32.8134 181.81 32.9434 181.29 33.1934 180.83C33.4434 180.37 33.7934 179.99 34.2134 179.68C34.6434 179.37 35.1234 179.14 35.6734 178.98C36.2234 178.82 36.7834 178.75 37.3634 178.75C38.3934 178.75 39.3134 178.94 40.1234 179.32V181.37C39.2434 180.76 38.2434 180.46 37.1034 180.46C36.7434 180.46 36.4234 180.5 36.1434 180.59C35.8534 180.68 35.6134 180.8 35.4034 180.95C35.1934 181.1 35.0434 181.29 34.9234 181.51C34.8034 181.73 34.7534 181.97 34.7534 182.23C34.7534 182.56 34.8134 182.83 34.9234 183.06C35.0334 183.29 35.2034 183.48 35.4134 183.65C35.6334 183.82 35.8934 183.98 36.2034 184.12C36.5134 184.26 36.8634 184.41 37.2634 184.58C37.7934 184.79 38.2634 185.01 38.6834 185.24C39.1034 185.47 39.4534 185.72 39.7534 186C40.0434 186.28 40.2734 186.61 40.4334 186.98C40.5934 187.35 40.6734 187.79 40.6734 188.3C40.6734 188.92 40.5434 189.47 40.2834 189.93C40.0234 190.39 39.6734 190.77 39.2434 191.08C38.8134 191.39 38.3134 191.61 37.7434 191.76C37.1834 191.91 36.5834 191.98 35.9634 191.98C34.7434 191.98 33.6834 191.73 32.7834 191.23L32.7734 191.21Z" fill="#415364"/>
<path d="M45.532 189.838H45.482V197.468H43.582V179.048H45.482V181.268H45.532C46.472 179.588 47.842 178.758 49.642 178.758C51.172 178.758 52.372 179.318 53.232 180.448C54.092 181.578 54.522 183.088 54.522 184.988C54.522 187.098 54.042 188.788 53.072 190.058C52.102 191.328 50.782 191.958 49.102 191.958C47.562 191.958 46.372 191.248 45.532 189.838ZM45.482 184.748V186.508C45.482 187.548 45.802 188.438 46.442 189.168C47.082 189.898 47.892 190.258 48.872 190.258C50.022 190.258 50.932 189.788 51.582 188.848C52.232 187.908 52.562 186.608 52.562 184.938C52.562 183.538 52.252 182.438 51.642 181.638C51.032 180.838 50.202 180.438 49.152 180.438C48.042 180.438 47.152 180.848 46.482 181.668C45.812 182.488 45.472 183.508 45.472 184.738L45.482 184.748Z" fill="#415364"/>
<path d="M67.1222 185.86H58.7222C58.7522 187.26 59.1122 188.35 59.7922 189.11C60.4722 189.87 61.4122 190.26 62.6022 190.26C63.9422 190.26 65.1722 189.79 66.2922 188.85V190.75C65.2522 191.56 63.8622 191.96 62.1422 191.96C60.4222 191.96 59.1422 191.39 58.1822 190.24C57.2222 189.09 56.7422 187.48 56.7422 185.4C56.7422 183.44 57.2622 181.84 58.3122 180.6C59.3622 179.36 60.6622 178.75 62.2222 178.75C63.7822 178.75 64.9822 179.28 65.8322 180.35C66.6822 181.42 67.1122 182.9 67.1122 184.8V185.86H67.1222ZM65.1722 184.15C65.1722 182.98 64.9022 182.08 64.3722 181.43C63.8522 180.78 63.1222 180.46 62.1922 180.46C61.2622 180.46 60.5322 180.8 59.9022 181.48C59.2722 182.16 58.8922 183.05 58.7422 184.15H65.1622H65.1722Z" fill="#415364"/>
<path d="M71.9117 191.657H70.0117V172.977H71.9117V191.657Z" fill="#415364"/>
<path d="M83.7502 188.623C83.6902 188.433 83.6602 188.283 83.6602 188.173C83.6602 187.833 83.8901 187.603 84.3401 187.483L86.0901 186.953C86.3301 186.883 86.4902 186.843 86.5602 186.843C86.7402 186.843 86.8802 186.893 86.9902 187.003C87.1002 187.113 87.2002 187.273 87.3002 187.503C87.6402 188.303 88.1402 188.903 88.8302 189.323C89.5102 189.743 90.3402 189.943 91.3002 189.943C92.6402 189.943 93.6601 189.713 94.3401 189.263C95.0201 188.813 95.3602 188.113 95.3602 187.173C95.3602 186.343 95.0102 185.753 94.3102 185.403C93.6102 185.063 92.5902 184.813 91.2402 184.673C89.8202 184.513 88.5902 184.293 87.5602 183.993C86.5302 183.703 85.6602 183.163 84.9402 182.383C84.2202 181.603 83.8602 180.503 83.8602 179.093C83.8602 177.963 84.1502 176.963 84.7302 176.103C85.3102 175.243 86.1702 174.573 87.3102 174.103C88.4502 173.623 89.8102 173.383 91.4102 173.383C93.2702 173.383 94.7502 173.723 95.8602 174.393C96.9702 175.063 97.8702 176.073 98.5602 177.423C98.6602 177.653 98.7102 177.833 98.7102 177.953C98.7102 178.253 98.4902 178.483 98.0602 178.643L96.4002 179.223C96.2202 179.293 96.0502 179.333 95.9002 179.333C95.7602 179.333 95.6402 179.293 95.5302 179.203C95.4202 179.113 95.3202 178.963 95.2202 178.753C94.4902 177.303 93.2202 176.573 91.4302 176.573C90.1302 176.573 89.1702 176.773 88.5502 177.173C87.9402 177.573 87.6301 178.183 87.6301 179.023C87.6301 179.863 88.0202 180.503 88.7902 180.853C89.5602 181.203 90.7001 181.453 92.2001 181.593C94.2301 181.823 95.9102 182.333 97.2102 183.133C98.5102 183.933 99.1702 185.313 99.1702 187.273C99.1702 189.043 98.4802 190.443 97.1102 191.483C95.7402 192.523 93.8102 193.033 91.3202 193.033C87.3702 193.033 84.8502 191.553 83.7602 188.593L83.7502 188.623Z" fill="#EA0029"/>
<path d="M100.41 192.2C100.41 192.13 100.45 191.99 100.53 191.77L107.26 174.5C107.38 174.2 107.52 174 107.68 173.9C107.84 173.8 108.08 173.75 108.42 173.75H110.32C110.66 173.75 110.91 173.8 111.08 173.9C111.25 174 111.39 174.19 111.51 174.47L118.21 191.76C118.27 191.92 118.3 192.06 118.3 192.19C118.3 192.49 118.05 192.64 117.56 192.64H115.78C115.25 192.64 114.87 192.59 114.64 192.48C114.41 192.37 114.26 192.16 114.18 191.84L112.99 188.47H105.61L104.42 191.84C104.32 192.16 104.16 192.37 103.95 192.48C103.73 192.59 103.37 192.64 102.85 192.64H101.16C100.67 192.64 100.42 192.49 100.42 192.19L100.41 192.2ZM111.97 185.66L110.1 180.11C109.7 178.85 109.47 177.83 109.39 177.03H109.21C109.07 178.02 108.84 179.05 108.53 180.11L106.63 185.66H111.97Z" fill="#EA0029"/>
<path d="M121.229 192.455C121.099 192.325 121.039 192.085 121.039 191.755V174.705C121.039 174.365 121.099 174.135 121.229 174.005C121.359 173.875 121.599 173.805 121.959 173.805H132.779C133.139 173.805 133.379 173.875 133.519 174.005C133.659 174.135 133.729 174.375 133.729 174.705V176.005C133.729 176.345 133.659 176.575 133.519 176.705C133.379 176.835 133.129 176.905 132.779 176.905H124.749V181.555H131.479C131.819 181.555 132.049 181.625 132.189 181.755C132.329 181.885 132.399 182.125 132.399 182.455V183.755C132.399 184.095 132.329 184.325 132.189 184.455C132.049 184.585 131.809 184.655 131.479 184.655H124.749V189.545H133.049C133.409 189.545 133.649 189.615 133.789 189.745C133.929 189.875 133.999 190.115 133.999 190.445V191.745C133.999 192.085 133.929 192.315 133.789 192.445C133.649 192.575 133.399 192.645 133.049 192.645H121.959C121.599 192.645 121.359 192.575 121.229 192.445V192.455Z" fill="#EA0029"/>
</g>
<defs>
<clipPath id="clip0_580_1346">
<rect width="150.12" height="197.47" fill="white"/>
</clipPath>
</defs>
</svg>
