<svg width="151" height="197" viewBox="0 0 151 197" fill="none" xmlns="http://www.w3.org/2000/svg">
<g clip-path="url(#clip0_580_1203)">
<path d="M97.3086 42.4766H93.3086V52.3566H97.3086V42.4766Z" fill="#A2A9AE"/>
<path d="M70.6311 190.257C69.2911 188.997 68.6211 187.267 68.6211 185.047V179.577C68.6211 177.367 69.2911 175.627 70.6311 174.367C71.9711 173.107 73.8511 172.477 76.2611 172.477C80.0011 172.477 82.4311 173.957 83.5311 176.917C83.6011 177.107 83.6411 177.287 83.6411 177.447C83.6411 177.657 83.5711 177.827 83.4411 177.947C83.3111 178.067 83.1111 178.177 82.8511 178.267L80.7711 178.877C80.5611 178.947 80.3811 178.987 80.2111 178.987C80.0211 178.987 79.8711 178.927 79.7511 178.797C79.6311 178.677 79.5211 178.467 79.4311 178.187C79.2011 177.547 78.8311 177.077 78.3211 176.767C77.8111 176.457 77.1311 176.307 76.2811 176.307C75.1611 176.307 74.3311 176.577 73.7911 177.107C73.2611 177.637 72.9911 178.457 72.9911 179.547V185.067C72.9911 186.167 73.2611 186.977 73.8111 187.507C74.3511 188.037 75.1911 188.307 76.3411 188.307C77.8911 188.307 78.9011 187.667 79.3711 186.397C79.4611 186.097 79.5811 185.887 79.7111 185.757C79.8411 185.637 80.0011 185.567 80.1911 185.567C80.2811 185.567 80.4611 185.607 80.7211 185.677L82.8811 186.337C83.3911 186.497 83.6411 186.767 83.6411 187.137C83.6411 187.317 83.6011 187.497 83.5311 187.697C83.0211 189.127 82.1611 190.227 80.9311 190.987C79.7011 191.747 78.1411 192.127 76.2511 192.127C73.8311 192.127 71.9611 191.497 70.6211 190.237L70.6311 190.257Z" fill="#FFD100"/>
<path d="M84.4592 191.203C84.4592 191.023 84.4992 190.853 84.5692 190.703L90.6592 173.753C90.7892 173.403 90.9492 173.163 91.1192 173.053C91.2992 172.943 91.5692 172.883 91.9492 172.883H94.3392C94.6892 172.883 94.9692 172.943 95.1492 173.053C95.3392 173.173 95.4992 173.383 95.6292 173.703L101.719 190.703C101.789 190.953 101.829 191.113 101.829 191.183C101.829 191.553 101.549 191.743 100.989 191.743H98.7692C98.1492 191.743 97.7192 191.673 97.4792 191.543C97.2392 191.413 97.0592 191.163 96.9492 190.783L96.2192 188.203H89.8992L89.1392 190.783C89.0292 191.153 88.8492 191.403 88.6092 191.543C88.3692 191.683 87.9492 191.743 87.3692 191.743H85.2592C84.7192 191.743 84.4492 191.563 84.4492 191.213L84.4592 191.203ZM95.0992 184.743L93.9192 180.523C93.5292 179.103 93.2692 177.883 93.1592 176.853H92.9592C92.8092 178.143 92.5692 179.363 92.2292 180.493L91.0492 184.743H95.0892H95.0992Z" fill="#FFD100"/>
<path d="M102.55 187.865C102.46 187.635 102.41 187.435 102.41 187.285C102.41 186.945 102.66 186.705 103.17 186.545L105.28 185.855C105.49 185.785 105.66 185.745 105.81 185.745C106 185.745 106.16 185.805 106.29 185.935C106.42 186.055 106.54 186.265 106.66 186.545C107.09 187.735 107.89 188.325 109.05 188.325C109.87 188.325 110.48 188.085 110.86 187.605C111.24 187.125 111.44 186.395 111.44 185.395V173.945C111.44 173.535 111.51 173.255 111.65 173.105C111.79 172.955 112.06 172.875 112.45 172.875H114.78C115.15 172.875 115.42 172.955 115.58 173.115C115.74 173.275 115.82 173.545 115.82 173.935V185.355C115.82 187.535 115.24 189.205 114.08 190.375C112.92 191.545 111.22 192.125 108.97 192.125C105.71 192.125 103.58 190.695 102.57 187.845L102.55 187.865Z" fill="#FFD100"/>
<path d="M117.401 191.203C117.401 191.023 117.441 190.853 117.511 190.703L123.601 173.753C123.731 173.403 123.891 173.163 124.061 173.053C124.241 172.943 124.511 172.883 124.891 172.883H127.281C127.631 172.883 127.911 172.943 128.091 173.053C128.281 173.173 128.441 173.383 128.571 173.703L134.661 190.703C134.731 190.953 134.771 191.113 134.771 191.183C134.771 191.553 134.491 191.743 133.931 191.743H131.711C131.091 191.743 130.661 191.673 130.421 191.543C130.181 191.413 130.001 191.163 129.891 190.783L129.161 188.203H122.841L122.081 190.783C121.971 191.153 121.791 191.403 121.551 191.543C121.311 191.683 120.891 191.743 120.311 191.743H118.201C117.661 191.743 117.391 191.563 117.391 191.213L117.401 191.203ZM128.041 184.743L126.861 180.523C126.471 179.103 126.211 177.883 126.101 176.853H125.901C125.751 178.143 125.511 179.363 125.171 180.493L123.991 184.743H128.031H128.041Z" fill="#FFD100"/>
<path d="M75.06 150.62C33.67 150.62 0 116.95 0 75.56C0 34.17 33.67 0.5 75.06 0.5C116.45 0.5 150.12 34.17 150.12 75.56C150.12 116.95 116.45 150.62 75.06 150.62ZM75.06 11.64C39.82 11.64 11.14 40.31 11.14 75.56C11.14 110.81 39.81 139.48 75.06 139.48C110.31 139.48 138.98 110.81 138.98 75.56C138.98 40.31 110.3 11.64 75.06 11.64Z" fill="#FFD100"/>
<path d="M111.781 44.0919H79.4414V32.4219H111.781V44.0919ZM82.8614 40.6619H108.351V35.8419H82.8614V40.6619Z" fill="#A2A9AE"/>
<path d="M108.53 96.1222H41.5703V57.1422C41.5703 53.6122 44.4403 50.7422 47.9703 50.7422H102.14C105.67 50.7422 108.54 53.6122 108.54 57.1422V96.1222H108.53ZM45.0003 92.6922H105.1V57.1422C105.1 55.5022 103.77 54.1722 102.13 54.1722H47.9603C46.3203 54.1722 44.9903 55.5022 44.9903 57.1422V92.6922H45.0003Z" fill="#A2A9AE"/>
<path d="M112.599 114.237H36.8789V97.7369C36.8789 95.2869 38.8689 93.2969 41.3189 93.2969H108.159C110.609 93.2969 112.599 95.2869 112.599 97.7369V114.237ZM40.3089 110.807H109.169V97.7369C109.169 97.1769 108.719 96.7269 108.159 96.7269H41.3189C40.7589 96.7269 40.3089 97.1769 40.3089 97.7369V110.807Z" fill="#A2A9AE"/>
<path d="M54.1019 76.2819C55.8581 76.2819 57.2819 74.8581 57.2819 73.1019C57.2819 71.3456 55.8581 69.9219 54.1019 69.9219C52.3456 69.9219 50.9219 71.3456 50.9219 73.1019C50.9219 74.8581 52.3456 76.2819 54.1019 76.2819Z" fill="#FFD100"/>
<path d="M54.1019 87.3834C55.8581 87.3834 57.2819 85.9597 57.2819 84.2034C57.2819 82.4472 55.8581 81.0234 54.1019 81.0234C52.3456 81.0234 50.9219 82.4472 50.9219 84.2034C50.9219 85.9597 52.3456 87.3834 54.1019 87.3834Z" fill="#FFD100"/>
<path d="M64.2308 76.2819C65.9871 76.2819 67.4108 74.8581 67.4108 73.1019C67.4108 71.3456 65.9871 69.9219 64.2308 69.9219C62.4745 69.9219 61.0508 71.3456 61.0508 73.1019C61.0508 74.8581 62.4745 76.2819 64.2308 76.2819Z" fill="#FFD100"/>
<path d="M64.2308 87.3834C65.9871 87.3834 67.4108 85.9597 67.4108 84.2034C67.4108 82.4472 65.9871 81.0234 64.2308 81.0234C62.4745 81.0234 61.0508 82.4472 61.0508 84.2034C61.0508 85.9597 62.4745 87.3834 64.2308 87.3834Z" fill="#FFD100"/>
<path d="M75.1683 76.2819C76.9245 76.2819 78.3483 74.8581 78.3483 73.1019C78.3483 71.3456 76.9245 69.9219 75.1683 69.9219C73.412 69.9219 71.9883 71.3456 71.9883 73.1019C71.9883 74.8581 73.412 76.2819 75.1683 76.2819Z" fill="#FFD100"/>
<path d="M75.1683 87.3834C76.9245 87.3834 78.3483 85.9597 78.3483 84.2034C78.3483 82.4472 76.9245 81.0234 75.1683 81.0234C73.412 81.0234 71.9883 82.4472 71.9883 84.2034C71.9883 85.9597 73.412 87.3834 75.1683 87.3834Z" fill="#FFD100"/>
<path d="M85.3011 76.2819C87.0574 76.2819 88.4811 74.8581 88.4811 73.1019C88.4811 71.3456 87.0574 69.9219 85.3011 69.9219C83.5448 69.9219 82.1211 71.3456 82.1211 73.1019C82.1211 74.8581 83.5448 76.2819 85.3011 76.2819Z" fill="#FFD100"/>
<path d="M85.3011 87.3834C87.0574 87.3834 88.4811 85.9597 88.4811 84.2034C88.4811 82.4472 87.0574 81.0234 85.3011 81.0234C83.5448 81.0234 82.1211 82.4472 82.1211 84.2034C82.1211 85.9597 83.5448 87.3834 85.3011 87.3834Z" fill="#FFD100"/>
<path d="M69.9281 36.5391H54.5781V61.6591H69.9281V36.5391Z" fill="#FFD100"/>
<path d="M75.5795 64.6622H50.2295C49.2795 64.6622 48.5195 63.8922 48.5195 62.9522C48.5195 62.0122 49.2895 61.2422 50.2295 61.2422H75.5795C76.5295 61.2422 77.2895 62.0122 77.2895 62.9522C77.2895 63.8922 76.5195 64.6622 75.5795 64.6622Z" fill="#A2A9AE"/>
<path d="M21.0697 190.832H19.1697V188.832H19.1197C18.2897 190.362 17.0697 191.132 15.4597 191.132C14.2797 191.132 13.3497 190.792 12.6797 190.122C12.0097 189.452 11.6797 188.552 11.6797 187.442C11.6797 185.052 12.9897 183.662 15.6097 183.272L19.1697 182.732C19.1697 180.562 18.3497 179.472 16.7197 179.472C15.2897 179.472 13.9897 179.992 12.8397 181.042V178.942C14.0097 178.142 15.3597 177.742 16.8797 177.742C19.6697 177.742 21.0697 179.332 21.0697 182.512V190.832ZM19.1697 184.362L16.2997 184.782C15.4197 184.912 14.7497 185.152 14.2997 185.492C13.8497 185.832 13.6297 186.422 13.6297 187.282C13.6297 187.902 13.8397 188.412 14.2497 188.812C14.6597 189.212 15.2197 189.402 15.8997 189.402C16.8397 189.402 17.6197 189.042 18.2397 188.332C18.8597 187.622 19.1597 186.722 19.1597 185.632V184.362H19.1697Z" fill="#415364"/>
<path d="M23.5078 190.357V188.157C24.5478 188.977 25.6878 189.397 26.9378 189.397C28.6078 189.397 29.4478 188.797 29.4478 187.597C29.4478 187.257 29.3778 186.967 29.2378 186.727C29.0978 186.487 28.8978 186.277 28.6578 186.097C28.4178 185.917 28.1278 185.747 27.7978 185.607C27.4678 185.467 27.1178 185.307 26.7378 185.147C26.2078 184.927 25.7478 184.697 25.3478 184.467C24.9478 184.237 24.6178 183.977 24.3478 183.697C24.0778 183.417 23.8778 183.087 23.7478 182.717C23.6178 182.347 23.5478 181.927 23.5478 181.427C23.5478 180.827 23.6778 180.297 23.9278 179.837C24.1778 179.377 24.5278 178.987 24.9478 178.677C25.3778 178.367 25.8578 178.127 26.4078 177.967C26.9578 177.807 27.5178 177.727 28.0978 177.727C29.1278 177.727 30.0478 177.917 30.8578 178.297V180.367C29.9778 179.747 28.9778 179.447 27.8378 179.447C27.4778 179.447 27.1578 179.487 26.8778 179.577C26.5878 179.667 26.3478 179.787 26.1378 179.947C25.9278 180.107 25.7778 180.297 25.6578 180.517C25.5378 180.737 25.4878 180.977 25.4878 181.247C25.4878 181.577 25.5478 181.857 25.6578 182.087C25.7678 182.317 25.9378 182.507 26.1478 182.687C26.3578 182.867 26.6278 183.017 26.9378 183.157C27.2478 183.297 27.5978 183.457 27.9978 183.617C28.5278 183.837 28.9978 184.057 29.4178 184.287C29.8378 184.517 30.1878 184.777 30.4878 185.057C30.7778 185.347 31.0078 185.677 31.1678 186.047C31.3278 186.417 31.4078 186.867 31.4078 187.387C31.4078 188.017 31.2778 188.567 31.0178 189.037C30.7578 189.507 30.4078 189.887 29.9778 190.197C29.5478 190.507 29.0478 190.737 28.4778 190.887C27.9078 191.037 27.3178 191.107 26.6978 191.107C25.4778 191.107 24.4178 190.857 23.5178 190.347L23.5078 190.357Z" fill="#415364"/>
<path d="M35.8406 188.982H35.7906V196.712H33.8906V178.042H35.7906V180.292H35.8406C36.7806 178.592 38.1506 177.742 39.9506 177.742C41.4806 177.742 42.6806 178.312 43.5406 179.462C44.4006 180.612 44.8306 182.142 44.8306 184.062C44.8306 186.202 44.3506 187.912 43.3806 189.202C42.4106 190.492 41.0906 191.132 39.4106 191.132C37.8706 191.132 36.6806 190.412 35.8406 188.982ZM35.7906 183.822V185.612C35.7906 186.672 36.1106 187.562 36.7506 188.302C37.3906 189.042 38.2006 189.402 39.1806 189.402C40.3306 189.402 41.2406 188.932 41.8906 187.982C42.5406 187.032 42.8706 185.712 42.8706 184.022C42.8706 182.602 42.5606 181.482 41.9506 180.672C41.3406 179.862 40.5106 179.462 39.4606 179.462C38.3506 179.462 37.4606 179.872 36.7906 180.702C36.1206 181.532 35.7806 182.572 35.7806 183.822H35.7906Z" fill="#415364"/>
<path d="M57.0011 184.942H48.6011C48.6311 186.362 48.9911 187.462 49.6711 188.242C50.3511 189.022 51.2911 189.402 52.4811 189.402C53.8211 189.402 55.0511 188.932 56.1711 187.982V189.902C55.1311 190.722 53.7411 191.122 52.0211 191.122C50.3011 191.122 49.0211 190.542 48.0611 189.382C47.1011 188.222 46.6211 186.592 46.6211 184.482C46.6211 182.492 47.1411 180.872 48.1911 179.622C49.2411 178.372 50.5411 177.742 52.1011 177.742C53.6611 177.742 54.8611 178.282 55.7111 179.362C56.5611 180.442 56.9911 181.942 56.9911 183.872V184.942H57.0011ZM55.0511 183.202C55.0511 182.022 54.7811 181.102 54.2511 180.442C53.7311 179.782 53.0011 179.452 52.0711 179.452C51.1411 179.452 50.4111 179.802 49.7811 180.492C49.1511 181.182 48.7711 182.082 48.6211 183.202H55.0411H55.0511Z" fill="#415364"/>
<path d="M61.3609 190.828H59.4609V171.898H61.3609V190.828Z" fill="#415364"/>
<path d="M96.0194 69.9688H95.4994C94.0413 69.9688 92.8594 71.1507 92.8594 72.6087V83.5687C92.8594 85.0268 94.0413 86.2087 95.4994 86.2087H96.0194C97.4774 86.2087 98.6594 85.0268 98.6594 83.5687V72.6087C98.6594 71.1507 97.4774 69.9688 96.0194 69.9688Z" fill="#FFD100"/>
</g>
<defs>
<clipPath id="clip0_580_1203">
<rect width="150.12" height="196.21" fill="white" transform="translate(0 0.5)"/>
</clipPath>
</defs>
</svg>
