<svg width="164" height="197" viewBox="0 0 164 197" fill="none" xmlns="http://www.w3.org/2000/svg">
<g clip-path="url(#clip0_580_1373)">
<path d="M9.40172 190.707H7.50172V188.707H7.45172C6.62172 190.237 5.40172 191.007 3.79172 191.007C2.61172 191.007 1.68172 190.667 1.01172 189.997C0.341719 189.327 0.0117188 188.427 0.0117188 187.317C0.0117188 184.927 1.32172 183.537 3.94172 183.147L7.51172 182.607C7.51172 180.437 6.69172 179.347 5.06172 179.347C3.63172 179.347 2.34172 179.867 1.18172 180.917V178.817C2.35172 178.017 3.70172 177.617 5.22172 177.617C8.01172 177.617 9.41172 179.207 9.41172 182.387V190.707H9.40172ZM7.50172 184.237L4.63172 184.657C3.75172 184.787 3.08172 185.027 2.63172 185.367C2.18172 185.707 1.96172 186.297 1.96172 187.157C1.96172 187.777 2.17172 188.287 2.58172 188.687C2.99172 189.087 3.55172 189.277 4.24172 189.277C5.19172 189.277 5.96172 188.917 6.58172 188.207C7.20172 187.497 7.50172 186.597 7.50172 185.507V184.237Z" fill="#415364"/>
<path d="M11.8398 190.232V188.032C12.8798 188.852 14.0198 189.272 15.2698 189.272C16.9398 189.272 17.7798 188.672 17.7798 187.472C17.7798 187.132 17.7098 186.842 17.5698 186.602C17.4298 186.362 17.2298 186.152 16.9898 185.972C16.7498 185.792 16.4598 185.622 16.1298 185.482C15.7998 185.332 15.4498 185.182 15.0698 185.022C14.5398 184.802 14.0798 184.572 13.6798 184.342C13.2798 184.112 12.9498 183.852 12.6798 183.572C12.4098 183.282 12.2098 182.962 12.0798 182.592C11.9398 182.222 11.8798 181.802 11.8798 181.302C11.8798 180.702 12.0098 180.172 12.2598 179.712C12.5098 179.252 12.8598 178.862 13.2798 178.552C13.6998 178.242 14.1898 178.002 14.7398 177.842C15.2898 177.682 15.8498 177.602 16.4298 177.602C17.4598 177.602 18.3798 177.792 19.1898 178.172V180.242C18.3098 179.622 17.3098 179.322 16.1698 179.322C15.8098 179.322 15.4898 179.362 15.2098 179.452C14.9198 179.542 14.6798 179.662 14.4698 179.822C14.2598 179.982 14.1098 180.172 13.9898 180.392C13.8798 180.612 13.8198 180.852 13.8198 181.122C13.8198 181.452 13.8798 181.732 13.9898 181.962C14.0998 182.192 14.2698 182.382 14.4798 182.562C14.6898 182.742 14.9598 182.892 15.2698 183.032C15.5798 183.172 15.9298 183.332 16.3298 183.492C16.8598 183.712 17.3298 183.932 17.7498 184.162C18.1698 184.392 18.5198 184.652 18.8198 184.932C19.1098 185.222 19.3398 185.552 19.4998 185.922C19.6598 186.302 19.7398 186.742 19.7398 187.262C19.7398 187.892 19.6098 188.442 19.3498 188.912C19.0898 189.382 18.7398 189.762 18.3098 190.072C17.8798 190.382 17.3798 190.612 16.8098 190.762C16.2498 190.912 15.6498 190.982 15.0298 190.982C13.8098 190.982 12.7498 190.732 11.8498 190.222L11.8398 190.232Z" fill="#415364"/>
<path d="M24.1727 188.857H24.1227V196.587H22.2227V177.917H24.1227V180.167H24.1727C25.1127 178.467 26.4827 177.617 28.2827 177.617C29.8127 177.617 31.0127 178.187 31.8727 179.337C32.7327 180.487 33.1627 182.017 33.1627 183.937C33.1627 186.077 32.6827 187.787 31.7127 189.077C30.7427 190.367 29.4227 191.007 27.7427 191.007C26.2027 191.007 25.0127 190.287 24.1827 188.857H24.1727ZM24.1227 183.697V185.487C24.1227 186.547 24.4427 187.437 25.0827 188.177C25.7227 188.917 26.5327 189.277 27.5127 189.277C28.6627 189.277 29.5727 188.807 30.2227 187.857C30.8727 186.907 31.2027 185.587 31.2027 183.897C31.2027 182.477 30.8927 181.357 30.2827 180.547C29.6727 179.737 28.8427 179.337 27.8027 179.337C26.6927 179.337 25.8027 179.747 25.1327 180.577C24.4627 181.407 24.1227 182.447 24.1227 183.697Z" fill="#415364"/>
<path d="M45.3331 184.817H36.9331C36.9631 186.237 37.3231 187.337 38.0031 188.117C38.6831 188.897 39.6231 189.277 40.8131 189.277C42.1531 189.277 43.3831 188.807 44.5031 187.857V189.777C43.4631 190.597 42.0731 190.997 40.3531 190.997C38.6331 190.997 37.3531 190.417 36.3931 189.257C35.4331 188.097 34.9531 186.467 34.9531 184.357C34.9531 182.367 35.4731 180.747 36.5231 179.497C37.5731 178.247 38.8731 177.617 40.4331 177.617C41.9931 177.617 43.1931 178.157 44.0431 179.237C44.8931 180.317 45.3231 181.817 45.3231 183.747V184.817H45.3331ZM43.3831 183.077C43.3831 181.897 43.1131 180.977 42.5831 180.317C42.0631 179.657 41.3331 179.327 40.4031 179.327C39.4731 179.327 38.7431 179.677 38.1131 180.367C37.4831 181.057 37.1031 181.957 36.9531 183.077H43.3731H43.3831Z" fill="#415364"/>
<path d="M49.693 190.703H47.793V171.773H49.693V190.703Z" fill="#415364"/>
<path d="M58.4705 191.003C58.3105 190.843 58.2305 190.573 58.2305 190.183V173.443C58.2305 173.053 58.3105 172.783 58.4705 172.623C58.6305 172.463 58.9105 172.383 59.3005 172.383H69.6305C70.0405 172.383 70.3205 172.463 70.4705 172.613C70.6205 172.763 70.6905 173.043 70.6905 173.453V175.123C70.6905 175.533 70.6105 175.813 70.4705 175.973C70.3205 176.133 70.0405 176.213 69.6305 176.213H62.6105V179.803H68.3405C68.7305 179.803 69.0005 179.883 69.1505 180.033C69.3005 180.183 69.3705 180.463 69.3705 180.873V182.543C69.3705 182.953 69.3005 183.233 69.1505 183.393C69.0005 183.553 68.7305 183.633 68.3405 183.633H62.6105V187.433H69.8605C70.2705 187.433 70.5505 187.513 70.7005 187.673C70.8505 187.833 70.9205 188.113 70.9205 188.523V190.193C70.9205 190.603 70.8405 190.883 70.7005 191.033C70.5505 191.183 70.2705 191.263 69.8605 191.263H59.3005C58.9105 191.263 58.6305 191.183 58.4705 191.023V191.003Z" fill="#A2D9E7"/>
<path d="M75.5606 190.538C74.3406 189.808 73.4906 188.728 73.0006 187.308C72.9206 187.028 72.8906 186.838 72.8906 186.748C72.8906 186.378 73.1406 186.098 73.6506 185.928L75.7606 185.268C75.9706 185.198 76.1506 185.158 76.3206 185.158C76.5106 185.158 76.6706 185.218 76.8006 185.328C76.9306 185.448 77.0506 185.648 77.1706 185.928C77.4306 186.528 77.8306 186.998 78.3806 187.338C78.9206 187.678 79.5706 187.838 80.3206 187.838C81.3906 187.838 82.1906 187.658 82.7206 187.308C83.2506 186.958 83.5206 186.398 83.5206 185.638C83.5206 184.998 83.2306 184.538 82.6606 184.248C82.0906 183.958 81.2606 183.748 80.1706 183.628C78.8206 183.468 77.6606 183.238 76.6706 182.928C75.6906 182.618 74.8406 182.058 74.1306 181.258C73.4206 180.448 73.0606 179.328 73.0606 177.868C73.0606 176.718 73.3506 175.698 73.9206 174.818C74.4906 173.928 75.3306 173.238 76.4306 172.748C77.5306 172.258 78.8706 172.008 80.4506 172.008C82.2506 172.008 83.6806 172.348 84.7606 173.018C85.8406 173.688 86.6906 174.688 87.3306 175.998C87.4606 176.278 87.5306 176.498 87.5306 176.638C87.5306 176.978 87.2806 177.238 86.7706 177.438L84.7506 178.178C84.5106 178.268 84.3206 178.308 84.1906 178.308C84.0206 178.308 83.8806 178.258 83.7706 178.148C83.6606 178.038 83.5406 177.868 83.4106 177.618C83.1506 177.048 82.7606 176.618 82.2606 176.318C81.7506 176.018 81.1506 175.868 80.4606 175.868C79.4106 175.868 78.6606 176.018 78.2006 176.308C77.7406 176.598 77.5106 177.088 77.5106 177.758C77.5106 178.468 77.8206 178.958 78.4506 179.248C79.0806 179.528 80.0306 179.748 81.3006 179.888C83.2306 180.098 84.8306 180.628 86.1006 181.468C87.3706 182.308 88.0106 183.748 88.0106 185.788C88.0106 187.598 87.3306 189.028 85.9606 190.088C84.5906 191.148 82.7006 191.678 80.2906 191.678C78.3606 191.678 76.7906 191.308 75.5706 190.578L75.5606 190.538Z" fill="#A2D9E7"/>
<path d="M91.0486 191.003C90.8886 190.843 90.8086 190.573 90.8086 190.183V173.443C90.8086 173.053 90.8886 172.783 91.0486 172.623C91.2086 172.463 91.4886 172.383 91.8786 172.383H98.6786C100.649 172.383 102.219 172.953 103.399 174.083C104.579 175.213 105.169 176.763 105.169 178.733C105.169 180.703 104.589 182.213 103.429 183.343C102.269 184.463 100.699 185.033 98.7086 185.033H95.1986V190.183C95.1986 190.593 95.1286 190.873 94.9786 191.023C94.8286 191.173 94.5586 191.253 94.1686 191.253H91.8986C91.5086 191.253 91.2286 191.173 91.0686 191.013L91.0486 191.003ZM98.4486 181.203C99.1786 181.203 99.7486 180.983 100.149 180.543C100.549 180.103 100.749 179.493 100.749 178.713C100.749 177.933 100.549 177.323 100.149 176.883C99.7486 176.443 99.1786 176.223 98.4486 176.223H95.1886V181.213H98.4486V181.203Z" fill="#A2D9E7"/>
<path d="M104.631 190.703C104.631 190.523 104.671 190.353 104.741 190.203L110.831 173.253C110.961 172.903 111.121 172.663 111.291 172.553C111.461 172.443 111.741 172.383 112.121 172.383H114.511C114.871 172.383 115.141 172.443 115.321 172.553C115.511 172.673 115.671 172.883 115.801 173.203L121.891 190.203C121.971 190.453 122.001 190.613 122.001 190.683C122.001 191.053 121.721 191.243 121.161 191.243H118.941C118.321 191.243 117.891 191.173 117.651 191.043C117.411 190.913 117.231 190.663 117.121 190.283L116.391 187.703H110.071L109.311 190.283C109.201 190.653 109.021 190.903 108.781 191.043C108.541 191.173 108.121 191.243 107.541 191.243H105.431C104.891 191.243 104.621 191.063 104.621 190.713L104.631 190.703ZM115.271 184.243L114.091 180.023C113.701 178.603 113.441 177.383 113.331 176.353H113.131C112.981 177.643 112.741 178.863 112.401 179.993L111.221 184.243H115.261H115.271Z" fill="#A2D9E7"/>
<path d="M125.049 189.757C123.709 188.497 123.039 186.767 123.039 184.547V179.077C123.039 176.867 123.709 175.127 125.049 173.867C126.389 172.607 128.269 171.977 130.679 171.977C134.419 171.977 136.849 173.457 137.949 176.417C138.029 176.617 138.059 176.787 138.059 176.947C138.059 177.157 137.989 177.327 137.859 177.447C137.729 177.567 137.529 177.677 137.269 177.767L135.189 178.377C134.979 178.447 134.799 178.487 134.629 178.487C134.439 178.487 134.289 178.427 134.169 178.297C134.049 178.177 133.939 177.967 133.849 177.687C133.629 177.047 133.259 176.577 132.739 176.267C132.229 175.957 131.549 175.807 130.699 175.807C129.579 175.807 128.749 176.077 128.219 176.607C127.689 177.137 127.419 177.957 127.419 179.047V184.577C127.419 185.677 127.689 186.487 128.229 187.017C128.769 187.547 129.609 187.817 130.759 187.817C132.309 187.817 133.319 187.177 133.789 185.907C133.879 185.607 133.999 185.397 134.129 185.267C134.259 185.147 134.419 185.077 134.609 185.077C134.699 185.077 134.879 185.117 135.139 185.187L137.299 185.847C137.809 186.007 138.059 186.267 138.059 186.647C138.059 186.827 138.019 187.007 137.949 187.207C137.449 188.637 136.579 189.737 135.349 190.497C134.119 191.257 132.569 191.637 130.679 191.637C128.259 191.637 126.389 191.007 125.049 189.747V189.757Z" fill="#A2D9E7"/>
<path d="M140.992 191.025C140.822 190.885 140.742 190.625 140.742 190.255V173.335C140.742 172.965 140.822 172.715 140.992 172.575C141.162 172.445 141.402 172.375 141.722 172.375H144.192C144.512 172.375 144.742 172.445 144.892 172.575C145.042 172.705 145.112 172.965 145.112 173.335V190.255C145.112 190.625 145.032 190.885 144.862 191.025C144.692 191.165 144.452 191.235 144.132 191.235H141.712C141.392 191.235 141.152 191.165 140.982 191.025H140.992Z" fill="#A2D9E7"/>
<path d="M150.381 189.757C149.041 188.497 148.371 186.767 148.371 184.547V179.077C148.371 176.867 149.041 175.127 150.381 173.867C151.721 172.607 153.601 171.977 156.041 171.977C158.481 171.977 160.391 172.607 161.731 173.867C163.071 175.127 163.741 176.857 163.741 179.077V184.547C163.741 186.757 163.071 188.497 161.731 189.757C160.391 191.017 158.501 191.647 156.041 191.647C153.581 191.647 151.721 191.017 150.381 189.757ZM153.581 187.007C154.131 187.547 154.951 187.817 156.041 187.817C157.131 187.817 157.951 187.547 158.511 187.007C159.071 186.467 159.351 185.677 159.351 184.627V178.997C159.351 177.957 159.071 177.157 158.511 176.617C157.951 176.077 157.121 175.807 156.041 175.807C154.961 175.807 154.141 176.077 153.581 176.617C153.031 177.157 152.751 177.947 152.751 178.997V184.627C152.751 185.667 153.031 186.467 153.581 187.007Z" fill="#A2D9E7"/>
<path d="M83.6498 150.12C42.2598 150.12 8.58984 116.45 8.58984 75.06C8.58984 33.67 42.2698 0 83.6498 0C125.03 0 158.71 33.67 158.71 75.06C158.71 116.45 125.04 150.12 83.6498 150.12ZM83.6498 11.14C48.4098 11.14 19.7298 39.81 19.7298 75.06C19.7298 110.31 48.3998 138.98 83.6498 138.98C118.9 138.98 147.57 110.31 147.57 75.06C147.57 39.81 118.9 11.14 83.6498 11.14Z" fill="#A2D9E7"/>
<path d="M97.8033 72.1428L84.2733 70.1328C76.5233 70.5728 72.0833 71.6828 69.6233 72.6128C67.9433 73.2528 66.8633 74.8928 66.8633 76.6828V97.1028C66.8633 98.3428 67.3833 99.5128 68.3033 100.343L80.9633 111.833C81.7833 112.573 82.8533 112.993 83.9533 112.993C85.1433 112.993 86.2833 112.553 87.1633 111.753L99.3333 100.653C100.243 99.8228 100.763 98.6528 100.763 97.4128V75.5628C100.763 73.8428 99.5033 72.3828 97.8033 72.1328V72.1428ZM94.7433 86.6428L83.1833 98.2028C82.4133 98.9728 81.1533 98.9628 80.3833 98.1828L74.1033 91.6828C73.3633 90.9128 73.3733 89.6928 74.1233 88.9328L75.3933 87.6628C76.1633 86.8928 77.4033 86.8928 78.1633 87.6628L80.7333 90.2328C81.5033 91.0028 82.7433 91.0028 83.5033 90.2328L90.9133 82.8228C91.6833 82.0528 92.9233 82.0528 93.6833 82.8228L94.7233 83.8628C95.4933 84.6328 95.4933 85.8728 94.7233 86.6328L94.7433 86.6428Z" fill="#A2D9E7"/>
<path d="M61.4629 94.4184H41.0629L40.6829 94.2984C36.5229 92.9484 29.1129 88.0084 30.9029 78.9184C32.2329 72.1784 37.0829 69.4484 41.1729 68.6184C40.2929 65.9284 39.5429 62.0284 40.7529 58.2384C41.8729 54.7484 44.3629 52.0584 48.1729 50.2584C56.0629 46.5184 61.1829 47.6384 64.1029 49.2484C66.8529 44.0584 73.0529 37.6484 83.8129 37.6484C83.9029 37.6484 83.9929 37.6484 84.0929 37.6484C84.5929 37.6684 93.6429 38.2384 100.173 47.8484C105.433 45.9284 114.153 44.9984 119.753 51.8484L119.943 52.1184C120.333 52.7384 123.203 57.5484 123.303 62.6384C129.073 63.2684 136.893 66.7584 137.563 77.1184C138.203 80.9384 136.853 88.9584 127.213 93.1484L126.763 93.3384L107.033 93.8084L106.913 88.8084L125.653 88.3584C133.663 84.6384 132.663 78.1284 132.613 77.8484L132.573 77.5484C131.973 67.2784 121.843 67.4684 120.693 67.5284L117.383 67.6884L118.133 64.4584C118.913 61.1484 116.773 56.5584 115.773 54.8784C110.253 48.3484 100.713 53.0084 100.313 53.2184L98.2029 54.2784L97.0229 52.2384C92.0229 43.5184 84.6829 42.7084 83.9729 42.6484H83.8129C71.0429 42.6484 67.6729 53.5184 67.5329 53.9884L66.0329 59.0284L63.0629 54.6984C62.9529 54.5584 59.6429 50.3584 50.3129 54.7884C47.7829 55.9884 46.2129 57.6084 45.5229 59.7484C44.0729 64.2484 46.9729 69.5884 47.0029 69.6384L49.2529 73.7084L44.6229 73.3484C43.8829 73.2984 37.1629 73.0384 35.8229 79.8884C34.5929 86.1484 40.2829 88.8084 41.9029 89.4284H61.4729V94.4284L61.4629 94.4184Z" fill="#A2A9AD"/>
</g>
<defs>
<clipPath id="clip0_580_1373">
<rect width="163.74" height="196.58" fill="white"/>
</clipPath>
</defs>
</svg>
