<svg width="151" height="197" viewBox="0 0 151 197" fill="none" xmlns="http://www.w3.org/2000/svg">
<g clip-path="url(#clip0_580_1327)">
<path d="M57.0989 72.8072C50.4989 72.8072 45.1289 67.4372 45.1289 60.8372C45.1289 54.2372 50.4989 48.8672 57.0989 48.8672C63.6989 48.8672 69.0689 54.2372 69.0689 60.8372C69.0689 67.4372 63.6989 72.8072 57.0989 72.8072ZM57.0989 52.8672C52.7089 52.8672 49.1289 56.4472 49.1289 60.8372C49.1289 65.2272 52.7089 68.8072 57.0989 68.8072C61.4889 68.8072 65.0689 65.2272 65.0689 60.8372C65.0689 56.4472 61.4889 52.8672 57.0989 52.8672Z" fill="#B3B9BC"/>
<path d="M62.7611 90.1813H51.0911L50.1211 85.3013C48.2411 84.7713 46.4311 84.0113 44.7211 83.0513L40.5811 85.8112L32.3311 77.5612L35.1411 73.3512C34.2111 71.6612 33.4911 69.8713 32.9811 68.0013L27.8711 66.9813V55.3113L33.1611 54.2612C33.6811 52.5212 34.4011 50.8613 35.2911 49.2713L32.3711 44.9013L40.6211 36.6513L45.0811 39.6313C46.6511 38.7813 48.3011 38.1013 50.0111 37.6113L51.0711 32.2812H62.7411L63.8011 37.6113C65.5211 38.1113 67.1811 38.7913 68.7611 39.6513L73.2511 36.6513L81.5011 44.9013L78.5511 49.3213C79.4611 50.9413 80.1811 52.6512 80.7011 54.4212L85.9711 55.4713V67.1413L80.7711 68.1712C80.2611 69.9812 79.5411 71.7212 78.6311 73.3812L81.4611 77.6213L73.2111 85.8713L69.0111 83.0713C67.3411 84.0113 65.5711 84.7512 63.7311 85.2712L62.7511 90.1712L62.7611 90.1813ZM54.3711 86.1813H59.4811L60.3111 82.0013L61.5711 81.7113C63.8511 81.1913 66.0211 80.2812 68.0011 79.0212L69.1011 78.3213L72.7011 80.7313L76.3111 77.1213L73.8911 73.4912L74.5711 72.4013C75.8011 70.4313 76.6811 68.2812 77.1811 66.0212L77.4711 64.7513L81.9611 63.8613V58.7513L77.4311 57.8512L77.1311 56.6012C76.6011 54.3712 75.7111 52.2613 74.4811 50.3213L73.7811 49.2213L76.3411 45.3913L72.7311 41.7812L68.8611 44.3613L67.7711 43.6912C65.8611 42.5112 63.7911 41.6613 61.6111 41.1613L60.3511 40.8713L59.4311 36.2612H54.3211L53.4011 40.8713L52.1411 41.1613C49.9811 41.6613 47.9111 42.5113 46.0111 43.6813L44.9211 44.3512L41.0911 41.7913L37.4811 45.4013L40.0011 49.1813L39.3011 50.2812C38.0911 52.1812 37.2011 54.2613 36.6611 56.4513L36.3611 57.6912L31.8311 58.5913V63.7013L36.2611 64.5813L36.5411 65.8613C37.0411 68.1713 37.9311 70.3613 39.1711 72.3613L39.8511 73.4512L37.4511 77.0413L41.0611 80.6513L44.6111 78.2812L45.7111 78.9813C47.7311 80.2613 49.9311 81.1813 52.2511 81.7113L53.5211 82.0013L54.3511 86.1712L54.3711 86.1813Z" fill="#B3B9BC"/>
<path d="M124.421 89.98L124.191 83.3L120.281 82.66C119.741 80.71 118.891 78.89 117.781 77.26L119.851 73.91L114.961 69.35L111.731 71.68C110.061 70.73 108.221 70.04 106.281 69.66L105.361 65.75L98.6811 65.98L98.0311 69.95C96.1311 70.46 94.3511 71.28 92.7611 72.33L89.3911 70.25L84.8311 75.14L87.1011 78.3C86.1211 79.97 85.4011 81.81 84.9911 83.76L81.1211 84.67L81.3511 91.35L85.1611 91.97C85.6711 94 86.5311 95.88 87.6511 97.57L85.6911 100.73L90.5811 105.29L93.5611 103.15C95.3311 104.19 97.2811 104.94 99.3511 105.33L100.191 108.89L106.871 108.66L107.461 105.03C109.471 104.49 111.331 103.63 112.991 102.49L116.151 104.45L120.711 99.56L118.521 96.51C119.511 94.78 120.231 92.88 120.611 90.87L124.421 89.97V89.98Z" fill="#4D4084"/>
<path d="M102.391 97.5625C107.913 97.5625 112.391 93.0853 112.391 87.5625C112.391 82.0397 107.913 77.5625 102.391 77.5625C96.8678 77.5625 92.3906 82.0397 92.3906 87.5625C92.3906 93.0853 96.8678 97.5625 102.391 97.5625Z" fill="white"/>
<path d="M20.3197 190.707H18.4197V188.707H18.3697C17.5397 190.237 16.3197 191.007 14.7097 191.007C13.5297 191.007 12.5997 190.667 11.9297 189.997C11.2597 189.327 10.9297 188.427 10.9297 187.317C10.9297 184.927 12.2397 183.537 14.8497 183.147L18.4197 182.607C18.4197 180.437 17.5997 179.347 15.9697 179.347C14.5397 179.347 13.2397 179.867 12.0897 180.917V178.817C13.2597 178.017 14.6097 177.617 16.1297 177.617C18.9197 177.617 20.3197 179.207 20.3197 182.387V190.707ZM18.4197 184.237L15.5497 184.657C14.6697 184.787 13.9997 185.027 13.5497 185.367C13.0997 185.707 12.8797 186.297 12.8797 187.157C12.8797 187.777 13.0897 188.287 13.4997 188.687C13.9097 189.087 14.4697 189.277 15.1597 189.277C16.0997 189.277 16.8797 188.917 17.4997 188.207C18.1197 187.497 18.4197 186.597 18.4197 185.507V184.237Z" fill="#415364"/>
<path d="M22.7578 190.232V188.032C23.7978 188.852 24.9378 189.272 26.1878 189.272C27.8578 189.272 28.6978 188.672 28.6978 187.472C28.6978 187.132 28.6278 186.842 28.4878 186.602C28.3478 186.362 28.1478 186.152 27.9078 185.972C27.6678 185.792 27.3778 185.622 27.0478 185.482C26.7178 185.332 26.3678 185.182 25.9878 185.022C25.4578 184.802 24.9978 184.572 24.5978 184.342C24.1978 184.112 23.8678 183.852 23.5978 183.572C23.3278 183.282 23.1278 182.962 22.9978 182.592C22.8578 182.222 22.7978 181.802 22.7978 181.302C22.7978 180.702 22.9278 180.172 23.1778 179.712C23.4278 179.252 23.7778 178.862 24.1978 178.552C24.6178 178.242 25.1078 178.002 25.6578 177.842C26.2078 177.682 26.7678 177.602 27.3478 177.602C28.3778 177.602 29.2978 177.792 30.1078 178.172V180.242C29.2278 179.622 28.2278 179.322 27.0878 179.322C26.7278 179.322 26.4078 179.362 26.1278 179.452C25.8378 179.542 25.5978 179.662 25.3878 179.822C25.1778 179.982 25.0278 180.172 24.9078 180.392C24.7978 180.612 24.7378 180.852 24.7378 181.122C24.7378 181.452 24.7978 181.732 24.9078 181.962C25.0178 182.192 25.1878 182.382 25.3978 182.562C25.6078 182.742 25.8778 182.892 26.1878 183.032C26.4978 183.172 26.8478 183.332 27.2478 183.492C27.7778 183.712 28.2478 183.932 28.6678 184.162C29.0878 184.392 29.4378 184.652 29.7378 184.932C30.0278 185.222 30.2578 185.552 30.4178 185.922C30.5778 186.302 30.6578 186.742 30.6578 187.262C30.6578 187.892 30.5278 188.442 30.2678 188.912C30.0078 189.382 29.6578 189.762 29.2278 190.072C28.7978 190.382 28.2978 190.612 27.7278 190.762C27.1678 190.912 26.5678 190.982 25.9478 190.982C24.7278 190.982 23.6678 190.732 22.7678 190.222L22.7578 190.232Z" fill="#415364"/>
<path d="M35.0984 188.857H35.0484V196.587H33.1484V177.917H35.0484V180.167H35.0984C36.0384 178.467 37.4084 177.617 39.2084 177.617C40.7384 177.617 41.9384 178.187 42.7984 179.337C43.6584 180.487 44.0884 182.017 44.0884 183.937C44.0884 186.077 43.6084 187.787 42.6384 189.077C41.6684 190.367 40.3484 191.007 38.6684 191.007C37.1284 191.007 35.9384 190.287 35.1084 188.857H35.0984ZM35.0484 183.697V185.487C35.0484 186.547 35.3684 187.437 36.0084 188.177C36.6484 188.917 37.4584 189.277 38.4384 189.277C39.5884 189.277 40.4984 188.807 41.1484 187.857C41.7984 186.907 42.1284 185.587 42.1284 183.897C42.1284 182.477 41.8184 181.357 41.2084 180.547C40.5984 179.737 39.7684 179.337 38.7284 179.337C37.6184 179.337 36.7284 179.747 36.0584 180.577C35.3884 181.407 35.0484 182.447 35.0484 183.697Z" fill="#415364"/>
<path d="M56.2511 184.817H47.8511C47.8811 186.237 48.2411 187.337 48.9211 188.117C49.6011 188.897 50.5411 189.277 51.7311 189.277C53.0711 189.277 54.3011 188.807 55.4211 187.857V189.777C54.3811 190.597 52.9911 190.997 51.2711 190.997C49.5511 190.997 48.2711 190.417 47.3111 189.257C46.3511 188.097 45.8711 186.467 45.8711 184.357C45.8711 182.367 46.3911 180.747 47.4411 179.497C48.4911 178.247 49.7911 177.617 51.3511 177.617C52.9111 177.617 54.1111 178.157 54.9611 179.237C55.8111 180.317 56.2411 181.817 56.2411 183.747V184.817H56.2511ZM54.3011 183.077C54.3011 181.897 54.0311 180.977 53.5011 180.317C52.9811 179.657 52.2511 179.327 51.3211 179.327C50.3911 179.327 49.6611 179.677 49.0311 180.367C48.4011 181.057 48.0211 181.957 47.8711 183.077H54.2911H54.3011Z" fill="#415364"/>
<path d="M60.6109 190.703H58.7109V171.773H60.6109V190.703Z" fill="#415364"/>
<path d="M69.4002 191.003C69.2402 190.843 69.1602 190.573 69.1602 190.183V173.443C69.1602 173.053 69.2402 172.783 69.4002 172.623C69.5602 172.463 69.8402 172.383 70.2302 172.383H77.0302C79.0002 172.383 80.5702 172.953 81.7502 174.083C82.9302 175.213 83.5201 176.763 83.5201 178.733C83.5201 180.703 82.9402 182.213 81.7802 183.343C80.6202 184.463 79.0502 185.033 77.0602 185.033H73.5502V190.183C73.5502 190.593 73.4802 190.873 73.3302 191.023C73.1802 191.173 72.9101 191.253 72.5201 191.253H70.2502C69.8602 191.253 69.5802 191.173 69.4202 191.013L69.4002 191.003ZM76.8002 181.203C77.5302 181.203 78.1002 180.983 78.5002 180.543C78.9002 180.103 79.1002 179.493 79.1002 178.713C79.1002 177.933 78.9002 177.323 78.5002 176.883C78.1002 176.443 77.5302 176.223 76.8002 176.223H73.5402V181.213H76.8002V181.203Z" fill="#4D4084"/>
<path d="M86.4392 191.003C86.2792 190.843 86.1992 190.573 86.1992 190.183V173.443C86.1992 173.053 86.2792 172.783 86.4392 172.623C86.5992 172.463 86.8792 172.383 87.2692 172.383H94.1792C96.1092 172.383 97.6492 172.923 98.8092 173.993C99.9692 175.063 100.549 176.543 100.549 178.443C100.549 181.013 99.4892 182.703 97.3792 183.513C97.6592 183.763 97.9492 184.173 98.2492 184.733L100.889 190.123C100.979 190.353 101.029 190.543 101.029 190.683C101.029 191.053 100.769 191.243 100.239 191.243H97.9692C97.3092 191.243 96.8692 191.183 96.6192 191.053C96.3792 190.933 96.1592 190.663 95.9692 190.253L94.0892 186.083C93.7492 185.353 93.4592 184.883 93.2192 184.673C92.9792 184.463 92.5592 184.353 91.9792 184.353H90.5792V190.173C90.5792 190.583 90.5092 190.863 90.3592 191.013C90.2092 191.163 89.9392 191.243 89.5492 191.243H87.2792C86.8892 191.243 86.6092 191.163 86.4492 191.003H86.4392ZM93.9492 180.723C94.6092 180.723 95.1292 180.523 95.5392 180.123C95.9392 179.723 96.1392 179.173 96.1392 178.463C96.1392 177.753 95.9392 177.203 95.5492 176.803C95.1592 176.403 94.6192 176.203 93.9492 176.203H90.5792V180.723H93.9492Z" fill="#4D4084"/>
<path d="M105.26 189.757C103.92 188.497 103.25 186.767 103.25 184.547V179.077C103.25 176.867 103.92 175.127 105.26 173.867C106.6 172.607 108.48 171.977 110.92 171.977C113.36 171.977 115.27 172.607 116.61 173.867C117.95 175.127 118.62 176.857 118.62 179.077V184.547C118.62 186.757 117.95 188.497 116.61 189.757C115.27 191.017 113.38 191.647 110.92 191.647C108.46 191.647 106.6 191.017 105.26 189.757ZM108.46 187.007C109.01 187.547 109.83 187.817 110.92 187.817C112.01 187.817 112.83 187.547 113.39 187.007C113.95 186.467 114.23 185.677 114.23 184.627V178.997C114.23 177.957 113.95 177.157 113.39 176.617C112.83 176.077 112 175.807 110.92 175.807C109.84 175.807 109.02 176.077 108.46 176.617C107.91 177.157 107.63 177.947 107.63 178.997V184.627C107.63 185.667 107.91 186.467 108.46 187.007Z" fill="#4D4084"/>
<path d="M122.08 191.003C121.92 190.843 121.84 190.573 121.84 190.183V173.443C121.84 173.053 121.92 172.783 122.08 172.623C122.24 172.463 122.52 172.383 122.91 172.383H128.98C131.43 172.383 133.33 173.013 134.67 174.273C136.01 175.533 136.68 177.263 136.68 179.483V184.163C136.68 186.373 136.01 188.113 134.67 189.373C133.33 190.633 131.44 191.263 128.98 191.263H122.91C122.52 191.263 122.24 191.183 122.08 191.023V191.003ZM129 187.413C130.1 187.413 130.92 187.143 131.46 186.593C131.99 186.043 132.26 185.233 132.26 184.153V179.473C132.26 178.393 131.99 177.583 131.46 177.033C130.93 176.483 130.11 176.213 129 176.213H126.22V187.423H129V187.413Z" fill="#4D4084"/>
<path d="M75.06 150.12C33.67 150.12 0 116.45 0 75.06C0 33.67 33.67 0 75.06 0C116.45 0 150.12 33.67 150.12 75.06C150.12 116.45 116.45 150.12 75.06 150.12ZM75.06 11.14C39.82 11.14 11.14 39.81 11.14 75.06C11.14 110.31 39.81 138.98 75.06 138.98C110.31 138.98 138.98 110.31 138.98 75.06C138.98 39.81 110.3 11.14 75.06 11.14Z" fill="#4D4084"/>
</g>
<defs>
<clipPath id="clip0_580_1327">
<rect width="150.12" height="196.58" fill="white"/>
</clipPath>
</defs>
</svg>
