<svg width="151" height="198" viewBox="0 0 151 198" fill="none" xmlns="http://www.w3.org/2000/svg">
<g clip-path="url(#clip0_580_1288)">
<path d="M10.0384 191.207H8.13844V189.207H8.08844C7.25844 190.737 6.03844 191.507 4.42844 191.507C3.24844 191.507 2.31844 191.167 1.64844 190.497C0.978437 189.827 0.648438 188.927 0.648438 187.817C0.648438 185.427 1.95844 184.037 4.57844 183.647L8.13844 183.107C8.13844 180.937 7.31844 179.847 5.68844 179.847C4.25844 179.847 2.95844 180.367 1.80844 181.417V179.317C2.97844 178.517 4.32844 178.117 5.84844 178.117C8.63844 178.117 10.0384 179.707 10.0384 182.887V191.207ZM8.13844 184.737L5.26844 185.157C4.38844 185.287 3.71844 185.527 3.26844 185.867C2.81844 186.207 2.59844 186.797 2.59844 187.657C2.59844 188.277 2.80844 188.787 3.21844 189.187C3.62844 189.587 4.18844 189.777 4.86844 189.777C5.80844 189.777 6.58844 189.417 7.20844 188.707C7.82844 187.997 8.12844 187.097 8.12844 186.007V184.737H8.13844Z" fill="#415364"/>
<path d="M12.4766 190.732V188.532C13.5166 189.352 14.6566 189.772 15.9066 189.772C17.5766 189.772 18.4166 189.172 18.4166 187.972C18.4166 187.632 18.3466 187.342 18.2066 187.102C18.0666 186.862 17.8666 186.652 17.6266 186.472C17.3866 186.292 17.0966 186.122 16.7666 185.982C16.4366 185.842 16.0866 185.682 15.7066 185.522C15.1766 185.302 14.7166 185.072 14.3166 184.842C13.9166 184.612 13.5866 184.352 13.3166 184.072C13.0466 183.792 12.8466 183.462 12.7166 183.092C12.5866 182.722 12.5166 182.302 12.5166 181.802C12.5166 181.202 12.6466 180.672 12.8966 180.212C13.1466 179.752 13.4966 179.362 13.9166 179.052C14.3466 178.742 14.8266 178.502 15.3766 178.342C15.9266 178.182 16.4866 178.102 17.0666 178.102C18.0966 178.102 19.0166 178.292 19.8266 178.672V180.742C18.9466 180.122 17.9466 179.822 16.8066 179.822C16.4466 179.822 16.1266 179.862 15.8466 179.952C15.5566 180.042 15.3166 180.162 15.1066 180.322C14.8966 180.482 14.7466 180.672 14.6266 180.892C14.5066 181.112 14.4566 181.352 14.4566 181.622C14.4566 181.952 14.5166 182.232 14.6266 182.462C14.7366 182.692 14.9066 182.882 15.1166 183.062C15.3266 183.242 15.5966 183.392 15.9066 183.532C16.2166 183.672 16.5666 183.832 16.9666 183.992C17.4966 184.212 17.9666 184.432 18.3866 184.662C18.8066 184.892 19.1566 185.152 19.4566 185.432C19.7466 185.722 19.9766 186.052 20.1366 186.422C20.2966 186.792 20.3766 187.242 20.3766 187.762C20.3766 188.392 20.2466 188.942 19.9866 189.412C19.7266 189.882 19.3766 190.262 18.9466 190.572C18.5166 190.882 18.0166 191.112 17.4466 191.262C16.8766 191.412 16.2866 191.482 15.6666 191.482C14.4466 191.482 13.3866 191.232 12.4866 190.722L12.4766 190.732Z" fill="#415364"/>
<path d="M24.8094 189.357H24.7594V197.087H22.8594V178.417H24.7594V180.667H24.8094C25.7494 178.967 27.1194 178.117 28.9194 178.117C30.4494 178.117 31.6494 178.687 32.5094 179.837C33.3694 180.987 33.7994 182.517 33.7994 184.437C33.7994 186.577 33.3194 188.287 32.3494 189.577C31.3794 190.867 30.0594 191.507 28.3794 191.507C26.8394 191.507 25.6494 190.787 24.8094 189.357ZM24.7594 184.197V185.987C24.7594 187.047 25.0794 187.937 25.7194 188.677C26.3594 189.417 27.1694 189.777 28.1494 189.777C29.2994 189.777 30.2094 189.307 30.8594 188.357C31.5094 187.407 31.8394 186.087 31.8394 184.397C31.8394 182.977 31.5294 181.857 30.9194 181.047C30.3094 180.237 29.4794 179.837 28.4294 179.837C27.3194 179.837 26.4294 180.247 25.7594 181.077C25.0894 181.907 24.7494 182.947 24.7494 184.197H24.7594Z" fill="#415364"/>
<path d="M45.9698 185.317H37.5698C37.5998 186.737 37.9598 187.837 38.6398 188.617C39.3198 189.397 40.2598 189.777 41.4498 189.777C42.7898 189.777 44.0198 189.307 45.1398 188.357V190.277C44.0998 191.097 42.7098 191.497 40.9898 191.497C39.2698 191.497 37.9898 190.917 37.0298 189.757C36.0698 188.597 35.5898 186.967 35.5898 184.857C35.5898 182.867 36.1098 181.247 37.1598 179.997C38.2098 178.747 39.5098 178.117 41.0698 178.117C42.6298 178.117 43.8298 178.657 44.6798 179.737C45.5298 180.817 45.9598 182.317 45.9598 184.247V185.317H45.9698ZM44.0198 183.577C44.0198 182.397 43.7498 181.477 43.2198 180.817C42.6998 180.157 41.9698 179.827 41.0398 179.827C40.1098 179.827 39.3798 180.177 38.7498 180.867C38.1198 181.557 37.7398 182.457 37.5898 183.577H44.0098H44.0198Z" fill="#415364"/>
<path d="M50.3297 191.203H48.4297V172.273H50.3297V191.203Z" fill="#415364"/>
<path d="M59.1111 191.503C58.9511 191.343 58.8711 191.073 58.8711 190.683V173.973C58.8711 173.563 58.9511 173.283 59.1111 173.123C59.2711 172.963 59.5511 172.883 59.9411 172.883H66.9011C68.6411 172.883 70.0511 173.343 71.1111 174.253C72.1811 175.163 72.7111 176.413 72.7111 177.983C72.7111 178.903 72.5611 179.663 72.2711 180.263C71.9811 180.863 71.5111 181.393 70.8511 181.853V181.933C72.5511 182.763 73.4111 184.293 73.4111 186.503C73.4111 188.173 72.8711 189.453 71.7811 190.373C70.6911 191.283 69.2111 191.743 67.3211 191.743H59.9311C59.5411 191.743 59.2611 191.663 59.1011 191.503H59.1111ZM66.5911 180.453C67.1511 180.453 67.6011 180.293 67.9211 179.973C68.2511 179.653 68.4111 179.163 68.4111 178.513C68.4111 177.863 68.2511 177.393 67.9211 177.063C67.5911 176.733 67.1511 176.573 66.5911 176.573H63.2511V180.453H66.5911ZM67.0711 188.023C67.6911 188.023 68.1711 187.853 68.5311 187.503C68.8911 187.163 69.0611 186.653 69.0611 186.003C69.0611 185.313 68.8811 184.793 68.5311 184.453C68.1711 184.103 67.6911 183.933 67.0711 183.933H63.2511V188.023H67.0711Z" fill="#93D500"/>
<path d="M74.3225 191.203C74.3225 191.023 74.3625 190.853 74.4325 190.703L80.5225 173.753C80.6525 173.403 80.8125 173.163 80.9825 173.053C81.1525 172.943 81.4325 172.883 81.8125 172.883H84.2025C84.5625 172.883 84.8325 172.943 85.0125 173.053C85.2025 173.173 85.3625 173.383 85.4925 173.703L91.5825 190.703C91.6525 190.953 91.6925 191.113 91.6925 191.183C91.6925 191.553 91.4125 191.743 90.8525 191.743H88.6325C88.0125 191.743 87.5825 191.673 87.3425 191.543C87.1025 191.413 86.9225 191.163 86.8125 190.783L86.0825 188.203H79.7625L79.0025 190.783C78.8925 191.153 78.7125 191.403 78.4725 191.543C78.2325 191.673 77.8125 191.743 77.2325 191.743H75.1225C74.5825 191.743 74.3125 191.563 74.3125 191.213L74.3225 191.203ZM84.9625 184.743L83.7825 180.523C83.3925 179.103 83.1325 177.883 83.0225 176.853H82.8225C82.6725 178.143 82.4325 179.363 82.0925 180.493L80.9125 184.743H84.9525H84.9625Z" fill="#93D500"/>
<path d="M94.0798 191.505C93.9198 191.345 93.8398 191.075 93.8398 190.685V173.945C93.8398 173.555 93.9198 173.285 94.0798 173.125C94.2398 172.965 94.5099 172.885 94.9099 172.885H97.5198C97.7998 172.885 98.0198 172.925 98.1798 173.005C98.3398 173.085 98.4698 173.215 98.5598 173.385L103.25 181.595C103.64 182.285 103.95 182.905 104.18 183.465C104.4 184.025 104.67 184.735 104.97 185.605L105.22 186.375H105.47C105.17 185.295 104.95 184.345 104.81 183.515C104.67 182.695 104.6 181.735 104.6 180.655V173.935C104.6 173.545 104.68 173.275 104.84 173.115C105 172.955 105.28 172.875 105.67 172.875H107.78C108.17 172.875 108.45 172.955 108.61 173.115C108.77 173.275 108.85 173.545 108.85 173.935V190.675C108.85 191.065 108.77 191.335 108.61 191.495C108.45 191.655 108.18 191.735 107.78 191.735H105.25C104.99 191.735 104.78 191.695 104.62 191.615C104.46 191.535 104.33 191.405 104.24 191.225L99.6298 183.065C99.1998 182.285 98.8399 181.525 98.5499 180.765C98.2599 180.015 97.9598 179.145 97.6398 178.145H97.4398C97.8698 180.185 98.0898 182.115 98.0898 183.935V190.655C98.0898 191.045 98.0098 191.315 97.8498 191.475C97.6898 191.635 97.4098 191.715 97.0198 191.715H94.9099C94.5199 191.715 94.2398 191.635 94.0798 191.475V191.505Z" fill="#93D500"/>
<path d="M114.073 190.257C112.733 188.997 112.062 187.267 112.062 185.047V179.577C112.062 177.367 112.733 175.627 114.073 174.367C115.413 173.107 117.282 172.477 119.702 172.477C123.442 172.477 125.873 173.957 126.973 176.917C127.043 177.117 127.083 177.287 127.083 177.447C127.083 177.657 127.012 177.827 126.882 177.947C126.752 178.067 126.553 178.177 126.293 178.267L124.213 178.877C124.003 178.947 123.823 178.987 123.653 178.987C123.463 178.987 123.313 178.927 123.193 178.797C123.073 178.677 122.963 178.467 122.873 178.187C122.653 177.547 122.283 177.077 121.763 176.767C121.253 176.457 120.573 176.307 119.723 176.307C118.603 176.307 117.773 176.577 117.233 177.107C116.693 177.637 116.433 178.457 116.433 179.547V185.077C116.433 186.177 116.703 186.987 117.243 187.517C117.783 188.047 118.632 188.317 119.772 188.317C121.322 188.317 122.333 187.677 122.803 186.407C122.893 186.107 123.013 185.897 123.143 185.767C123.273 185.647 123.433 185.577 123.623 185.577C123.713 185.577 123.893 185.617 124.153 185.687L126.312 186.347C126.822 186.507 127.073 186.767 127.073 187.147C127.073 187.327 127.033 187.507 126.963 187.707C126.453 189.137 125.593 190.237 124.363 190.997C123.133 191.757 121.573 192.137 119.683 192.137C117.263 192.137 115.393 191.507 114.053 190.247L114.073 190.257Z" fill="#93D500"/>
<path d="M131.233 190.257C129.893 188.997 129.223 187.267 129.223 185.047V179.577C129.223 177.367 129.893 175.627 131.233 174.367C132.573 173.107 134.453 172.477 136.893 172.477C139.333 172.477 141.243 173.107 142.583 174.367C143.923 175.627 144.593 177.357 144.593 179.577V185.047C144.593 187.257 143.923 188.997 142.583 190.257C141.243 191.517 139.353 192.147 136.893 192.147C134.433 192.147 132.573 191.517 131.233 190.257ZM134.433 187.507C134.983 188.047 135.803 188.317 136.893 188.317C137.983 188.317 138.803 188.047 139.363 187.507C139.923 186.967 140.203 186.177 140.203 185.127V179.497C140.203 178.457 139.923 177.657 139.363 177.117C138.803 176.577 137.973 176.307 136.893 176.307C135.813 176.307 134.983 176.577 134.433 177.117C133.883 177.657 133.603 178.447 133.603 179.497V185.127C133.603 186.167 133.883 186.967 134.433 187.507Z" fill="#93D500"/>
<path d="M75.06 150.62C33.67 150.62 0 116.95 0 75.56C0 34.17 33.67 0.5 75.06 0.5C116.45 0.5 150.12 34.17 150.12 75.56C150.12 116.95 116.45 150.62 75.06 150.62ZM75.06 11.64C39.82 11.64 11.14 40.31 11.14 75.56C11.14 110.81 39.81 139.48 75.06 139.48C110.31 139.48 138.98 110.81 138.98 75.56C138.98 40.31 110.3 11.64 75.06 11.64Z" fill="#93D500"/>
<path d="M109.411 51.0703H41.9113C37.1413 51.0703 33.2812 54.9303 33.2812 59.7003V71.3103C33.2812 75.1203 35.7512 78.3403 39.1712 79.4903L43.7113 64.9303C44.3513 62.8703 46.2613 61.4603 48.4313 61.4603H101.981C104.141 61.4603 106.051 62.8703 106.701 64.9303L111.311 79.7203C115.161 78.8603 118.051 75.4203 118.051 71.3103V59.7003C118.051 54.9303 114.191 51.0703 109.421 51.0703H109.411Z" fill="#93D500"/>
<path d="M104.911 108.123H46.4908C46.2808 108.123 46.0708 108.093 45.8708 108.033C42.6408 107.053 40.4208 105.423 39.2608 103.173C37.9608 100.653 38.5208 98.3028 38.7008 97.7028L46.0908 67.0728C46.3208 66.1128 47.1808 65.4328 48.1708 65.4328H54.0508C55.2308 65.4328 56.1908 66.3928 56.1908 67.5728C56.1908 68.7528 55.2308 69.7128 54.0508 69.7128H49.8608L42.8508 98.7728C42.8308 98.8328 42.8208 98.8928 42.8008 98.9528C42.6508 99.4728 42.0808 102.283 46.8308 103.833H104.581C105.481 103.513 108.571 102.163 108.951 98.8828C108.881 98.2728 108.651 96.2928 108.171 94.1528C107.671 91.8928 103.151 74.7628 101.741 69.4128H98.2708C97.0908 69.4128 96.1308 68.4528 96.1308 67.2728C96.1308 66.0928 97.0908 65.1328 98.2708 65.1328H103.391C104.361 65.1328 105.211 65.7828 105.461 66.7228C105.721 67.6928 111.741 90.4728 112.351 93.2228C112.981 96.0728 113.221 98.5728 113.231 98.6828C113.241 98.8128 113.241 98.9328 113.231 99.0628C112.651 105.963 105.781 107.963 105.491 108.053C105.301 108.103 105.111 108.133 104.911 108.133V108.123Z" fill="#A2A9AD"/>
<path d="M74.1594 92.1128C72.8394 92.0728 71.6094 91.9428 70.4494 91.7428C69.2994 91.5428 68.3494 91.2528 67.6094 90.8928L67.8094 86.8828C68.3094 87.0728 68.7994 87.2328 69.2694 87.3728C69.7494 87.5128 70.2394 87.6328 70.7494 87.7328C71.2594 87.8328 71.7894 87.9128 72.3494 87.9728C72.9094 88.0328 73.5294 88.0728 74.1994 88.0828L74.2394 83.7728C73.4394 83.6528 72.6494 83.5028 71.8594 83.3028C71.0794 83.1028 70.3794 82.8128 69.7694 82.4228C69.1594 82.0328 68.6794 81.5228 68.3194 80.8928C67.9594 80.2728 67.8094 79.4628 67.8694 78.4928C67.9094 77.7128 68.0894 77.0228 68.4194 76.4228C68.7394 75.8328 69.1794 75.3228 69.7394 74.8928C70.2994 74.4728 70.9594 74.1328 71.7394 73.8728C72.5094 73.6128 73.3794 73.4328 74.3494 73.3328L74.3694 71.6328H77.1694L77.1894 73.2828C78.0594 73.3228 78.9394 73.4228 79.8394 73.5628C80.7394 73.7028 81.5794 73.8928 82.3394 74.1428L82.4994 77.5528C80.5994 76.9628 78.8394 76.6428 77.2194 76.5728L77.2594 80.5428C78.0494 80.6628 78.8294 80.8328 79.5994 81.0328C80.3794 81.2328 81.0794 81.5328 81.6994 81.9228C82.3194 82.3128 82.8494 82.8328 83.2694 83.4828C83.6894 84.1328 83.9294 84.9828 83.9894 86.0228C84.0794 87.7228 83.5594 89.0828 82.4194 90.0928C81.2694 91.1128 79.5794 91.7528 77.3694 92.0028L77.3894 94.2228H74.1394L74.1594 92.1128ZM71.9094 78.3128C71.8994 78.8128 72.0894 79.2028 72.4794 79.4628C72.8694 79.7228 73.4694 79.9328 74.2794 80.0828L74.3094 76.6528C73.4194 76.7428 72.7994 76.9328 72.4594 77.2228C72.1094 77.5128 71.9294 77.8728 71.9194 78.3128H71.9094ZM79.7094 86.1028C79.6994 85.5528 79.4894 85.1428 79.0894 84.8628C78.6894 84.5828 78.0894 84.3728 77.2794 84.2328L77.3194 87.9428C78.9394 87.7228 79.7294 87.1128 79.7094 86.1028Z" fill="#93D500"/>
</g>
<defs>
<clipPath id="clip0_580_1288">
<rect width="150.12" height="196.58" fill="white" transform="translate(0 0.5)"/>
</clipPath>
</defs>
</svg>
