<svg width="151" height="198" viewBox="0 0 151 198" fill="none" xmlns="http://www.w3.org/2000/svg">
<g clip-path="url(#clip0_580_1307)">
<path d="M36.9411 105.607C35.5211 105.607 34.3711 104.457 34.3711 103.037V90.4172C34.3711 89.9672 34.4911 89.5272 34.7111 89.1372C34.9711 88.6772 41.4211 77.8672 64.6411 77.8672C87.8611 77.8672 91.8511 91.4872 91.9911 92.0672C92.0311 92.2572 92.0611 92.4572 92.0611 92.6472V102.627C92.0611 104.047 90.9111 105.197 89.4911 105.197C88.0711 105.197 86.9211 104.047 86.9211 102.627V93.0172C86.4011 91.5072 82.7011 83.0072 64.6511 83.0072C46.6011 83.0072 40.9811 89.4372 39.5311 91.2272V103.037C39.5311 104.457 38.3811 105.607 36.9611 105.607H36.9411Z" fill="#A2A9AD"/>
<path d="M36.6009 191.551H34.7009V189.551H34.6509C33.8209 191.081 32.6009 191.851 30.9909 191.851C29.8109 191.851 28.8809 191.511 28.2109 190.841C27.5409 190.171 27.2109 189.271 27.2109 188.161C27.2109 185.771 28.5209 184.381 31.1309 183.991L34.7009 183.451C34.7009 181.281 33.8809 180.191 32.2509 180.191C30.8209 180.191 29.5209 180.711 28.3709 181.761V179.661C29.5409 178.861 30.8909 178.461 32.4109 178.461C35.2009 178.461 36.6009 180.051 36.6009 183.231V191.551ZM34.7009 185.081L31.8309 185.501C30.9509 185.631 30.2809 185.871 29.8309 186.211C29.3809 186.551 29.1609 187.141 29.1609 188.001C29.1609 188.621 29.3709 189.131 29.7809 189.531C30.1909 189.931 30.7509 190.121 31.4409 190.121C32.3809 190.121 33.1609 189.761 33.7809 189.051C34.4009 188.341 34.7009 187.441 34.7009 186.351V185.081Z" fill="#415364"/>
<path d="M39.0391 191.091V188.891C40.0791 189.711 41.2191 190.131 42.4691 190.131C44.1391 190.131 44.9791 189.531 44.9791 188.331C44.9791 187.991 44.9091 187.701 44.7691 187.461C44.6291 187.221 44.4291 187.011 44.1891 186.831C43.9491 186.651 43.6591 186.481 43.3291 186.341C42.9991 186.191 42.6491 186.041 42.2691 185.881C41.7391 185.661 41.2791 185.431 40.8791 185.201C40.4791 184.971 40.1491 184.711 39.8791 184.431C39.6091 184.141 39.4091 183.821 39.2791 183.451C39.1391 183.081 39.0791 182.661 39.0791 182.161C39.0791 181.561 39.2091 181.031 39.4591 180.571C39.7091 180.111 40.0591 179.721 40.4791 179.411C40.8991 179.101 41.3891 178.861 41.9391 178.701C42.4891 178.541 43.0491 178.461 43.6291 178.461C44.6591 178.461 45.5791 178.651 46.3891 179.031V181.101C45.5091 180.481 44.5091 180.181 43.3691 180.181C43.0091 180.181 42.6891 180.221 42.4091 180.311C42.1191 180.401 41.8791 180.521 41.6691 180.681C41.4591 180.841 41.3091 181.031 41.1891 181.251C41.0791 181.471 41.0191 181.711 41.0191 181.981C41.0191 182.311 41.0791 182.591 41.1891 182.821C41.2991 183.051 41.4691 183.241 41.6791 183.421C41.8891 183.601 42.1591 183.751 42.4691 183.891C42.7791 184.031 43.1291 184.191 43.5291 184.351C44.0591 184.571 44.5291 184.791 44.9491 185.021C45.3691 185.251 45.7191 185.511 46.0191 185.791C46.3091 186.081 46.5391 186.411 46.6991 186.781C46.8591 187.161 46.9391 187.601 46.9391 188.121C46.9391 188.751 46.8091 189.301 46.5491 189.771C46.2891 190.241 45.9391 190.621 45.5091 190.931C45.0791 191.241 44.5791 191.471 44.0091 191.621C43.4491 191.771 42.8491 191.841 42.2291 191.841C41.0091 191.841 39.9491 191.591 39.0491 191.081L39.0391 191.091Z" fill="#415364"/>
<path d="M51.3797 189.701H51.3297V197.431H49.4297V178.761H51.3297V181.011H51.3797C52.3197 179.311 53.6897 178.461 55.4897 178.461C57.0197 178.461 58.2197 179.031 59.0797 180.181C59.9397 181.331 60.3697 182.861 60.3697 184.781C60.3697 186.921 59.8897 188.631 58.9197 189.921C57.9497 191.211 56.6297 191.851 54.9497 191.851C53.4097 191.851 52.2197 191.131 51.3897 189.701H51.3797ZM51.3297 184.541V186.331C51.3297 187.391 51.6497 188.281 52.2897 189.021C52.9297 189.761 53.7397 190.121 54.7197 190.121C55.8697 190.121 56.7797 189.651 57.4297 188.701C58.0797 187.751 58.4097 186.431 58.4097 184.741C58.4097 183.321 58.0997 182.201 57.4897 181.391C56.8797 180.581 56.0497 180.181 55.0097 180.181C53.8997 180.181 53.0097 180.591 52.3397 181.421C51.6697 182.251 51.3297 183.291 51.3297 184.541Z" fill="#415364"/>
<path d="M72.5323 185.669H64.1323C64.1623 187.089 64.5223 188.189 65.2023 188.969C65.8823 189.749 66.8223 190.129 68.0123 190.129C69.3523 190.129 70.5823 189.659 71.7023 188.709V190.629C70.6623 191.449 69.2723 191.849 67.5523 191.849C65.8323 191.849 64.5523 191.269 63.5923 190.109C62.6323 188.949 62.1523 187.319 62.1523 185.209C62.1523 183.219 62.6723 181.599 63.7223 180.349C64.7723 179.099 66.0723 178.469 67.6323 178.469C69.1923 178.469 70.3923 179.009 71.2423 180.089C72.0923 181.169 72.5223 182.669 72.5223 184.599V185.669H72.5323ZM70.5823 183.929C70.5823 182.749 70.3123 181.829 69.7823 181.169C69.2623 180.509 68.5323 180.179 67.6023 180.179C66.6723 180.179 65.9423 180.529 65.3123 181.219C64.6823 181.909 64.3023 182.809 64.1523 183.929H70.5723H70.5823Z" fill="#415364"/>
<path d="M76.8922 191.547H74.9922V172.617H76.8922V191.547Z" fill="#415364"/>
<path d="M85.6814 191.864C85.5214 191.704 85.4414 191.434 85.4414 191.044V174.304C85.4414 173.914 85.5214 173.644 85.6814 173.484C85.8414 173.324 86.1214 173.244 86.5114 173.244H89.1214C89.4014 173.244 89.6214 173.284 89.7814 173.364C89.9414 173.444 90.0714 173.574 90.1614 173.744L94.8514 181.954C95.2414 182.644 95.5514 183.264 95.7814 183.824C96.0014 184.384 96.2714 185.094 96.5714 185.964L96.8214 186.734H97.0714C96.7714 185.654 96.5514 184.704 96.4114 183.874C96.2714 183.054 96.2014 182.094 96.2014 181.014V174.294C96.2014 173.904 96.2814 173.634 96.4414 173.474C96.6014 173.314 96.8814 173.234 97.2714 173.234H99.3814C99.7714 173.234 100.051 173.314 100.211 173.474C100.371 173.634 100.451 173.904 100.451 174.294V191.034C100.451 191.424 100.371 191.694 100.211 191.854C100.051 192.014 99.7714 192.094 99.3814 192.094H96.8514C96.5914 192.094 96.3814 192.054 96.2214 191.974C96.0614 191.894 95.9314 191.764 95.8414 191.584L91.2314 183.424C90.8014 182.644 90.4414 181.884 90.1514 181.124C89.8614 180.364 89.5614 179.504 89.2414 178.504H89.0414C89.4714 180.544 89.6914 182.474 89.6914 184.294V191.014C89.6914 191.404 89.6114 191.674 89.4514 191.834C89.2914 191.994 89.0214 192.074 88.6214 192.074H86.5114C86.1214 192.074 85.8414 191.994 85.6814 191.834V191.864Z" fill="#FF8300"/>
<path d="M105.67 190.624C104.33 189.364 103.66 187.634 103.66 185.414V179.944C103.66 177.734 104.33 175.994 105.67 174.734C107.01 173.474 108.89 172.844 111.33 172.844C113.77 172.844 115.68 173.474 117.02 174.734C118.36 175.994 119.03 177.724 119.03 179.944V185.414C119.03 187.624 118.36 189.364 117.02 190.624C115.68 191.884 113.79 192.514 111.33 192.514C108.87 192.514 107.01 191.884 105.67 190.624ZM108.87 187.874C109.42 188.414 110.24 188.684 111.33 188.684C112.42 188.684 113.24 188.414 113.8 187.874C114.36 187.334 114.64 186.544 114.64 185.494V179.864C114.64 178.824 114.36 178.024 113.8 177.484C113.24 176.944 112.41 176.674 111.33 176.674C110.25 176.674 109.43 176.944 108.87 177.484C108.32 178.024 108.04 178.814 108.04 179.864V185.494C108.04 186.534 108.32 187.334 108.87 187.874Z" fill="#FF8300"/>
<path d="M122.512 191.892C122.342 191.752 122.262 191.492 122.262 191.122V174.202C122.262 173.832 122.342 173.582 122.512 173.442C122.682 173.312 122.922 173.242 123.242 173.242H125.712C126.032 173.242 126.262 173.312 126.412 173.442C126.562 173.572 126.632 173.832 126.632 174.202V191.122C126.632 191.492 126.552 191.752 126.382 191.892C126.212 192.032 125.972 192.102 125.652 192.102H123.232C122.912 192.102 122.672 192.032 122.502 191.892H122.512Z" fill="#FF8300"/>
<path d="M75.06 150.12C33.67 150.12 0 116.45 0 75.06C0 33.67 33.67 0 75.06 0C116.45 0 150.12 33.67 150.12 75.06C150.12 116.45 116.45 150.12 75.06 150.12ZM75.06 11.14C39.82 11.14 11.14 39.81 11.14 75.06C11.14 110.31 39.81 138.98 75.06 138.98C110.31 138.98 138.98 110.31 138.98 75.06C138.98 39.81 110.3 11.14 75.06 11.14Z" fill="#FF8300"/>
<path d="M63.6591 75.1706C63.4291 75.1706 63.0491 75.1706 62.5391 75.1206C53.7891 74.4306 46.8891 66.9406 46.8491 58.0706L46.7891 47.8706C46.7891 47.7106 46.7991 47.5606 46.8291 47.4006C46.9091 46.9606 48.9191 36.7306 64.4891 37.2706C70.3491 37.4706 74.6291 39.0706 77.2191 42.0306C79.6891 44.8606 79.6991 47.9006 79.6491 48.7106V56.2906C79.6491 62.0206 77.3491 67.4406 73.3291 71.1506C70.4491 73.8106 67.2491 75.1606 63.8291 75.1706C63.7891 75.1706 63.7291 75.1706 63.6591 75.1706ZM51.9291 48.1706L51.9791 58.0506C52.0091 64.2706 56.8291 69.5206 62.9391 70.0006C63.3791 70.0406 63.6591 70.0406 63.7091 70.0306C65.8891 70.0306 67.9291 69.1406 69.8291 67.3706C72.7891 64.6306 74.4991 60.5906 74.4991 56.2906V48.6206C74.4991 48.5306 74.4991 48.4506 74.5091 48.3606C74.5091 48.3406 74.5891 46.7906 73.2591 45.3306C71.6491 43.5606 68.5491 42.5506 64.2991 42.4106C54.2991 42.0706 52.2391 47.1006 51.9191 48.1706H51.9291Z" fill="#A2A9AD"/>
<path d="M86.5195 55.5677C86.5195 55.5677 87.6095 49.4877 97.2995 49.8177C106.99 50.1477 106.39 56.1177 106.39 56.1177V61.6177C106.39 65.1177 105.03 68.5376 102.45 70.9176C100.99 72.2676 99.1295 73.3076 96.8595 73.3076C96.8595 73.3076 96.5795 73.3076 96.1095 73.2776C90.7195 72.8576 86.5895 68.2877 86.5595 62.8777L86.5195 55.5677Z" fill="#FF8300"/>
<path d="M84.6914 79.1102C84.6914 79.1102 107.391 71.1702 116.251 85.2202V91.5302H94.8714C94.8714 91.5302 95.9914 83.1802 84.6914 79.1102Z" fill="#FF8300"/>
</g>
<defs>
<clipPath id="clip0_580_1307">
<rect width="150.12" height="197.44" fill="white"/>
</clipPath>
</defs>
</svg>
