<svg width="173" height="198" viewBox="0 0 173 198" fill="none" xmlns="http://www.w3.org/2000/svg">
<g clip-path="url(#clip0_580_1393)">
<path d="M9.39 191.6H7.49V189.63H7.44C6.61 191.14 5.39 191.9 3.78 191.9C2.6 191.9 1.67 191.57 1 190.9C0.33 190.23 0 189.35 0 188.25C0 185.89 1.31 184.52 3.92 184.13L7.49 183.6C7.49 181.46 6.67 180.38 5.04 180.38C3.61 180.38 2.31 180.9 1.16 181.93V179.86C2.33 179.07 3.68 178.68 5.2 178.68C7.99 178.68 9.39 180.25 9.39 183.39V191.6ZM7.49 185.22L4.62 185.64C3.74 185.77 3.07 186 2.62 186.34C2.17 186.67 1.95 187.26 1.95 188.11C1.95 188.73 2.16 189.23 2.57 189.62C2.98 190.01 3.54 190.21 4.23 190.21C5.17 190.21 5.95 189.86 6.57 189.16C7.19 188.46 7.49 187.57 7.49 186.49V185.23V185.22Z" fill="#415364"/>
<path d="M12.2617 191.155V188.985C13.3017 189.795 14.4417 190.205 15.6917 190.205C17.3617 190.205 18.2017 189.615 18.2017 188.435C18.2017 188.095 18.1317 187.815 17.9917 187.575C17.8517 187.335 17.6517 187.135 17.4117 186.955C17.1717 186.775 16.8817 186.615 16.5517 186.465C16.2217 186.325 15.8717 186.175 15.4917 186.015C14.9617 185.795 14.5017 185.565 14.1017 185.345C13.7017 185.115 13.3717 184.865 13.1017 184.585C12.8317 184.305 12.6317 183.975 12.5017 183.615C12.3617 183.255 12.3017 182.835 12.3017 182.345C12.3017 181.755 12.4317 181.235 12.6817 180.775C12.9317 180.315 13.2817 179.935 13.7017 179.625C14.1317 179.315 14.6117 179.085 15.1617 178.925C15.7117 178.765 16.2717 178.695 16.8517 178.695C17.8817 178.695 18.8017 178.885 19.6117 179.265V181.315C18.7317 180.705 17.7317 180.405 16.5917 180.405C16.2317 180.405 15.9117 180.445 15.6317 180.535C15.3417 180.625 15.1017 180.745 14.8917 180.895C14.6817 181.045 14.5317 181.235 14.4117 181.455C14.3017 181.675 14.2417 181.915 14.2417 182.175C14.2417 182.505 14.3017 182.775 14.4117 183.005C14.5217 183.225 14.6917 183.425 14.9017 183.595C15.1217 183.765 15.3817 183.925 15.6917 184.065C16.0017 184.205 16.3517 184.355 16.7517 184.525C17.2817 184.735 17.7517 184.955 18.1717 185.185C18.5917 185.415 18.9417 185.665 19.2417 185.945C19.5317 186.225 19.7617 186.555 19.9217 186.925C20.0817 187.295 20.1617 187.735 20.1617 188.245C20.1617 188.865 20.0317 189.415 19.7717 189.875C19.5117 190.335 19.1617 190.715 18.7317 191.025C18.3017 191.335 17.8017 191.555 17.2317 191.705C16.6617 191.855 16.0717 191.925 15.4517 191.925C14.2317 191.925 13.1717 191.675 12.2717 191.175L12.2617 191.155Z" fill="#415364"/>
<path d="M25.0281 189.783H24.9781V197.413H23.0781V178.993H24.9781V181.213H25.0281C25.9681 179.533 27.3381 178.703 29.1381 178.703C30.6681 178.703 31.8681 179.263 32.7281 180.393C33.5881 181.523 34.0181 183.033 34.0181 184.933C34.0181 187.043 33.5381 188.733 32.5681 190.003C31.5981 191.273 30.2781 191.903 28.5981 191.903C27.0581 191.903 25.8681 191.193 25.0381 189.783H25.0281ZM24.9781 184.693V186.453C24.9781 187.493 25.2981 188.383 25.9381 189.113C26.5781 189.843 27.3881 190.203 28.3681 190.203C29.5181 190.203 30.4281 189.733 31.0781 188.793C31.7281 187.853 32.0581 186.553 32.0581 184.883C32.0581 183.483 31.7481 182.383 31.1381 181.583C30.5281 180.783 29.6981 180.383 28.6581 180.383C27.5481 180.383 26.6581 180.793 25.9881 181.613C25.3181 182.433 24.9781 183.453 24.9781 184.683V184.693Z" fill="#415364"/>
<path d="M46.6105 185.805H38.2105C38.2405 187.205 38.6005 188.295 39.2805 189.055C39.9605 189.815 40.9005 190.205 42.0905 190.205C43.4305 190.205 44.6605 189.735 45.7805 188.795V190.695C44.7405 191.505 43.3505 191.905 41.6305 191.905C39.9105 191.905 38.6305 191.335 37.6705 190.185C36.7105 189.035 36.2305 187.425 36.2305 185.345C36.2305 183.385 36.7505 181.785 37.8005 180.545C38.8505 179.305 40.1505 178.695 41.7105 178.695C43.2705 178.695 44.4705 179.225 45.3205 180.295C46.1705 181.365 46.6005 182.845 46.6005 184.745V185.805H46.6105ZM44.6605 184.095C44.6605 182.925 44.3905 182.025 43.8605 181.375C43.3405 180.725 42.6105 180.405 41.6805 180.405C40.7505 180.405 40.0205 180.745 39.3905 181.425C38.7605 182.105 38.3805 182.995 38.2305 184.095H44.6505H44.6605Z" fill="#415364"/>
<path d="M51.4 191.602H49.5V172.922H51.4V191.602Z" fill="#415364"/>
<path d="M60.8714 192.4C60.7514 192.27 60.6914 192.03 60.6914 191.7V174.65C60.6914 174.31 60.7514 174.08 60.8714 173.95C60.9914 173.82 61.2214 173.75 61.5614 173.75H71.5714C71.9114 173.75 72.1414 173.82 72.2714 173.95C72.4014 174.08 72.4714 174.32 72.4714 174.65V175.95C72.4714 176.29 72.4014 176.52 72.2714 176.65C72.1414 176.78 71.9014 176.85 71.5714 176.85H64.1914V181.74H70.3114C70.6314 181.74 70.8614 181.81 71.0014 181.94C71.1414 182.07 71.2114 182.31 71.2114 182.64V183.94C71.2114 184.28 71.1414 184.51 71.0114 184.64C70.8814 184.77 70.6414 184.84 70.3114 184.84H64.1914V191.69C64.1914 192.03 64.1214 192.26 63.9914 192.39C63.8614 192.52 63.6314 192.59 63.3114 192.59H61.5614C61.2214 192.59 60.9914 192.52 60.8714 192.39V192.4Z" fill="#AA182C"/>
<path d="M72.1003 192.137C72.1003 192.067 72.1403 191.928 72.2103 191.708L78.6103 174.438C78.7203 174.137 78.8503 173.937 79.0003 173.837C79.1503 173.737 79.3803 173.688 79.7003 173.688H81.5003C81.8203 173.688 82.0603 173.737 82.2203 173.837C82.3803 173.937 82.5203 174.128 82.6303 174.408L89.0003 191.697C89.0603 191.857 89.0803 191.998 89.0803 192.128C89.0803 192.428 88.8403 192.577 88.3703 192.577H86.6803C86.1703 192.577 85.8103 192.527 85.6003 192.417C85.3903 192.307 85.2403 192.097 85.1603 191.777L84.0303 188.408H77.0103L75.8803 191.777C75.7903 192.097 75.6303 192.307 75.4303 192.417C75.2203 192.527 74.8803 192.577 74.3903 192.577H72.7803C72.3103 192.577 72.0703 192.428 72.0703 192.128L72.1003 192.137ZM83.0903 185.598L81.3103 180.048C80.9303 178.788 80.7103 177.767 80.6303 176.967H80.4603C80.3303 177.957 80.1103 178.988 79.8103 180.048L78.0103 185.598H83.0803H83.0903Z" fill="#AA182C"/>
<path d="M92.5811 191.148C91.2711 189.918 90.6211 188.218 90.6211 186.058V180.238C90.6211 178.098 91.2711 176.408 92.5811 175.178C93.8911 173.948 95.7211 173.328 98.0911 173.328C101.791 173.328 104.171 174.808 105.221 177.768C105.291 177.928 105.331 178.088 105.331 178.248C105.331 178.548 105.111 178.768 104.681 178.908L103.071 179.388C102.901 179.438 102.751 179.468 102.621 179.468C102.451 179.468 102.321 179.418 102.231 179.318C102.141 179.218 102.041 179.048 101.951 178.798C101.671 177.988 101.221 177.388 100.601 177.008C99.9811 176.628 99.1511 176.438 98.1211 176.438C95.4911 176.438 94.1711 177.698 94.1711 180.208V186.078C94.1711 188.608 95.5011 189.878 98.1711 189.878C99.1511 189.878 99.9411 189.678 100.541 189.268C101.141 188.858 101.581 188.258 101.871 187.458C102.041 186.998 102.261 186.768 102.551 186.768C102.611 186.768 102.761 186.808 103.031 186.878L104.691 187.378C105.121 187.498 105.341 187.728 105.341 188.068C105.341 188.178 105.311 188.328 105.261 188.518C104.211 191.498 101.821 192.978 98.1011 192.978C95.7311 192.978 93.9011 192.358 92.5911 191.128L92.5811 191.148Z" fill="#AA182C"/>
<path d="M112.331 192.41C112.201 192.29 112.131 192.06 112.131 191.75V176.85H107.851C107.511 176.85 107.281 176.78 107.141 176.65C107.001 176.52 106.941 176.28 106.941 175.95V174.65C106.941 174.31 107.011 174.08 107.141 173.95C107.271 173.82 107.511 173.75 107.851 173.75H119.941C120.281 173.75 120.511 173.82 120.651 173.95C120.781 174.08 120.851 174.32 120.851 174.65V175.95C120.851 176.29 120.781 176.52 120.651 176.65C120.521 176.78 120.281 176.85 119.941 176.85H115.661V191.75C115.661 192.07 115.601 192.29 115.481 192.41C115.361 192.53 115.131 192.6 114.791 192.6H113.011C112.691 192.6 112.461 192.54 112.331 192.41Z" fill="#AA182C"/>
<path d="M125.333 191.144C124.083 189.914 123.453 188.234 123.453 186.114V174.584C123.453 174.244 123.513 174.024 123.633 173.904C123.753 173.784 123.983 173.734 124.323 173.734H126.073C126.413 173.734 126.643 173.794 126.783 173.904C126.913 174.024 126.983 174.244 126.983 174.584V186.144C126.983 187.344 127.293 188.274 127.923 188.924C128.553 189.574 129.493 189.894 130.753 189.894C132.013 189.894 132.983 189.574 133.603 188.924C134.223 188.274 134.533 187.354 134.533 186.144V174.584C134.533 174.244 134.603 174.024 134.733 173.904C134.863 173.784 135.103 173.734 135.443 173.734H137.193C137.533 173.734 137.763 173.794 137.893 173.904C138.023 174.014 138.093 174.244 138.093 174.584V186.114C138.093 188.234 137.463 189.914 136.203 191.144C134.943 192.374 133.133 192.994 130.763 192.994C128.393 192.994 126.583 192.374 125.333 191.144Z" fill="#AA182C"/>
<path d="M142.442 192.4C142.322 192.27 142.262 192.03 142.262 191.7V174.65C142.262 174.31 142.322 174.08 142.442 173.95C142.562 173.82 142.792 173.75 143.132 173.75H150.122C151.962 173.75 153.442 174.27 154.552 175.32C155.662 176.36 156.212 177.79 156.212 179.6C156.212 180.96 155.912 182.07 155.312 182.91C154.712 183.75 153.842 184.33 152.722 184.65C153.192 184.99 153.572 185.47 153.882 186.11L156.612 191.72C156.692 191.86 156.722 192.01 156.722 192.17C156.722 192.47 156.502 192.62 156.072 192.62H154.292C153.752 192.62 153.372 192.57 153.162 192.47C152.952 192.37 152.772 192.16 152.622 191.82L150.532 187.3C150.272 186.73 150.042 186.32 149.842 186.05C149.642 185.78 149.412 185.6 149.142 185.49C148.872 185.38 148.492 185.33 148.002 185.33H145.772V191.71C145.772 192.05 145.702 192.28 145.572 192.41C145.442 192.54 145.212 192.61 144.892 192.61H143.112C142.772 192.61 142.542 192.54 142.422 192.41L142.442 192.4ZM149.982 182.37C150.792 182.37 151.442 182.13 151.932 181.64C152.422 181.15 152.662 180.47 152.662 179.58C152.662 178.69 152.422 178.04 151.932 177.56C151.442 177.08 150.792 176.84 149.982 176.84H145.782V182.37H149.982Z" fill="#AA182C"/>
<path d="M160.121 192.4C160.001 192.27 159.941 192.03 159.941 191.7V174.65C159.941 174.31 160.001 174.08 160.121 173.95C160.241 173.82 160.471 173.75 160.811 173.75H171.101C171.441 173.75 171.671 173.82 171.811 173.95C171.941 174.08 172.011 174.32 172.011 174.65V175.95C172.011 176.29 171.941 176.52 171.811 176.65C171.681 176.78 171.441 176.85 171.101 176.85H163.461V181.5H169.861C170.181 181.5 170.401 181.57 170.541 181.7C170.671 181.83 170.741 182.07 170.741 182.4V183.7C170.741 184.04 170.671 184.27 170.541 184.4C170.411 184.53 170.181 184.6 169.861 184.6H163.461V189.49H171.351C171.691 189.49 171.921 189.56 172.061 189.69C172.191 189.82 172.261 190.06 172.261 190.39V191.69C172.261 192.03 172.191 192.26 172.061 192.39C171.931 192.52 171.691 192.59 171.351 192.59H160.811C160.471 192.59 160.241 192.52 160.121 192.39V192.4Z" fill="#AA182C"/>
<path d="M85.6108 150.12C44.2208 150.12 10.5508 116.45 10.5508 75.06C10.5508 33.67 44.2208 0 85.6108 0C127.001 0 160.671 33.67 160.671 75.06C160.671 116.45 127.001 150.12 85.6108 150.12ZM85.6108 11.14C50.3708 11.14 21.6908 39.81 21.6908 75.06C21.6908 110.31 50.3608 138.98 85.6108 138.98C120.861 138.98 149.531 110.31 149.531 75.06C149.531 39.81 120.851 11.14 85.6108 11.14Z" fill="#AA182C"/>
<path d="M110.541 114.598H65.6406C61.6406 114.598 58.3906 111.348 58.3906 107.348V42.3281C58.3906 38.3281 61.6406 35.0781 65.6406 35.0781H90.3406C91.2906 35.0781 92.0506 35.8481 92.0506 36.7881C92.0506 37.7281 91.2806 38.4981 90.3406 38.4981H65.6406C63.5306 38.4981 61.8206 40.2081 61.8206 42.3181V107.338C61.8206 109.448 63.5306 111.158 65.6406 111.158H110.541C112.651 111.158 114.361 109.448 114.361 107.338V62.6781C114.361 61.7281 115.131 60.9681 116.071 60.9681C117.011 60.9681 117.781 61.7381 117.781 62.6781V107.338C117.781 111.338 114.531 114.588 110.531 114.588L110.541 114.598Z" fill="#AA182C"/>
<path d="M96.2203 34.2891L118.77 56.8391H103.79C99.4603 56.8391 95.9603 53.2991 96.0203 48.9691L96.2203 34.2891Z" fill="#A2A9AE"/>
<path d="M104.998 80.7024C104.558 80.7024 104.108 80.5324 103.778 80.1924C98.3585 74.6824 92.7085 71.9724 86.9185 72.1624C77.9685 72.4424 71.6185 79.6524 71.5485 79.7324C70.9285 80.4424 69.8485 80.5224 69.1285 79.9124C68.4085 79.2924 68.3285 78.2124 68.9485 77.5024C69.2385 77.1624 76.2985 69.1024 86.7685 68.7524C93.5285 68.5424 100.078 71.5724 106.218 77.8024C106.878 78.4724 106.878 79.5624 106.198 80.2224C105.868 80.5524 105.428 80.7124 104.998 80.7124V80.7024Z" fill="#A2A9AE"/>
<path d="M99.8888 88.0272C99.4088 88.0272 98.9288 87.8272 98.5888 87.4372C95.3788 83.7372 91.8888 81.8472 88.2288 81.8072C88.1988 81.8072 88.1588 81.8072 88.1288 81.8072C81.8288 81.8072 76.8488 87.2472 76.7988 87.2972C76.1688 87.9972 75.0888 88.0572 74.3788 87.4272C73.6788 86.7972 73.6188 85.7172 74.2488 85.0072C74.4888 84.7372 80.2788 78.3672 88.1288 78.3672C88.1688 78.3672 88.1988 78.3672 88.2388 78.3672C92.9388 78.3972 97.2888 80.6872 101.189 85.1772C101.809 85.8972 101.729 86.9772 101.019 87.5972C100.699 87.8772 100.299 88.0172 99.8988 88.0172L99.8888 88.0272Z" fill="#A2A9AE"/>
<path d="M94.0117 94.667C93.5517 94.667 93.0917 94.487 92.7517 94.117C91.3517 92.607 89.8117 91.817 88.2017 91.777C85.1817 91.717 82.6417 94.147 82.6117 94.167C81.9317 94.827 80.8517 94.817 80.1917 94.137C79.5317 93.467 79.5317 92.387 80.2117 91.717C80.3517 91.577 83.7517 88.267 88.2617 88.337C90.8517 88.397 93.2117 89.547 95.2717 91.767C95.9117 92.457 95.8817 93.547 95.1817 94.187C94.8517 94.497 94.4317 94.647 94.0117 94.647V94.667Z" fill="#A2A9AE"/>
</g>
<defs>
<clipPath id="clip0_580_1393">
<rect width="172.25" height="197.41" fill="white"/>
</clipPath>
</defs>
</svg>
