<svg width="203" height="170" viewBox="0 0 203 170" fill="none" xmlns="http://www.w3.org/2000/svg">
<g clip-path="url(#clip0_580_2372)">
<path d="M83.3988 169.356H79.2487L71.7188 157.566C71.2788 156.876 70.9688 156.356 70.7988 156.006H70.7487C70.8187 156.666 70.8487 157.676 70.8487 159.046V169.356H66.9688V150.596H71.3988L78.6488 162.016C78.9788 162.526 79.2887 163.036 79.5687 163.546H79.6188C79.5488 163.106 79.5187 162.256 79.5187 160.966V150.586H83.3988V169.346V169.356Z" fill="#00AAFF"/>
<path d="M99.9689 169.353H95.9589V167.313H95.8989C94.9089 168.893 93.5789 169.683 91.9089 169.683C88.8889 169.683 87.3789 167.803 87.3789 164.043V155.953H91.3889V163.673C91.3889 165.563 92.1189 166.513 93.5789 166.513C94.2989 166.513 94.8789 166.253 95.3089 165.733C95.7389 165.213 95.9589 164.513 95.9589 163.623V155.953H99.9689V169.353Z" fill="#00AAFF"/>
<path d="M107.82 167.793H107.77V169.353H103.75V149.523H107.77V157.973H107.82C108.81 156.413 110.23 155.633 112.06 155.633C113.74 155.633 115.04 156.223 115.94 157.413C116.85 158.603 117.3 160.223 117.3 162.283C117.3 164.513 116.77 166.313 115.71 167.663C114.65 169.013 113.23 169.693 111.46 169.693C109.86 169.693 108.64 169.063 107.82 167.813V167.793ZM107.71 162.143V163.513C107.71 164.373 107.95 165.093 108.44 165.663C108.92 166.233 109.54 166.513 110.3 166.513C111.22 166.513 111.93 166.153 112.43 165.423C112.93 164.693 113.19 163.663 113.19 162.333C113.19 161.223 112.96 160.363 112.5 159.733C112.04 159.113 111.38 158.793 110.52 158.793C109.71 158.793 109.04 159.103 108.51 159.723C107.98 160.343 107.71 161.153 107.71 162.143Z" fill="#00AAFF"/>
<path d="M132.029 163.837H123.519C123.659 165.787 124.849 166.757 127.099 166.757C128.529 166.757 129.799 166.407 130.879 165.707V168.687C129.669 169.347 128.109 169.677 126.179 169.677C124.069 169.677 122.439 169.077 121.279 167.877C120.119 166.677 119.539 165.007 119.539 162.857C119.539 160.707 120.169 158.867 121.419 157.567C122.679 156.267 124.219 155.617 126.049 155.617C127.879 155.617 129.419 156.197 130.459 157.357C131.499 158.517 132.019 160.097 132.019 162.077V163.817L132.029 163.837ZM128.299 161.297C128.299 159.377 127.549 158.417 126.029 158.417C125.389 158.417 124.829 158.697 124.359 159.237C123.889 159.787 123.599 160.467 123.499 161.287H128.299V161.297Z" fill="#00AAFF"/>
<path d="M34.7891 28.2473L42.2291 43.3073C42.2291 43.3073 43.8191 25.0773 53.4291 15.2773C63.0491 5.47728 71.4791 4.11728 71.4791 4.11728C71.4791 4.11728 86.2691 -1.32272 101.689 7.10728C101.689 7.10728 114.479 15.1773 115.569 27.2473C115.569 27.2473 127.359 23.3473 141.719 28.5173C141.719 28.5173 152.539 32.5273 158.589 40.9673C158.589 40.9673 171.039 35.1873 187.099 42.5273C187.099 42.5273 199.889 47.9673 202.749 61.7173C202.749 61.7173 201.189 48.5873 189.419 41.7873C177.649 34.9873 166.489 36.2073 159.689 38.1173C159.689 38.1173 147.779 20.2673 119.939 24.5373C119.939 24.5373 114.679 -1.13272 79.4791 0.0472824C79.4791 0.0472824 72.0391 -0.582718 55.5291 9.38728C55.5291 9.38728 43.3691 17.6373 41.3791 33.8773L34.7991 28.2573L34.7891 28.2473Z" fill="#00AAFF"/>
<path d="M29.7002 30.3249C29.7002 30.3249 30.7202 30.4949 31.4702 32.3349C32.2202 34.1749 36.7802 43.8649 36.7802 43.8649C36.7802 43.8649 37.8002 46.9949 35.7302 47.7749C33.6502 48.5549 28.8602 49.5749 25.5602 50.7649C22.2602 51.9549 20.3602 54.6749 19.5702 56.8149C18.7802 58.9549 20.0502 61.0649 20.0502 61.0649C20.0502 61.0649 22.0602 64.4649 30.7002 67.7349C30.7002 67.7349 35.8702 70.2549 37.8802 70.8949C39.8902 71.5449 43.9702 74.3649 46.3802 76.9149C48.8002 79.4649 53.6902 86.4049 53.4202 97.4949C53.1502 108.585 46.3402 114.575 46.3402 114.575C46.3402 114.575 36.4102 126.145 18.4502 126.005C18.4502 126.005 17.0402 125.805 16.5202 123.695C16.0002 121.585 15.3602 117.665 14.4102 114.825C13.4602 111.995 12.7802 110.315 13.0502 109.385C13.3202 108.455 13.9302 108.005 16.7202 107.845C19.5102 107.685 20.7602 108.005 26.0902 106.375C31.4202 104.745 34.4402 99.7949 34.4402 99.7949C34.4402 99.7949 36.3002 96.9649 34.9202 94.0549C33.5402 91.1549 31.9902 89.9249 31.9902 89.9249C31.9902 89.9249 26.9802 86.2049 22.8702 84.7949C18.7702 83.3849 14.1302 81.9149 11.0702 79.7349C8.0102 77.5549 3.9302 73.1349 2.8702 70.3449C1.8202 67.5549 -0.0898027 62.6949 0.690197 55.7849C1.4702 48.8749 4.1902 45.0349 4.1902 45.0349C4.1902 45.0349 6.6702 40.3749 12.1502 36.8349C17.6302 33.2949 26.7102 30.5049 26.7102 30.5049C26.7102 30.5049 28.5502 30.1949 29.7002 30.3049V30.3249Z" fill="#00AAFF"/>
<path d="M62.3891 48.7C66.8626 48.7 70.4891 45.0735 70.4891 40.6C70.4891 36.1265 66.8626 32.5 62.3891 32.5C57.9156 32.5 54.2891 36.1265 54.2891 40.6C54.2891 45.0735 57.9156 48.7 62.3891 48.7Z" fill="#00AAFF"/>
<path d="M81.5792 48.5569C86.0693 48.5569 89.7092 44.917 89.7092 40.4269C89.7092 35.9368 86.0693 32.2969 81.5792 32.2969C77.0891 32.2969 73.4492 35.9368 73.4492 40.4269C73.4492 44.917 77.0891 48.5569 81.5792 48.5569Z" fill="#00AAFF"/>
<path d="M63.0037 52.5876L62.1638 52.5971C58.5245 52.6384 55.6077 55.6221 55.649 59.2615L56.0983 98.8689C56.1396 102.508 59.1233 105.425 62.7627 105.384L63.6026 105.374C67.2419 105.333 70.1587 102.349 70.1174 98.7099L69.6681 59.1024C69.6268 55.4631 66.6431 52.5463 63.0037 52.5876Z" fill="#00AAFF"/>
<path d="M82.3787 52.2126L81.5388 52.2221C77.8995 52.2634 74.9827 55.2471 75.024 58.8865L75.4733 98.4939C75.5146 102.133 78.4983 105.05 82.1377 105.009L82.9776 104.999C86.6169 104.958 89.5337 101.974 89.4924 98.3348L89.0431 58.7274C89.0018 55.0881 86.0181 52.1713 82.3787 52.2126Z" fill="#00AAFF"/>
<path d="M142.399 87.7072C142.399 87.7072 142.279 53.2972 142.399 52.4872C142.519 51.6772 141.479 51.5172 141.479 51.5172L130.779 51.5672C129.829 51.6572 129.589 52.3172 129.569 52.7772C129.549 53.2372 129.499 53.5272 128.819 53.8972C128.139 54.2672 127.479 53.6272 127.479 53.6272C127.319 53.3772 125.389 52.4472 125.389 52.4472C120.919 50.5672 116.929 50.6972 116.929 50.6972C116.929 50.6972 110.939 50.8772 107.199 52.6272C103.459 54.3772 99.9389 57.0072 97.6489 60.1372C95.3589 63.2672 93.6089 66.7572 92.7989 71.0872C91.9789 75.4172 92.0689 77.7072 92.1689 81.1372C92.2589 84.5572 93.7789 88.5572 93.7789 88.5572C94.4789 90.5072 96.1189 94.7572 99.8289 98.2672C103.539 101.767 107.839 103.317 107.839 103.317C107.839 103.317 114.369 105.427 120.389 103.977C126.409 102.527 126.789 100.987 127.569 101.137C128.349 101.287 128.709 102.017 128.709 102.017C128.709 104.267 127.829 106.407 127.829 106.407C127.829 106.407 127.389 108.737 124.469 111.077C121.539 113.417 118.099 113.457 116.529 113.617C114.969 113.777 111.689 113.737 108.249 112.737C104.809 111.737 102.039 109.927 102.039 109.927C102.039 109.927 101.209 109.417 100.809 109.357C100.409 109.297 99.7989 109.587 99.7289 110.107C99.6589 110.627 98.9989 112.397 98.8189 113.097C98.6389 113.797 97.2189 118.387 96.8789 119.177C96.5389 119.967 96.9189 120.517 96.9189 120.517C100.359 123.207 107.769 124.807 107.769 124.807C107.769 124.807 122.129 127.527 133.549 120.047C144.979 112.567 142.389 87.7272 142.389 87.7272L142.399 87.7072ZM126.399 88.7372C124.299 91.7672 120.639 93.0072 117.299 93.0072C110.939 93.0072 105.779 86.1472 105.779 77.6772C105.779 69.2072 110.939 62.3472 117.299 62.3472C120.459 62.3472 124.109 63.4172 126.189 66.1572C128.299 68.9372 128.819 73.4072 128.819 77.6772C128.819 81.6972 128.299 85.9972 126.399 88.7372Z" fill="#00AAFF"/>
<path d="M190.088 57.2956C185.378 52.5756 178.398 50.0156 171.358 50.0156C164.728 50.0156 158.238 52.4356 153.628 56.6856C148.168 61.7056 145.148 69.2156 145.148 77.4156C145.148 84.5056 147.288 91.3556 151.518 96.2156C156.318 101.736 163.668 104.806 171.358 104.806C179.048 104.806 186.918 101.536 191.718 95.5956C195.578 90.8256 197.568 84.1456 197.568 77.4056C197.568 69.6356 195.058 62.2756 190.088 57.2856V57.2956ZM171.348 93.6256C164.488 93.6256 158.928 86.3856 158.928 77.4556C158.928 68.5256 164.488 61.2856 171.348 61.2856C178.208 61.2856 183.768 68.5256 183.768 77.4556C183.768 86.3856 178.208 93.6256 171.348 93.6256Z" fill="#00AAFF"/>
<path d="M34.7891 28.2473L42.2291 43.3073C42.2291 43.3073 43.8191 25.0773 53.4291 15.2773C63.0491 5.47728 71.4791 4.11728 71.4791 4.11728C71.4791 4.11728 86.2691 -1.32272 101.689 7.10728C101.689 7.10728 114.479 15.1773 115.569 27.2473C115.569 27.2473 127.359 23.3473 141.719 28.5173C141.719 28.5173 152.539 32.5273 158.589 40.9673C158.589 40.9673 171.039 35.1873 187.099 42.5273C187.099 42.5273 199.889 47.9673 202.749 61.7173C202.749 61.7173 201.189 48.5873 189.419 41.7873C177.649 34.9873 166.489 36.2073 159.689 38.1173C159.689 38.1173 147.779 20.2673 119.939 24.5373C119.939 24.5373 114.679 -1.13272 79.4791 0.0472824C79.4791 0.0472824 72.0391 -0.582718 55.5291 9.38728C55.5291 9.38728 43.3691 17.6373 41.3791 33.8773L34.7991 28.2573L34.7891 28.2473Z" fill="#00AAFF"/>
<path d="M29.7002 30.3249C29.7002 30.3249 30.7202 30.4949 31.4702 32.3349C32.2202 34.1749 36.7802 43.8649 36.7802 43.8649C36.7802 43.8649 37.8002 46.9949 35.7302 47.7749C33.6502 48.5549 28.8602 49.5749 25.5602 50.7649C22.2602 51.9549 20.3602 54.6749 19.5702 56.8149C18.7802 58.9549 20.0502 61.0649 20.0502 61.0649C20.0502 61.0649 22.0602 64.4649 30.7002 67.7349C30.7002 67.7349 35.8702 70.2549 37.8802 70.8949C39.8902 71.5449 43.9702 74.3649 46.3802 76.9149C48.8002 79.4649 53.6902 86.4049 53.4202 97.4949C53.1502 108.585 46.3402 114.575 46.3402 114.575C46.3402 114.575 36.4102 126.145 18.4502 126.005C18.4502 126.005 17.0402 125.805 16.5202 123.695C16.0002 121.585 15.3602 117.665 14.4102 114.825C13.4602 111.995 12.7802 110.315 13.0502 109.385C13.3202 108.455 13.9302 108.005 16.7202 107.845C19.5102 107.685 20.7602 108.005 26.0902 106.375C31.4202 104.745 34.4402 99.7949 34.4402 99.7949C34.4402 99.7949 36.3002 96.9649 34.9202 94.0549C33.5402 91.1549 31.9902 89.9249 31.9902 89.9249C31.9902 89.9249 26.9802 86.2049 22.8702 84.7949C18.7702 83.3849 14.1302 81.9149 11.0702 79.7349C8.0102 77.5549 3.9302 73.1349 2.8702 70.3449C1.8202 67.5549 -0.0898027 62.6949 0.690197 55.7849C1.4702 48.8749 4.1902 45.0349 4.1902 45.0349C4.1902 45.0349 6.6702 40.3749 12.1502 36.8349C17.6302 33.2949 26.7102 30.5049 26.7102 30.5049C26.7102 30.5049 28.5502 30.1949 29.7002 30.3049V30.3249Z" fill="#00AAFF"/>
<path d="M62.3891 48.7C66.8626 48.7 70.4891 45.0735 70.4891 40.6C70.4891 36.1265 66.8626 32.5 62.3891 32.5C57.9156 32.5 54.2891 36.1265 54.2891 40.6C54.2891 45.0735 57.9156 48.7 62.3891 48.7Z" fill="#00AAFF"/>
<path d="M81.5792 48.5569C86.0693 48.5569 89.7092 44.917 89.7092 40.4269C89.7092 35.9368 86.0693 32.2969 81.5792 32.2969C77.0891 32.2969 73.4492 35.9368 73.4492 40.4269C73.4492 44.917 77.0891 48.5569 81.5792 48.5569Z" fill="#00AAFF"/>
<path d="M63.0037 52.5876L62.1638 52.5971C58.5245 52.6384 55.6077 55.6221 55.649 59.2615L56.0983 98.8689C56.1396 102.508 59.1233 105.425 62.7627 105.384L63.6026 105.374C67.2419 105.333 70.1587 102.349 70.1174 98.7099L69.6681 59.1024C69.6268 55.4631 66.6431 52.5463 63.0037 52.5876Z" fill="#00AAFF"/>
<path d="M82.3787 52.2126L81.5388 52.2221C77.8995 52.2634 74.9827 55.2471 75.024 58.8865L75.4733 98.4939C75.5146 102.133 78.4983 105.05 82.1377 105.009L82.9776 104.999C86.6169 104.958 89.5337 101.974 89.4924 98.3348L89.0431 58.7274C89.0018 55.0881 86.0181 52.1713 82.3787 52.2126Z" fill="#00AAFF"/>
<path d="M142.399 87.7072C142.399 87.7072 142.279 53.2972 142.399 52.4872C142.519 51.6772 141.479 51.5172 141.479 51.5172L130.779 51.5672C129.829 51.6572 129.589 52.3172 129.569 52.7772C129.549 53.2372 129.499 53.5272 128.819 53.8972C128.139 54.2672 127.479 53.6272 127.479 53.6272C127.319 53.3772 125.389 52.4472 125.389 52.4472C120.919 50.5672 116.929 50.6972 116.929 50.6972C116.929 50.6972 110.939 50.8772 107.199 52.6272C103.459 54.3772 99.9389 57.0072 97.6489 60.1372C95.3589 63.2672 93.6089 66.7572 92.7989 71.0872C91.9789 75.4172 92.0689 77.7072 92.1689 81.1372C92.2589 84.5572 93.7789 88.5572 93.7789 88.5572C94.4789 90.5072 96.1189 94.7572 99.8289 98.2672C103.539 101.767 107.839 103.317 107.839 103.317C107.839 103.317 114.369 105.427 120.389 103.977C126.409 102.527 126.789 100.987 127.569 101.137C128.349 101.287 128.709 102.017 128.709 102.017C128.709 104.267 127.829 106.407 127.829 106.407C127.829 106.407 127.389 108.737 124.469 111.077C121.539 113.417 118.099 113.457 116.529 113.617C114.969 113.777 111.689 113.737 108.249 112.737C104.809 111.737 102.039 109.927 102.039 109.927C102.039 109.927 101.209 109.417 100.809 109.357C100.409 109.297 99.7989 109.587 99.7289 110.107C99.6589 110.627 98.9989 112.397 98.8189 113.097C98.6389 113.797 97.2189 118.387 96.8789 119.177C96.5389 119.967 96.9189 120.517 96.9189 120.517C100.359 123.207 107.769 124.807 107.769 124.807C107.769 124.807 122.129 127.527 133.549 120.047C144.979 112.567 142.389 87.7272 142.389 87.7272L142.399 87.7072ZM126.399 88.7372C124.299 91.7672 120.639 93.0072 117.299 93.0072C110.939 93.0072 105.779 86.1472 105.779 77.6772C105.779 69.2072 110.939 62.3472 117.299 62.3472C120.459 62.3472 124.109 63.4172 126.189 66.1572C128.299 68.9372 128.819 73.4072 128.819 77.6772C128.819 81.6972 128.299 85.9972 126.399 88.7372Z" fill="#00AAFF"/>
<path d="M190.088 57.2956C185.378 52.5756 178.398 50.0156 171.358 50.0156C164.728 50.0156 158.238 52.4356 153.628 56.6856C148.168 61.7056 145.148 69.2156 145.148 77.4156C145.148 84.5056 147.288 91.3556 151.518 96.2156C156.318 101.736 163.668 104.806 171.358 104.806C179.048 104.806 186.918 101.536 191.718 95.5956C195.578 90.8256 197.568 84.1456 197.568 77.4056C197.568 69.6356 195.058 62.2756 190.088 57.2856V57.2956ZM171.348 93.6256C164.488 93.6256 158.928 86.3856 158.928 77.4556C158.928 68.5256 164.488 61.2856 171.348 61.2856C178.208 61.2856 183.768 68.5256 183.768 77.4556C183.768 86.3856 178.208 93.6256 171.348 93.6256Z" fill="#00AAFF"/>
</g>
<defs>
<clipPath id="clip0_580_2372">
<rect width="202.24" height="169.69" fill="white" transform="translate(0.5)"/>
</clipPath>
</defs>
</svg>
