<?xml version="1.0" encoding="UTF-8"?>
<svg id="Capa_2" data-name="Capa 2" xmlns="http://www.w3.org/2000/svg" viewBox="0 0 161.46 159.49">
  <defs>
    <style>
      .cls-1 {
        fill: #3de3f9;
      }

      .cls-1, .cls-2, .cls-3 {
        stroke-width: 0px;
      }

      .cls-2 {
        fill: #05325b;
      }

      .cls-3 {
        fill: #00aece;
      }
    </style>
  </defs>
  <g id="Capa_1-2" data-name="Capa 1">
    <path class="cls-2" d="m136.08,48.1c-5.52,0-10.01-4.49-10.01-10.01s4.49-10.01,10.01-10.01,10.01,4.49,10.01,10.01-4.49,10.01-10.01,10.01Zm0-15.01c-2.76,0-5.01,2.25-5.01,5.01s2.25,5.01,5.01,5.01,5.01-2.25,5.01-5.01-2.25-5.01-5.01-5.01Z"/>
    <path class="cls-2" d="m22.58,32.9c-5.52,0-10.01-4.49-10.01-10.01s4.49-10.01,10.01-10.01,10.01,4.49,10.01,10.01-4.49,10.01-10.01,10.01Zm0-15.01c-2.76,0-5.01,2.25-5.01,5.01s2.25,5.01,5.01,5.01,5.01-2.25,5.01-5.01-2.25-5.01-5.01-5.01Z"/>
    <path class="cls-2" d="m58.41,109.79c-1.38,0-2.5-1.12-2.5-2.5v-19.08c0-1.38,1.12-2.5,2.5-2.5s2.5,1.12,2.5,2.5v19.08c0,1.38-1.12,2.5-2.5,2.5Z"/>
    <path class="cls-2" d="m68.14,99.42h-19.08c-1.38,0-2.5-1.12-2.5-2.5s1.12-2.5,2.5-2.5h19.08c1.38,0,2.5,1.12,2.5,2.5s-1.12,2.5-2.5,2.5Z"/>
    <rect class="cls-3" x="68.41" y="-32.08" width="5" height="96.95" transform="translate(34.72 79.55) rotate(-73.21)"/>
    <path class="cls-3" d="m72.49,87.67l-37.62-49.15c-.61-.79-.68-1.87-.19-2.74.49-.87,1.44-1.36,2.44-1.26l80.18,8.51-.53,4.97-74.4-7.9,34.08,44.53-3.97,3.04Z"/>
    <path class="cls-3" d="m41.01,135.3h-5v-35.08l-15.65-56.7,4.82-1.33,15.74,57.02c.06.22.09.44.09.67v35.42Z"/>
    <rect class="cls-3" x="75.91" y="98.14" width="5" height="36.61"/>
    <path class="cls-2" d="m157.44,159.49H0l.34-25.32h157.09v25.32Zm-152.37-5h147.37v-15.32H5.28l-.21,15.32Z"/>
    <path class="cls-2" d="m128.9,99.5l-18.22-18.22v-10.5l12.84-17.63,13.58,2.98-8.19,43.37Zm-13.22-20.29l10.06,10.06,5.54-29.3-5.64-1.24-9.96,13.67v6.8Z"/>
    <path class="cls-2" d="m143.24,99.5l-8.19-43.37,13.58-2.97,12.84,17.63v10.5l-18.22,18.22Zm-2.38-39.53l5.54,29.3,10.06-10.06v-6.8l-9.96-13.67-5.64,1.24Z"/>
    <path class="cls-1" d="m136.26,60.55c-12.48,0-22.64-10.16-22.64-22.64s10.15-22.64,22.64-22.64,22.64,10.16,22.64,22.64-10.15,22.64-22.64,22.64Zm0-40.27c-9.73,0-17.64,7.91-17.64,17.64s7.91,17.64,17.64,17.64,17.64-7.91,17.64-17.64-7.91-17.64-17.64-17.64Z"/>
    <path class="cls-1" d="m22.76,45.35C10.28,45.35.13,35.2.13,22.71S10.28.08,22.76.08s22.64,10.15,22.64,22.64-10.15,22.64-22.64,22.64Zm0-40.27c-9.73,0-17.64,7.91-17.64,17.64s7.91,17.64,17.64,17.64,17.64-7.91,17.64-17.64S32.49,5.08,22.76,5.08Z"/>
    <path class="cls-1" d="m58.28,120.77c-12.48,0-22.64-10.16-22.64-22.64s10.15-22.64,22.64-22.64,22.64,10.16,22.64,22.64-10.15,22.64-22.64,22.64Zm0-40.27c-9.73,0-17.64,7.91-17.64,17.64s7.91,17.64,17.64,17.64,17.64-7.91,17.64-17.64-7.91-17.64-17.64-17.64Z"/>
  </g>
</svg>