<?xml version="1.0" encoding="UTF-8"?>
<svg id="Capa_2" data-name="Capa 2" xmlns="http://www.w3.org/2000/svg" viewBox="0 0 173.12 156.06">
  <defs>
    <style>
      .cls-1 {
        fill: #3de3f9;
      }

      .cls-1, .cls-2, .cls-3 {
        stroke-width: 0px;
      }

      .cls-2 {
        fill: #05325b;
      }

      .cls-3 {
        fill: #00aece;
      }
    </style>
  </defs>
  <g id="Capa_1-2" data-name="Capa 1">
    <path class="cls-3" d="m80.01,156.06h-15.33l-2.6-13.08c-6.4-1.6-12.49-4.15-18.15-7.57l-11.09,7.41-19.33-19.33,7.53-11.27c-3.31-5.63-5.76-11.68-7.28-18.02l-13.74-2.74v-27.34l14.18-2.82c1.61-5.98,4.05-11.68,7.25-16.99l-7.85-11.75,19.33-19.33,11.97,8c5.29-3.08,10.94-5.4,16.85-6.92l2.85-14.32h15.42v36.36l-2.21.08c-22.67.86-40.43,19.3-40.43,42s17.76,41.14,40.43,42l2.21.08v35.53Zm-11.56-4.59h6.97v-26.57c-24.08-2.03-42.64-22.02-42.64-46.45s18.55-44.43,42.64-46.45V4.59h-7.06l-2.69,13.51-1.44.34c-6.43,1.49-12.56,4.01-18.21,7.47l-1.25.77-11.27-7.52-14.01,14,7.41,11.09-.8,1.26c-3.6,5.66-6.23,11.82-7.83,18.32l-.35,1.42-13.33,2.65v19.81l12.98,2.58.32,1.47c1.48,6.85,4.11,13.35,7.81,19.32l.78,1.26-7.07,10.58,14.01,14,10.44-6.97,1.26.81c5.99,3.82,12.53,6.54,19.43,8.11l1.45.33,2.45,12.28Z"/>
    <path class="cls-2" d="m59.04,67.77h-5.56c-1.27,0-2.3-1.03-2.3-2.3s1.03-2.3,2.3-2.3h5.56c1.27,0,2.3,1.03,2.3,2.3s-1.03,2.3-2.3,2.3Z"/>
    <path class="cls-2" d="m59.04,76.38h-5.56c-1.27,0-2.3-1.03-2.3-2.3s1.03-2.3,2.3-2.3h5.56c1.27,0,2.3,1.03,2.3,2.3s-1.03,2.3-2.3,2.3Z"/>
    <path class="cls-2" d="m59.04,84.98h-5.56c-1.27,0-2.3-1.03-2.3-2.3s1.03-2.3,2.3-2.3h5.56c1.27,0,2.3,1.03,2.3,2.3s-1.03,2.3-2.3,2.3Z"/>
    <path class="cls-2" d="m59.04,93.9h-5.56c-1.27,0-2.3-1.03-2.3-2.3s1.03-2.3,2.3-2.3h5.56c1.27,0,2.3,1.03,2.3,2.3s-1.03,2.3-2.3,2.3Z"/>
    <path class="cls-2" d="m103.29,67.77h-4.36c-1.27,0-2.3-1.03-2.3-2.3s1.03-2.3,2.3-2.3h4.36c1.27,0,2.3,1.03,2.3,2.3s-1.03,2.3-2.3,2.3Z"/>
    <path class="cls-2" d="m103.29,76.38h-4.36c-1.27,0-2.3-1.03-2.3-2.3s1.03-2.3,2.3-2.3h4.36c1.27,0,2.3,1.03,2.3,2.3s-1.03,2.3-2.3,2.3Z"/>
    <path class="cls-2" d="m103.29,84.98h-4.36c-1.27,0-2.3-1.03-2.3-2.3s1.03-2.3,2.3-2.3h4.36c1.27,0,2.3,1.03,2.3,2.3s-1.03,2.3-2.3,2.3Z"/>
    <path class="cls-2" d="m103.29,93.9h-4.36c-1.27,0-2.3-1.03-2.3-2.3s1.03-2.3,2.3-2.3h4.36c1.27,0,2.3,1.03,2.3,2.3s-1.03,2.3-2.3,2.3Z"/>
    <path class="cls-2" d="m65.54,106.34c-1.27,0-2.3-1.03-2.3-2.3v-5.56c0-1.27,1.03-2.3,2.3-2.3s2.3,1.03,2.3,2.3v5.56c0,1.27-1.03,2.3-2.3,2.3Z"/>
    <path class="cls-2" d="m74.14,106.34c-1.27,0-2.3-1.03-2.3-2.3v-5.56c0-1.27,1.03-2.3,2.3-2.3s2.3,1.03,2.3,2.3v5.56c0,1.27-1.03,2.3-2.3,2.3Z"/>
    <path class="cls-2" d="m82.74,106.34c-1.27,0-2.3-1.03-2.3-2.3v-5.56c0-1.27,1.03-2.3,2.3-2.3s2.3,1.03,2.3,2.3v5.56c0,1.27-1.03,2.3-2.3,2.3Z"/>
    <path class="cls-2" d="m91.66,106.34c-1.27,0-2.3-1.03-2.3-2.3v-5.56c0-1.27,1.03-2.3,2.3-2.3s2.3,1.03,2.3,2.3v5.56c0,1.27-1.03,2.3-2.3,2.3Z"/>
    <path class="cls-2" d="m65.54,61.57c-1.27,0-2.3-1.03-2.3-2.3v-4.4c0-1.27,1.03-2.3,2.3-2.3s2.3,1.03,2.3,2.3v4.4c0,1.27-1.03,2.3-2.3,2.3Z"/>
    <path class="cls-2" d="m74.14,61.57c-1.27,0-2.3-1.03-2.3-2.3v-4.4c0-1.27,1.03-2.3,2.3-2.3s2.3,1.03,2.3,2.3v4.4c0,1.27-1.03,2.3-2.3,2.3Z"/>
    <path class="cls-2" d="m82.74,61.57c-1.27,0-2.3-1.03-2.3-2.3v-4.4c0-1.27,1.03-2.3,2.3-2.3s2.3,1.03,2.3,2.3v4.4c0,1.27-1.03,2.3-2.3,2.3Z"/>
    <path class="cls-2" d="m91.66,61.57c-1.27,0-2.3-1.03-2.3-2.3v-4.4c0-1.27,1.03-2.3,2.3-2.3s2.3,1.03,2.3,2.3v4.4c0,1.27-1.03,2.3-2.3,2.3Z"/>
    <path class="cls-2" d="m78.3,91.4c-7.07,0-12.82-5.75-12.82-12.82s5.75-12.82,12.82-12.82,12.82,5.75,12.82,12.82-5.75,12.82-12.82,12.82Zm0-21.06c-4.54,0-8.23,3.69-8.23,8.23s3.69,8.23,8.23,8.23,8.23-3.69,8.23-8.23-3.69-8.23-8.23-8.23Z"/>
    <rect class="cls-2" x="75.42" y="34.15" width="4.59" height="19.98"/>
    <rect class="cls-2" x="75.42" y="104.64" width="4.59" height="18.1"/>
    <path class="cls-1" d="m121.49,65.51h-17.94c-1.27,0-2.3-1.03-2.3-2.3s1.03-2.3,2.3-2.3h16.04l8.99-8.99h25.34c1.27,0,2.3,1.03,2.3,2.3s-1.03,2.3-2.3,2.3h-23.44l-8.99,8.99Z"/>
    <path class="cls-1" d="m139.41,80.91h-35.95c-1.27,0-2.3-1.03-2.3-2.3s1.03-2.3,2.3-2.3h35.95c1.27,0,2.3,1.03,2.3,2.3s-1.03,2.3-2.3,2.3Z"/>
    <path class="cls-1" d="m153.66,104.54h-25.22l-8.6-8.6h-16.51c-1.27,0-2.3-1.03-2.3-2.3s1.03-2.3,2.3-2.3h18.41l8.6,8.6h23.31c1.27,0,2.3,1.03,2.3,2.3s-1.03,2.3-2.3,2.3Z"/>
    <path class="cls-2" d="m162.39,113.78c-5.73,0-10.38-4.66-10.38-10.38s4.66-10.38,10.38-10.38,10.38,4.66,10.38,10.38-4.66,10.38-10.38,10.38Zm0-16.18c-3.19,0-5.79,2.6-5.79,5.79s2.6,5.79,5.79,5.79,5.79-2.6,5.79-5.79-2.6-5.79-5.79-5.79Z"/>
    <path class="cls-2" d="m147.59,89c-5.73,0-10.38-4.66-10.38-10.38s4.66-10.38,10.38-10.38,10.38,4.66,10.38,10.38-4.66,10.38-10.38,10.38Zm0-16.18c-3.19,0-5.79,2.6-5.79,5.79s2.6,5.79,5.79,5.79,5.79-2.6,5.79-5.79-2.6-5.79-5.79-5.79Z"/>
    <path class="cls-2" d="m162.74,64.48c-5.73,0-10.38-4.66-10.38-10.38s4.66-10.38,10.38-10.38,10.38,4.66,10.38,10.38-4.66,10.38-10.38,10.38Zm0-16.18c-3.19,0-5.79,2.6-5.79,5.79s2.6,5.79,5.79,5.79,5.79-2.6,5.79-5.79-2.6-5.79-5.79-5.79Z"/>
    <path class="cls-1" d="m89.91,106.93h-23.05c-8.79,0-15.94-7.15-15.94-15.94v-23.05c0-8.79,7.15-15.94,15.94-15.94h23.05c8.79,0,15.93,7.15,15.93,15.94v23.05c0,8.79-7.15,15.94-15.93,15.94Zm-23.05-50.33c-6.26,0-11.34,5.09-11.34,11.34v23.05c0,6.26,5.09,11.34,11.34,11.34h23.05c6.26,0,11.34-5.09,11.34-11.34v-23.05c0-6.26-5.09-11.34-11.34-11.34h-23.05Z"/>
  </g>
</svg>