<?xml version="1.0" encoding="UTF-8"?>
<svg id="Capa_2" data-name="Capa 2" xmlns="http://www.w3.org/2000/svg" viewBox="0 0 483.85 145.24">
  <defs>
    <style>
      .cls-1 {
        fill: #015a96;
      }

      .cls-1, .cls-2, .cls-3, .cls-4, .cls-5 {
        stroke-width: 0px;
      }

      .cls-2, .cls-6 {
        fill: #3de3f9;
      }

      .cls-7, .cls-8, .cls-6 {
        stroke: #015a96;
      }

      .cls-7, .cls-8, .cls-6, .cls-9 {
        stroke-miterlimit: 10;
      }

      .cls-7, .cls-5, .cls-9 {
        fill: none;
      }

      .cls-7, .cls-6 {
        stroke-width: 3px;
      }

      .cls-8 {
        fill: #fff;
      }

      .cls-8, .cls-9 {
        stroke-width: 4px;
      }

      .cls-3 {
        fill: #05325b;
      }

      .cls-4 {
        fill: #00aece;
      }

      .cls-9 {
        stroke: #00aece;
      }
    </style>
  </defs>
  <g id="Capa_1-2" data-name="Capa 1">
    <path class="cls-2" d="m151.1,116.43H20.39c-6.43,0-11.66-5.23-11.66-11.66V34.62c0-6.43,5.23-11.66,11.66-11.66h130.71c6.43,0,11.66,5.23,11.66,11.66v70.15c0,6.43-5.23,11.66-11.66,11.66ZM20.39,25.87c-4.82,0-8.75,3.92-8.75,8.75v70.15c0,4.82,3.92,8.75,8.75,8.75h130.71c4.82,0,8.75-3.92,8.75-8.75V34.62c0-4.82-3.92-8.75-8.75-8.75H20.39Z"/>
    <path class="cls-1" d="m159.84,123.74H11.66c-6.43,0-11.66-5.23-11.66-11.66V27.56c0-6.43,5.23-11.66,11.66-11.66h148.18c6.43,0,11.66,5.23,11.66,11.66v84.53c0,6.43-5.23,11.66-11.66,11.66ZM11.66,18.81c-4.82,0-8.75,3.92-8.75,8.75v84.53c0,4.82,3.92,8.75,8.75,8.75h148.18c4.82,0,8.75-3.92,8.75-8.75V27.56c0-4.82-3.92-8.75-8.75-8.75H11.66Z"/>
    <path class="cls-4" d="m108.99,131.71h-41.67v-10.46h41.67v10.46Zm-38.76-2.91h35.85v-4.64h-35.85v4.64Z"/>
    <path class="cls-3" d="m136.47,145.24H43.26l11.6-16.39h70.01l11.6,16.39Zm-87.58-2.91h81.96l-7.48-10.56H56.36l-7.48,10.56Z"/>
    <g>
      <path class="cls-2" d="m239.35,61.91h78.3c2.68,0,4.86,2.18,4.86,4.86v54.28h-88.02v-54.28c0-2.68,2.18-4.86,4.86-4.86Z"/>
      <path class="cls-1" d="m324.51,123.04h-92.02v-56.28c0-3.78,3.08-6.86,6.86-6.86h78.3c3.78,0,6.86,3.08,6.86,6.86v56.28Zm-88.02-4h84.02v-52.28c0-1.58-1.28-2.86-2.86-2.86h-78.3c-1.58,0-2.86,1.28-2.86,2.86v52.28Z"/>
    </g>
    <path class="cls-4" d="m324.42,138.26h-91.85c-3.78,0-6.86-3.08-6.86-6.86v-11.78h105.56v11.78c0,3.78-3.08,6.86-6.86,6.86Zm-94.7-14.64v7.78c0,1.58,1.28,2.86,2.86,2.86h91.85c1.58,0,2.86-1.28,2.86-2.86v-7.78h-97.56Z"/>
    <g>
      <polyline class="cls-2" points="249.03 105.82 267.48 87.38 282.11 102.01 309.41 74.71"/>
      <polygon class="cls-1" points="250.45 107.23 247.62 104.4 267.48 84.55 282.11 99.19 308 73.3 310.83 76.13 282.11 104.84 267.48 90.2 250.45 107.23"/>
    </g>
    <g>
      <polyline class="cls-5" points="30.7 100.3 66.57 64.43 95.04 92.9 148.13 39.8"/>
      <polygon class="cls-5" points="33.45 103.05 27.95 97.55 66.57 58.93 95.04 87.4 145.38 37.05 150.89 42.55 95.04 98.4 66.57 69.93 33.45 103.05"/>
    </g>
    <g>
      <path class="cls-2" d="m391.92,61.91h78.3c2.68,0,4.86,2.18,4.86,4.86v54.28h-88.02v-54.28c0-2.68,2.18-4.86,4.86-4.86Z"/>
      <path class="cls-1" d="m477.08,123.04h-92.02v-56.28c0-3.78,3.08-6.86,6.86-6.86h78.3c3.78,0,6.86,3.08,6.86,6.86v56.28Zm-88.02-4h84.02v-52.28c0-1.58-1.28-2.86-2.86-2.86h-78.3c-1.58,0-2.86,1.28-2.86,2.86v52.28Z"/>
    </g>
    <path class="cls-4" d="m477,138.26h-91.85c-3.78,0-6.86-3.08-6.86-6.86v-11.78h105.56v11.78c0,3.78-3.08,6.86-6.86,6.86Zm-94.7-14.64v7.78c0,1.58,1.28,2.86,2.86,2.86h91.85c1.58,0,2.86-1.28,2.86-2.86v-7.78h-97.56Z"/>
    <g>
      <polyline class="cls-2" points="401.6 105.82 420.05 87.38 434.68 102.01 461.98 74.71"/>
      <polygon class="cls-1" points="403.02 107.23 400.19 104.4 420.05 84.55 434.68 99.19 460.57 73.3 463.4 76.13 434.68 104.84 420.05 90.2 403.02 107.23"/>
    </g>
    <rect class="cls-7" x="227.5" y="1.5" width="111.36" height="22.12"/>
    <circle class="cls-6" cx="237.53" cy="11.35" r="3.65"/>
    <rect class="cls-2" x="256.65" y="9.37" width="5.06" height="5.25"/>
    <rect class="cls-2" x="267.53" y="9.37" width="5.06" height="5.25"/>
    <rect class="cls-2" x="278.77" y="9.37" width="5.06" height="5.25"/>
    <rect class="cls-2" x="288.15" y="9.37" width="5.06" height="5.25" transform="translate(581.36 24) rotate(180)"/>
    <rect class="cls-2" x="299.21" y="9.37" width="5.06" height="5.25" transform="translate(603.48 24) rotate(180)"/>
    <rect class="cls-2" x="312.14" y="9.37" width="5.06" height="5.25" transform="translate(629.35 24) rotate(180)"/>
    <rect class="cls-7" x="246.81" y="7.69" width="81.74" height="8.57"/>
    <polyline class="cls-9" points="169.64 44.76 435.36 44.76 435.36 59.76"/>
    <line class="cls-9" x1="283.22" y1="24.19" x2="283.22" y2="60.62"/>
    <polyline class="cls-8" points="24.79 102.19 58.22 68.76 91.22 101.76 150.66 42.32"/>
  </g>
</svg>