<?xml version="1.0" encoding="UTF-8"?>
<svg id="Capa_2" data-name="Capa 2" xmlns="http://www.w3.org/2000/svg" viewBox="0 0 171.5 129.34">
  <defs>
    <style>
      .cls-1 {
        fill: #015a96;
      }

      .cls-1, .cls-2, .cls-3, .cls-4 {
        stroke-width: 0px;
      }

      .cls-2 {
        fill: #3de3f9;
      }

      .cls-3 {
        fill: #05325b;
      }

      .cls-4 {
        fill: #00aece;
      }
    </style>
  </defs>
  <g id="Capa_1-2" data-name="Capa 1">
    <path class="cls-3" d="m65.37,89.09c-1.12,0-2.25-.43-3.11-1.29l-14.05-14.05c-1.72-1.72-1.72-4.49,0-6.21,1.72-1.72,4.49-1.72,6.21,0l10.95,10.95,52.74-52.74c1.72-1.72,4.49-1.72,6.21,0,1.72,1.72,1.72,4.49,0,6.21l-55.85,55.84c-.86.86-1.98,1.29-3.11,1.29Z"/>
    <path class="cls-2" d="m151.1,100.52H20.39c-6.43,0-11.66-5.23-11.66-11.66V18.71c0-6.43,5.23-11.66,11.66-11.66h130.71c6.43,0,11.66,5.23,11.66,11.66v70.15c0,6.43-5.23,11.66-11.66,11.66ZM20.39,9.97c-4.82,0-8.75,3.92-8.75,8.75v70.15c0,4.82,3.92,8.75,8.75,8.75h130.71c4.82,0,8.75-3.92,8.75-8.75V18.71c0-4.82-3.92-8.75-8.75-8.75H20.39Z"/>
    <path class="cls-1" d="m159.84,107.84H11.66c-6.43,0-11.66-5.23-11.66-11.66V11.66C0,5.23,5.23,0,11.66,0h148.18c6.43,0,11.66,5.23,11.66,11.66v84.53c0,6.43-5.23,11.66-11.66,11.66ZM11.66,2.91C6.83,2.91,2.91,6.83,2.91,11.66v84.53c0,4.82,3.92,8.75,8.75,8.75h148.18c4.82,0,8.75-3.92,8.75-8.75V11.66c0-4.82-3.92-8.75-8.75-8.75H11.66Z"/>
    <path class="cls-4" d="m108.99,115.81h-41.67v-10.46h41.67v10.46Zm-38.76-2.91h35.85v-4.64h-35.85v4.64Z"/>
    <path class="cls-3" d="m136.47,129.34H43.26l11.6-16.39h70.01l11.6,16.39Zm-87.58-2.91h81.96l-7.48-10.56H56.36l-7.48,10.56Z"/>
  </g>
</svg>