<?xml version="1.0" encoding="UTF-8"?>
<svg id="Capa_2" data-name="Capa 2" xmlns="http://www.w3.org/2000/svg" viewBox="0 0 163.44 157.63">
  <defs>
    <style>
      .cls-1 {
        fill: #015a96;
      }

      .cls-1, .cls-2, .cls-3 {
        stroke-width: 0px;
      }

      .cls-2 {
        fill: #3de3f9;
      }

      .cls-3 {
        fill: #00aece;
      }
    </style>
  </defs>
  <g id="Capa_1-2" data-name="Capa 1">
    <path class="cls-3" d="m66.12,121.62c-30.52,0-55.36-24.83-55.36-55.36S35.6,10.91,66.12,10.91s55.36,24.83,55.36,55.36-24.83,55.36-55.36,55.36Zm0-106.71c-28.32,0-51.36,23.04-51.36,51.36s23.04,51.36,51.36,51.36,51.36-23.04,51.36-51.36S94.44,14.91,66.12,14.91Z"/>
    <g>
      <path class="cls-2" d="m38.91,36.91h54.71c2.68,0,4.86,2.18,4.86,4.86v38.43H34.05v-38.43c0-2.68,2.18-4.86,4.86-4.86Z"/>
      <path class="cls-1" d="m100.48,82.19H32.05v-40.43c0-3.78,3.08-6.86,6.86-6.86h54.71c3.78,0,6.86,3.08,6.86,6.86v40.43Zm-64.43-4h60.43v-36.43c0-1.58-1.28-2.86-2.86-2.86h-54.71c-1.58,0-2.86,1.28-2.86,2.86v36.43Z"/>
    </g>
    <path class="cls-3" d="m98.58,93.34H33.95c-3.78,0-6.86-3.08-6.86-6.86v-7.86h78.34v7.86c0,3.78-3.08,6.86-6.86,6.86Zm-67.48-10.71v3.86c0,1.58,1.28,2.86,2.86,2.86h64.63c1.58,0,2.86-1.28,2.86-2.86v-3.86H31.1Z"/>
    <path class="cls-2" d="m115.33,123.89l-9.87-9.1,12.39-13.45,9.87,9.1-12.39,13.45Zm-4.22-9.33l3.99,3.68,6.97-7.56-3.99-3.68-6.97,7.56Z"/>
    <g>
      <polyline class="cls-2" points="44.69 69.05 58.19 55.55 68.91 66.27 88.89 46.28"/>
      <polygon class="cls-1" points="46.11 70.47 43.28 67.64 58.19 52.72 68.91 63.44 87.48 44.87 90.3 47.7 68.91 69.09 58.19 58.38 46.11 70.47"/>
    </g>
    <path class="cls-1" d="m150.01,157.63c-2.7,0-5.41-.97-7.55-2.94l-32.33-29.8,17.38-18.86,32.33,29.8c2.19,2.02,3.46,4.77,3.58,7.74.12,2.97-.92,5.82-2.94,8l-2.28,2.47c-2.19,2.38-5.19,3.59-8.2,3.59Zm-34.23-32.97l29.39,27.09c2.9,2.67,7.42,2.48,10.09-.41l2.28-2.47c1.29-1.4,1.96-3.23,1.88-5.13-.08-1.91-.89-3.67-2.3-4.96l-29.39-27.09-11.96,12.98Z"/>
    <path class="cls-1" d="m66.12,132.25C29.66,132.25,0,102.58,0,66.12S29.66,0,66.12,0s66.12,29.66,66.12,66.12-29.66,66.12-66.12,66.12Zm0-128.25C31.87,4,4,31.87,4,66.12s27.87,62.12,62.12,62.12,62.12-27.87,62.12-62.12S100.38,4,66.12,4Z"/>
  </g>
</svg>