<?xml version="1.0" encoding="UTF-8"?>
<svg id="Capa_2" data-name="Capa 2" xmlns="http://www.w3.org/2000/svg" viewBox="0 0 121.24 154.08">
  <defs>
    <style>
      .cls-1 {
        fill: #015a96;
      }

      .cls-1, .cls-2, .cls-3, .cls-4 {
        stroke-width: 0px;
      }

      .cls-2 {
        fill: #3de3f9;
      }

      .cls-3 {
        fill: #05325b;
      }

      .cls-4 {
        fill: #00aece;
      }
    </style>
  </defs>
  <g id="Capa_1-2" data-name="Capa 1">
    <path class="cls-1" d="m119.14,154.08H2.1c-1.16,0-2.1-.94-2.1-2.1V2.1C0,.94.94,0,2.1,0h86.88c1.16,0,2.1.94,2.1,2.1v27.02s28.06.14,28.06.14c1.16,0,2.09.95,2.09,2.1v120.61c0,1.16-.94,2.1-2.1,2.1Zm-114.93-4.21h112.83V33.46l-28.06-.14c-1.16,0-2.09-.95-2.09-2.1V4.21H4.21v145.67Z"/>
    <g>
      <line class="cls-1" x1="88.98" y1="2.1" x2="119.14" y2="31.36"/>
      <path class="cls-1" d="m119.14,33.47c-.53,0-1.06-.2-1.46-.59L87.52,3.61c-.83-.81-.85-2.14-.05-2.97.81-.84,2.14-.85,2.97-.05l30.15,29.26c.83.81.85,2.14.05,2.97-.41.43-.96.64-1.51.64Z"/>
    </g>
    <path class="cls-2" d="m21.31,30.9h-1.45c-3.35,0-6.08-2.73-6.08-6.08v-1.45c0-3.35,2.73-6.08,6.08-6.08h1.45c3.35,0,6.08,2.73,6.08,6.08v1.45c0,3.35-2.73,6.08-6.08,6.08Zm-1.45-11.31c-2.09,0-3.78,1.7-3.78,3.78v1.45c0,2.09,1.7,3.78,3.78,3.78h1.45c2.09,0,3.78-1.7,3.78-3.78v-1.45c0-2.09-1.7-3.78-3.78-3.78h-1.45Z"/>
    <path class="cls-4" d="m21.31,49.26h-1.45c-3.35,0-6.08-2.73-6.08-6.08v-1.45c0-3.35,2.73-6.08,6.08-6.08h1.45c3.35,0,6.08,2.73,6.08,6.08v1.45c0,3.35-2.73,6.08-6.08,6.08Zm-1.45-11.31c-2.09,0-3.78,1.7-3.78,3.78v1.45c0,2.09,1.7,3.78,3.78,3.78h1.45c2.09,0,3.78-1.7,3.78-3.78v-1.45c0-2.09-1.7-3.78-3.78-3.78h-1.45Z"/>
    <path class="cls-4" d="m58.74,25.4h-20.68c-.57,0-1.03-.69-1.03-1.53s.46-1.53,1.03-1.53h20.68c.57,0,1.03.69,1.03,1.53s-.46,1.53-1.03,1.53Z"/>
    <path class="cls-2" d="m58.49,44.57h-20.43c-.57,0-1.03-.69-1.03-1.53s.46-1.53,1.03-1.53h20.43c.57,0,1.03.69,1.03,1.53s-.46,1.53-1.03,1.53Z"/>
    <path class="cls-4" d="m74.2,30.9h-1.45c-3.35,0-6.08-2.73-6.08-6.08v-1.45c0-3.35,2.73-6.08,6.08-6.08h1.45c3.35,0,6.08,2.73,6.08,6.08v1.45c0,3.35-2.73,6.08-6.08,6.08Zm-1.45-11.31c-2.09,0-3.78,1.7-3.78,3.78v1.45c0,2.09,1.7,3.78,3.78,3.78h1.45c2.09,0,3.78-1.7,3.78-3.78v-1.45c0-2.09-1.7-3.78-3.78-3.78h-1.45Z"/>
    <path class="cls-2" d="m74.2,49.26h-1.45c-3.35,0-6.08-2.73-6.08-6.08v-1.45c0-3.35,2.73-6.08,6.08-6.08h1.45c3.35,0,6.08,2.73,6.08,6.08v1.45c0,3.35-2.73,6.08-6.08,6.08Zm-1.45-11.31c-2.09,0-3.78,1.7-3.78,3.78v1.45c0,2.09,1.7,3.78,3.78,3.78h1.45c2.09,0,3.78-1.7,3.78-3.78v-1.45c0-2.09-1.7-3.78-3.78-3.78h-1.45Z"/>
    <path class="cls-3" d="m107.96,44.57h-20.43c-.57,0-1.03-.69-1.03-1.53s.46-1.53,1.03-1.53h20.43c.57,0,1.03.69,1.03,1.53s-.46,1.53-1.03,1.53Z"/>
    <path class="cls-3" d="m22.08,26.64c-.29,0-.59-.11-.81-.34l-3.67-3.67c-.45-.45-.45-1.18,0-1.62s1.18-.45,1.62,0l2.86,2.86,13.79-13.79c.45-.45,1.18-.45,1.62,0s.45,1.18,0,1.62l-14.6,14.6c-.22.22-.52.34-.81.34Z"/>
    <path class="cls-3" d="m73.17,46.18c-.29,0-.59-.11-.81-.34l-3.67-3.67c-.45-.45-.45-1.18,0-1.62s1.18-.45,1.62,0l2.86,2.86,13.79-13.79c.45-.45,1.18-.45,1.62,0s.45,1.18,0,1.62l-14.6,14.6c-.22.22-.52.34-.81.34Z"/>
    <path class="cls-2" d="m21.31,79.07h-1.45c-3.35,0-6.08-2.73-6.08-6.08v-1.45c0-3.35,2.73-6.08,6.08-6.08h1.45c3.35,0,6.08,2.73,6.08,6.08v1.45c0,3.35-2.73,6.08-6.08,6.08Zm-1.45-11.31c-2.09,0-3.78,1.7-3.78,3.78v1.45c0,2.09,1.7,3.78,3.78,3.78h1.45c2.09,0,3.78-1.7,3.78-3.78v-1.45c0-2.09-1.7-3.78-3.78-3.78h-1.45Z"/>
    <path class="cls-4" d="m21.31,97.43h-1.45c-3.35,0-6.08-2.73-6.08-6.08v-1.45c0-3.35,2.73-6.08,6.08-6.08h1.45c3.35,0,6.08,2.73,6.08,6.08v1.45c0,3.35-2.73,6.08-6.08,6.08Zm-1.45-11.31c-2.09,0-3.78,1.7-3.78,3.78v1.45c0,2.09,1.7,3.78,3.78,3.78h1.45c2.09,0,3.78-1.7,3.78-3.78v-1.45c0-2.09-1.7-3.78-3.78-3.78h-1.45Z"/>
    <path class="cls-4" d="m58.74,73.57h-20.68c-.57,0-1.03-.69-1.03-1.53s.46-1.53,1.03-1.53h20.68c.57,0,1.03.69,1.03,1.53s-.46,1.53-1.03,1.53Z"/>
    <path class="cls-2" d="m58.49,92.74h-20.43c-.57,0-1.03-.69-1.03-1.53s.46-1.53,1.03-1.53h20.43c.57,0,1.03.69,1.03,1.53s-.46,1.53-1.03,1.53Z"/>
    <path class="cls-4" d="m74.2,79.07h-1.45c-3.35,0-6.08-2.73-6.08-6.08v-1.45c0-3.35,2.73-6.08,6.08-6.08h1.45c3.35,0,6.08,2.73,6.08,6.08v1.45c0,3.35-2.73,6.08-6.08,6.08Zm-1.45-11.31c-2.09,0-3.78,1.7-3.78,3.78v1.45c0,2.09,1.7,3.78,3.78,3.78h1.45c2.09,0,3.78-1.7,3.78-3.78v-1.45c0-2.09-1.7-3.78-3.78-3.78h-1.45Z"/>
    <path class="cls-2" d="m74.2,97.43h-1.45c-3.35,0-6.08-2.73-6.08-6.08v-1.45c0-3.35,2.73-6.08,6.08-6.08h1.45c3.35,0,6.08,2.73,6.08,6.08v1.45c0,3.35-2.73,6.08-6.08,6.08Zm-1.45-11.31c-2.09,0-3.78,1.7-3.78,3.78v1.45c0,2.09,1.7,3.78,3.78,3.78h1.45c2.09,0,3.78-1.7,3.78-3.78v-1.45c0-2.09-1.7-3.78-3.78-3.78h-1.45Z"/>
    <path class="cls-2" d="m108.21,73.57h-20.68c-.57,0-1.03-.69-1.03-1.53s.46-1.53,1.03-1.53h20.68c.57,0,1.03.69,1.03,1.53s-.46,1.53-1.03,1.53Z"/>
    <path class="cls-3" d="m107.96,92.74h-20.43c-.57,0-1.03-.69-1.03-1.53s.46-1.53,1.03-1.53h20.43c.57,0,1.03.69,1.03,1.53s-.46,1.53-1.03,1.53Z"/>
    <path class="cls-3" d="m22.08,74.81c-.29,0-.59-.11-.81-.34l-3.67-3.67c-.45-.45-.45-1.18,0-1.62s1.18-.45,1.62,0l2.86,2.86,13.79-13.79c.45-.45,1.18-.45,1.62,0s.45,1.18,0,1.62l-14.6,14.6c-.22.22-.52.34-.81.34Z"/>
    <path class="cls-3" d="m73.17,94.35c-.29,0-.59-.11-.81-.34l-3.67-3.67c-.45-.45-.45-1.18,0-1.62s1.18-.45,1.62,0l2.86,2.86,13.79-13.79c.45-.45,1.18-.45,1.62,0,.45.45.45,1.18,0,1.62l-14.6,14.6c-.22.22-.52.34-.81.34Z"/>
    <path class="cls-2" d="m21.31,124.52h-1.45c-3.35,0-6.08-2.73-6.08-6.08v-1.45c0-3.35,2.73-6.08,6.08-6.08h1.45c3.35,0,6.08,2.73,6.08,6.08v1.45c0,3.35-2.73,6.08-6.08,6.08Zm-1.45-11.31c-2.09,0-3.78,1.7-3.78,3.78v1.45c0,2.09,1.7,3.78,3.78,3.78h1.45c2.09,0,3.78-1.7,3.78-3.78v-1.45c0-2.09-1.7-3.78-3.78-3.78h-1.45Z"/>
    <path class="cls-4" d="m21.31,142.88h-1.45c-3.35,0-6.08-2.73-6.08-6.08v-1.45c0-3.35,2.73-6.08,6.08-6.08h1.45c3.35,0,6.08,2.73,6.08,6.08v1.45c0,3.35-2.73,6.08-6.08,6.08Zm-1.45-11.31c-2.09,0-3.78,1.7-3.78,3.78v1.45c0,2.09,1.7,3.78,3.78,3.78h1.45c2.09,0,3.78-1.7,3.78-3.78v-1.45c0-2.09-1.7-3.78-3.78-3.78h-1.45Z"/>
    <path class="cls-4" d="m58.74,119.02h-20.68c-.57,0-1.03-.69-1.03-1.53s.46-1.53,1.03-1.53h20.68c.57,0,1.03.69,1.03,1.53s-.46,1.53-1.03,1.53Z"/>
    <path class="cls-2" d="m58.49,138.19h-20.43c-.57,0-1.03-.69-1.03-1.53s.46-1.53,1.03-1.53h20.43c.57,0,1.03.69,1.03,1.53s-.46,1.53-1.03,1.53Z"/>
    <path class="cls-4" d="m74.2,124.52h-1.45c-3.35,0-6.08-2.73-6.08-6.08v-1.45c0-3.35,2.73-6.08,6.08-6.08h1.45c3.35,0,6.08,2.73,6.08,6.08v1.45c0,3.35-2.73,6.08-6.08,6.08Zm-1.45-11.31c-2.09,0-3.78,1.7-3.78,3.78v1.45c0,2.09,1.7,3.78,3.78,3.78h1.45c2.09,0,3.78-1.7,3.78-3.78v-1.45c0-2.09-1.7-3.78-3.78-3.78h-1.45Z"/>
    <path class="cls-2" d="m74.2,142.88h-1.45c-3.35,0-6.08-2.73-6.08-6.08v-1.45c0-3.35,2.73-6.08,6.08-6.08h1.45c3.35,0,6.08,2.73,6.08,6.08v1.45c0,3.35-2.73,6.08-6.08,6.08Zm-1.45-11.31c-2.09,0-3.78,1.7-3.78,3.78v1.45c0,2.09,1.7,3.78,3.78,3.78h1.45c2.09,0,3.78-1.7,3.78-3.78v-1.45c0-2.09-1.7-3.78-3.78-3.78h-1.45Z"/>
    <path class="cls-2" d="m108.21,119.02h-20.68c-.57,0-1.03-.69-1.03-1.53s.46-1.53,1.03-1.53h20.68c.57,0,1.03.69,1.03,1.53s-.46,1.53-1.03,1.53Z"/>
    <path class="cls-3" d="m107.96,138.19h-20.43c-.57,0-1.03-.69-1.03-1.53s.46-1.53,1.03-1.53h20.43c.57,0,1.03.69,1.03,1.53s-.46,1.53-1.03,1.53Z"/>
    <path class="cls-3" d="m22.08,120.26c-.29,0-.59-.11-.81-.34l-3.67-3.67c-.45-.45-.45-1.18,0-1.62s1.18-.45,1.62,0l2.86,2.86,13.79-13.79c.45-.45,1.18-.45,1.62,0s.45,1.18,0,1.62l-14.6,14.6c-.22.22-.52.34-.81.34Z"/>
    <path class="cls-3" d="m73.17,139.8c-.29,0-.59-.11-.81-.34l-3.67-3.67c-.45-.45-.45-1.18,0-1.62s1.18-.45,1.62,0l2.86,2.86,13.79-13.79c.45-.45,1.18-.45,1.62,0s.45,1.18,0,1.62l-14.6,14.6c-.22.22-.52.34-.81.34Z"/>
  </g>
</svg>