<?xml version="1.0" encoding="UTF-8"?>
<svg id="Capa_2" data-name="Capa 2" xmlns="http://www.w3.org/2000/svg" viewBox="0 0 171.5 129.34">
  <defs>
    <style>
      .cls-1 {
        fill: #015a96;
      }

      .cls-1, .cls-2, .cls-3, .cls-4 {
        stroke-width: 0px;
      }

      .cls-2 {
        fill: #3de3f9;
      }

      .cls-3 {
        fill: #05325b;
      }

      .cls-5 {
        opacity: .28;
      }

      .cls-4 {
        fill: #00aece;
      }
    </style>
  </defs>
  <g id="Capa_1-2" data-name="Capa 1">
    <path class="cls-2" d="m151.1,100.52H20.39c-6.43,0-11.66-5.23-11.66-11.66V18.71c0-6.43,5.23-11.66,11.66-11.66h130.71c6.43,0,11.66,5.23,11.66,11.66v70.15c0,6.43-5.23,11.66-11.66,11.66ZM20.39,9.97c-4.82,0-8.75,3.92-8.75,8.75v70.15c0,4.82,3.92,8.75,8.75,8.75h130.71c4.82,0,8.75-3.92,8.75-8.75V18.71c0-4.82-3.92-8.75-8.75-8.75H20.39Z"/>
    <path class="cls-1" d="m159.84,107.84H11.66c-6.43,0-11.66-5.23-11.66-11.66V11.66C0,5.23,5.23,0,11.66,0h148.18c6.43,0,11.66,5.23,11.66,11.66v84.53c0,6.43-5.23,11.66-11.66,11.66ZM11.66,2.91C6.83,2.91,2.91,6.83,2.91,11.66v84.53c0,4.82,3.92,8.75,8.75,8.75h148.18c4.82,0,8.75-3.92,8.75-8.75V11.66c0-4.82-3.92-8.75-8.75-8.75H11.66Z"/>
    <path class="cls-4" d="m108.99,115.81h-41.67v-10.46h41.67v10.46Zm-38.76-2.91h35.85v-4.64h-35.85v4.64Z"/>
    <path class="cls-3" d="m136.47,129.34H43.26l11.6-16.39h70.01l11.6,16.39Zm-87.58-2.91h81.96l-7.48-10.56H56.36l-7.48,10.56Z"/>
    <g class="cls-5">
      <circle class="cls-2" cx="45.96" cy="36.14" r="6.74"/>
      <path class="cls-2" d="m45.96,43.68c-4.16,0-7.54-3.38-7.54-7.54s3.38-7.54,7.54-7.54,7.54,3.38,7.54,7.54-3.38,7.54-7.54,7.54Zm0-13.48c-3.28,0-5.94,2.67-5.94,5.94s2.67,5.94,5.94,5.94,5.94-2.67,5.94-5.94-2.67-5.94-5.94-5.94Z"/>
    </g>
    <path class="cls-1" d="m48.89,51.51h-5.82l-.51-2.57c-1.1-.3-2.16-.74-3.15-1.31l-2.18,1.46-4.12-4.12,1.48-2.21c-.56-.98-.98-2.03-1.26-3.12l-2.69-.54v-5.82l2.78-.55c.29-1.02.71-2,1.25-2.93l-1.54-2.3,4.12-4.12,2.35,1.57c.92-.51,1.89-.91,2.9-1.19l.56-2.81h5.82l.56,2.81c1.02.28,1.99.68,2.92,1.2l2.36-1.58,4.12,4.12-1.56,2.33c.54.94.97,1.94,1.26,2.99l2.77.55v5.82l-2.74.54c-.29,1.06-.7,2.09-1.25,3.05l1.49,2.23-4.12,4.12-2.21-1.48c-.97.56-2,.99-3.08,1.29l-.51,2.58Zm-4.51-1.6h3.2l.46-2.29.5-.12c1.26-.29,2.45-.79,3.54-1.48l.44-.28,1.97,1.32,2.26-2.26-1.33-1.99.27-.44c.68-1.09,1.16-2.27,1.44-3.51l.11-.51,2.46-.49v-3.2l-2.48-.49-.12-.5c-.29-1.23-.78-2.39-1.46-3.46l-.28-.44,1.4-2.09-2.26-2.26-2.12,1.41-.44-.27c-1.05-.65-2.19-1.12-3.39-1.4l-.5-.12-.5-2.52h-3.2l-.5,2.52-.5.12c-1.19.28-2.33.74-3.38,1.39l-.44.27-2.1-1.4-2.26,2.26,1.38,2.07-.28.44c-.67,1.05-1.16,2.19-1.45,3.4l-.12.49-2.48.49v3.2l2.42.48.11.51c.28,1.27.76,2.47,1.45,3.58l.27.44-1.32,1.97,2.26,2.26,1.95-1.3.44.28c1.11.71,2.32,1.21,3.6,1.5l.51.11.46,2.29Zm16.13-11.39h0,0Z"/>
    <g class="cls-5">
      <circle class="cls-2" cx="53.53" cy="68.63" r="9.1"/>
      <path class="cls-2" d="m53.53,78.52c-5.46,0-9.9-4.44-9.9-9.9s4.44-9.9,9.9-9.9,9.9,4.44,9.9,9.9-4.44,9.9-9.9,9.9Zm0-18.2c-4.58,0-8.3,3.72-8.3,8.3s3.72,8.3,8.3,8.3,8.3-3.72,8.3-8.3-3.72-8.3-8.3-8.3Z"/>
    </g>
    <path class="cls-4" d="m57.25,89.1h-7.4l-.68-3.41c-1.58-.41-3.09-1.04-4.5-1.88l-2.9,1.93-5.23-5.23,1.97-2.94c-.81-1.4-1.42-2.9-1.81-4.47l-3.58-.71v-7.4l3.7-.74c.41-1.48,1.01-2.88,1.79-4.2l-2.05-3.06,5.23-5.23,3.12,2.09c1.31-.75,2.71-1.32,4.17-1.71l.74-3.73h7.4l.74,3.73c1.47.39,2.87.97,4.19,1.72l3.14-2.1,5.23,5.23-2.07,3.1c.8,1.34,1.4,2.78,1.81,4.29l3.69.73v7.4l-3.64.72c-.39,1.53-.99,2.99-1.79,4.36l1.98,2.97-5.23,5.23-2.94-1.96c-1.38.82-2.86,1.44-4.41,1.84l-.68,3.43Zm-6.09-1.6h4.77l.63-3.14.5-.12c1.73-.4,3.36-1.08,4.87-2.03l.44-.28,2.7,1.81,3.38-3.38-1.82-2.73.27-.44c.93-1.49,1.59-3.12,1.98-4.82l.11-.51,3.36-.67v-4.77l-3.4-.68-.12-.5c-.4-1.68-1.07-3.28-2-4.75l-.28-.44,1.91-2.87-3.38-3.38-2.9,1.94-.44-.27c-1.45-.89-3.01-1.53-4.66-1.92l-.5-.12-.69-3.45h-4.77l-.69,3.45-.5.12c-1.64.38-3.2,1.02-4.64,1.9l-.44.27-2.88-1.92-3.38,3.38,1.89,2.83-.28.44c-.92,1.44-1.59,3.01-1.99,4.67l-.12.49-3.4.68v4.77l3.32.66.11.51c.38,1.74,1.05,3.4,1.99,4.92l.27.44-1.8,2.7,3.38,3.38,2.66-1.78.44.28c1.53.97,3.19,1.67,4.95,2.07l.51.11.62,3.14Zm22-15.65h0,0Z"/>
    <g class="cls-5">
      <circle class="cls-2" cx="105.59" cy="54.24" r="15.63"/>
      <path class="cls-2" d="m105.59,71.24c-9.38,0-17-7.63-17-17s7.63-17,17-17,17,7.63,17,17-7.63,17-17,17Zm0-31.26c-7.86,0-14.26,6.39-14.26,14.26s6.4,14.26,14.26,14.26,14.26-6.39,14.26-14.26-6.4-14.26-14.26-14.26Z"/>
    </g>
    <path class="cls-2" d="m111.98,89.4h-12.71l-1.17-5.86c-2.72-.7-5.31-1.79-7.73-3.23l-4.97,3.32-8.98-8.98,3.38-5.05c-1.39-2.41-2.43-4.98-3.1-7.67l-6.16-1.23v-12.71l6.36-1.27c.7-2.53,1.74-4.95,3.08-7.22l-3.52-5.26,8.98-8.98,5.37,3.58c2.25-1.29,4.65-2.28,7.15-2.94l1.28-6.42h12.71l1.28,6.41c2.52.67,4.93,1.66,7.2,2.96l5.4-3.61,8.98,8.98-3.56,5.32c1.37,2.31,2.41,4.78,3.1,7.37l6.34,1.26v12.71l-6.25,1.24c-.68,2.63-1.71,5.14-3.07,7.49l3.4,5.1-8.98,8.98-5.05-3.37c-2.38,1.41-4.92,2.47-7.58,3.16l-1.17,5.88Zm-10.45-2.75h8.2l1.08-5.4.87-.2c2.97-.68,5.78-1.86,8.36-3.49l.75-.48,4.64,3.1,5.8-5.8-3.13-4.68.47-.75c1.59-2.56,2.74-5.35,3.4-8.29l.2-.87,5.78-1.15v-8.2l-5.84-1.16-.2-.86c-.69-2.89-1.84-5.64-3.44-8.16l-.48-.75,3.29-4.92-5.8-5.8-4.98,3.33-.75-.46c-2.48-1.53-5.18-2.64-8.01-3.29l-.86-.2-1.18-5.93h-8.2l-1.18,5.93-.86.2c-2.81.65-5.49,1.75-7.97,3.27l-.75.46-4.94-3.3-5.8,5.8,3.25,4.87-.48.76c-1.57,2.48-2.73,5.17-3.43,8.02l-.21.85-5.85,1.16v8.2l5.7,1.13.19.88c.65,3,1.8,5.84,3.42,8.45l.46.75-3.1,4.64,5.8,5.8,4.58-3.06.76.48c2.62,1.67,5.48,2.86,8.5,3.55l.87.2,1.07,5.39Zm37.78-26.88h0,0Z"/>
  </g>
</svg>