<svg width="94" height="98" viewBox="0 0 94 98" fill="none" xmlns="http://www.w3.org/2000/svg">
<g clip-path="url(#clip0_580_2193)">
<path d="M24.4211 13.9H4.37109V0H24.4211V13.9ZM7.15109 11.12H21.6411V2.78H7.15109V11.11V11.12Z" fill="#00AECE"/>
<path d="M22.73 43.8772H6.06C2.72 43.8772 0 41.1572 0 37.8172V11.1172H28.79V37.8172C28.79 41.1572 26.07 43.8772 22.73 43.8772ZM2.78 13.8972V37.8172C2.78 39.6172 4.25 41.0872 6.05 41.0872H22.72C24.52 41.0872 25.99 39.6172 25.99 37.8172V13.8972H2.78Z" fill="#00AECE"/>
<path d="M12.8694 5.0625H9.85938V8.0725H12.8694V5.0625Z" fill="#05325B"/>
<path d="M22.6819 53.7734H19.6719V56.7834H22.6819V53.7734Z" fill="#3DE3F9"/>
<path d="M22.6819 60.2188H19.6719V63.2287H22.6819V60.2188Z" fill="#05325B"/>
<path d="M22.6819 66.6719H19.6719V69.6819H22.6819V66.6719Z" fill="#3DE3F9"/>
<path d="M22.6819 73.1172H19.6719V76.1272H22.6819V73.1172Z" fill="#05325B"/>
<path d="M42.0295 73.2188H39.0195V76.2288H42.0295V73.2188Z" fill="#05325B"/>
<path d="M42.0295 66.6875H39.0195V69.6975H42.0295V66.6875Z" fill="#3DE3F9"/>
<path d="M42.0295 60.1719H39.0195V63.1819H42.0295V60.1719Z" fill="#05325B"/>
<path d="M42.0295 53.6406H39.0195V56.6506H42.0295V53.6406Z" fill="#3DE3F9"/>
<path d="M42.0295 47.2422H39.0195V50.2522H42.0295V47.2422Z" fill="#05325B"/>
<path d="M42.0295 40.8438H39.0195V43.8537H42.0295V40.8438Z" fill="#3DE3F9"/>
<path d="M42.0295 34.2422H39.0195V37.2522H42.0295V34.2422Z" fill="#05325B"/>
<path d="M42.0295 27.7891H39.0195V30.7991H42.0295V27.7891Z" fill="#3DE3F9"/>
<path d="M42.0295 21.3125H39.0195V24.3225H42.0295V21.3125Z" fill="#05325B"/>
<path d="M19.0881 5.0625H16.0781V8.0725H19.0881V5.0625Z" fill="#05325B"/>
<path d="M21.3695 18.3281H7.81953C7.3777 18.3281 7.01953 18.6863 7.01953 19.1281V20.3081C7.01953 20.75 7.3777 21.1081 7.81953 21.1081H21.3695C21.8114 21.1081 22.1695 20.75 22.1695 20.3081V19.1281C22.1695 18.6863 21.8114 18.3281 21.3695 18.3281Z" fill="#3DE3F9"/>
<path d="M21.3695 24.7188H7.81953C7.3777 24.7188 7.01953 25.0769 7.01953 25.5188V26.6988C7.01953 27.1406 7.3777 27.4988 7.81953 27.4988H21.3695C21.8114 27.4988 22.1695 27.1406 22.1695 26.6988V25.5188C22.1695 25.0769 21.8114 24.7188 21.3695 24.7188Z" fill="#05325B"/>
<path d="M21.4809 50.8981H7.71094V41.5781H21.4809V50.8981ZM10.5009 48.1181H18.7009V44.3681H10.5009V48.1181Z" fill="#00AECE"/>
<path d="M89.3295 97.0797H69.2695V83.1797H89.3295V97.0797ZM72.0595 94.2997H86.5495V85.9697H72.0595V94.2997Z" fill="#00AECE"/>
<path d="M93.7001 85.9631H64.9102V59.2631C64.9102 55.9231 67.6302 53.2031 70.9702 53.2031H87.6402C90.9802 53.2031 93.7001 55.9231 93.7001 59.2631V85.9631ZM67.7001 83.1831H90.9202V59.2631C90.9202 57.4631 89.4502 55.9931 87.6502 55.9931H70.9802C69.1802 55.9931 67.7102 57.4631 67.7102 59.2631V83.1831H67.7001Z" fill="#00AECE"/>
<path d="M83.8381 89H80.8281V92.01H83.8381V89Z" fill="#05325B"/>
<path d="M77.6194 89H74.6094V92.01H77.6194V89Z" fill="#05325B"/>
<path d="M72.3414 78.75H85.8914C86.3332 78.75 86.6914 78.3918 86.6914 77.95V76.77C86.6914 76.3282 86.3332 75.97 85.8914 75.97H72.3414C71.8996 75.97 71.5414 76.3282 71.5414 76.77V77.95C71.5414 78.3918 71.8996 78.75 72.3414 78.75Z" fill="#3DE3F9"/>
<path d="M72.3414 72.3594H85.8914C86.3332 72.3594 86.6914 72.0012 86.6914 71.5594V70.3794C86.6914 69.9376 86.3332 69.5794 85.8914 69.5794H72.3414C71.8996 69.5794 71.5414 69.9376 71.5414 70.3794V71.5594C71.5414 72.0012 71.8996 72.3594 72.3414 72.3594Z" fill="#05325B"/>
<path d="M85.9887 55.4919H72.2188V46.1719H85.9887V55.4919ZM75.0088 52.7119H83.2087V48.9619H75.0088V52.7119Z" fill="#00AECE"/>
<path d="M31.2709 97.0778C16.7309 97.0778 13.2709 82.6478 13.2409 82.4978L13.2109 82.1878V49.5178H15.9909V82.0278C16.3609 83.4678 19.5509 94.2978 31.2709 94.2978C42.9909 94.2978 45.2509 83.6878 45.4609 82.4778L45.4809 14.2978C45.5009 14.1578 47.8109 0.0078125 62.4409 0.0078125C77.0709 0.0078125 80.4409 14.4478 80.4709 14.5878L80.5009 14.8978V47.5678H77.7209V15.0578C77.3509 13.6178 74.1609 2.77781 62.4409 2.77781C50.7209 2.77781 48.4609 13.3878 48.2509 14.5978L48.2309 82.7778C48.2109 82.9178 45.9009 97.0578 31.2709 97.0578V97.0778Z" fill="#00AECE"/>
<path d="M31.6286 90.2522C20.6286 90.2522 20.0686 79.7622 20.0586 79.6522L22.2886 79.5622C22.3086 79.9022 22.7886 88.0222 31.6286 88.0222C34.3386 88.0222 36.3986 87.2722 37.7386 85.7922C39.9186 83.3922 39.5886 79.7522 39.5886 79.7222L41.8086 79.4922C41.8286 79.6822 42.2586 84.1222 39.4086 87.2722C37.6286 89.2522 35.0086 90.2522 31.6286 90.2522Z" fill="#3DE3F9"/>
<path d="M71.5213 43.9375H74.5312V40.9275H71.5213V43.9375Z" fill="#3DE3F9"/>
<path d="M71.5213 37.4766H74.5312V34.4666H71.5213V37.4766Z" fill="#05325B"/>
<path d="M71.5213 31.0312H74.5312V28.0212H71.5213V31.0312Z" fill="#3DE3F9"/>
<path d="M71.5213 24.5938H74.5312V21.5837H71.5213V24.5938Z" fill="#05325B"/>
<path d="M52.1619 24.4922H55.1719V21.4822H52.1619V24.4922Z" fill="#05325B"/>
<path d="M52.1619 31.0078H55.1719V27.9978H52.1619V31.0078Z" fill="#3DE3F9"/>
<path d="M52.1619 37.5312H55.1719V34.5212H52.1619V37.5312Z" fill="#05325B"/>
<path d="M52.1619 44.0703H55.1719V41.0603H52.1619V44.0703Z" fill="#3DE3F9"/>
<path d="M52.1619 50.4688H55.1719V47.4588H52.1619V50.4688Z" fill="#05325B"/>
<path d="M52.1619 56.8594H55.1719V53.8494H52.1619V56.8594Z" fill="#3DE3F9"/>
<path d="M52.1619 63.4609H55.1719V60.4509H52.1619V63.4609Z" fill="#05325B"/>
<path d="M52.1619 69.9219H55.1719V66.9119H52.1619V69.9219Z" fill="#3DE3F9"/>
<path d="M52.1619 76.3984H55.1719V73.3884H52.1619V76.3984Z" fill="#05325B"/>
<path d="M52.3897 18.2209C52.3697 18.0309 51.9397 13.5909 54.7897 10.4409C56.5697 8.46094 59.1897 7.46094 62.5697 7.46094C73.5697 7.46094 74.1297 17.9509 74.1397 18.0609L71.9097 18.1509C71.8897 17.8109 71.4097 9.69094 62.5697 9.69094C59.8597 9.69094 57.7997 10.4409 56.4597 11.9209C54.2797 14.3209 54.6097 17.9609 54.6097 17.9909L52.3897 18.2209Z" fill="#3DE3F9"/>
</g>
<defs>
<clipPath id="clip0_580_2193">
<rect width="93.7" height="97.08" fill="white"/>
</clipPath>
</defs>
</svg>
