<?xml version="1.0" encoding="UTF-8"?>
<svg id="Capa_2" data-name="Capa 2" xmlns="http://www.w3.org/2000/svg" viewBox="0 0 168.6 135.53">
  <defs>
    <style>
      .cls-1 {
        fill: #3de3f9;
      }

      .cls-1, .cls-2, .cls-3 {
        stroke-width: 0px;
      }

      .cls-2 {
        fill: #00aece;
      }

      .cls-3 {
        fill: #06335a;
      }
    </style>
  </defs>
  <g id="Capa_1-2" data-name="Capa 1">
    <g>
      <path class="cls-2" d="m45.34,51.88s.05-2.45,3.88-7.3c3.83-4.85,6.79-9.5,11.49-15.68,0,0,7.23-6.97,14.2,0,0,0,6.38,8.89,8.84,12.11s6.69,9.09,6.23,10.98c0,0-8.79-6.33-21.71-6.23-12.92.1-17.77,4.04-22.93,6.13Z"/>
      <path class="cls-3" d="m53.75,51.42s15.09-6.13,27.81-.08c0,0-2.68,12.95-13.94,12.95s-13.87-12.87-13.87-12.87Z"/>
      <path class="cls-2" d="m50.99,52.26s3.6,15.02,17.01,15.02,16.32-14.94,16.32-14.94l5.52,3.22s-1.99,4.21-4.6,7.05-4.24,6.13-4.24,6.13h-26.56s-2.45-3.98-4.98-7.05-3.68-6.21-3.68-6.21c0,0,2.68-1.92,5.21-3.22Z"/>
      <path class="cls-2" d="m84.57,68.58l5.06-6.95s5.57.87,7.3,5.87c1.74,5.01,6.28,14.1,6.28,14.1,0,0,.82,3.93-.87,5.67s-10.67,7.15-10.67,7.15h-1.58s2.71-13.59,2.86-17.52-.92-6.18-3.52-7.35-4.85-.97-4.85-.97Z"/>
      <path class="cls-2" d="m50.75,68.58l-5.06-6.95s-5.57.87-7.3,5.87c-1.74,5.01-6.28,14.1-6.28,14.1,0,0-.82,3.93.87,5.67s10.67,7.15,10.67,7.15h1.58s-2.71-13.59-2.86-17.52.92-6.18,3.52-7.35,4.85-.97,4.85-.97Z"/>
      <path class="cls-1" d="m86.5,71.64h-37.93c-2.01,0-3.54,1.8-3.22,3.78l2.87,17.68c.17,1.05,1.08,1.82,2.14,1.82h35.06c1.09,0,2.02-.81,2.16-1.9l2.24-17.63c.25-2-1.3-3.77-3.32-3.77Z"/>
      <path class="cls-1" d="m87.46,97.13h-38.77c-.9,0-1.53.88-1.25,1.73l.65,1.97c.18.55.69.92,1.27.92h37.45c.58,0,1.09-.37,1.27-.92l.65-1.97c.28-.85-.36-1.73-1.25-1.73Z"/>
    </g>
    <path class="cls-3" d="m162.36,112.21l-33.67-22.04c3.35-11.03,5.84-27.19,2.93-39.17C122.93,15.23,86.76-6.8,50.99,1.9,15.23,10.59-6.8,46.76,1.9,82.52c8.69,35.77,44.86,57.79,80.62,49.1,12.53-3.04,23.36-9.47,31.79-18.06l35.46,20.29s9.73,6.13,16.56-5.08c6.83-11.22-3.97-16.56-3.97-16.56Zm-96,5.94c-28.25,0-51.14-22.9-51.14-51.14S38.12,15.87,66.36,15.87s51.14,22.9,51.14,51.14-22.9,51.14-51.14,51.14Z"/>
  </g>
</svg>