<svg width="118" height="99" viewBox="0 0 118 99" fill="none" xmlns="http://www.w3.org/2000/svg">
<g clip-path="url(#clip0_580_2350)">
<path d="M72.0714 39.7291L45.9514 39.6691C42.0514 38.7691 35.4414 35.6491 35.4414 29.6291V12.7891H81.5514V31.5991L81.3514 32.0591C81.2414 32.3091 78.6314 38.2091 72.3414 39.6691L72.0714 39.7291ZM46.8114 34.8891H71.4914C74.4714 34.0791 76.1514 31.5091 76.7014 30.5191V17.6391H40.2814V29.6291C40.2814 32.8591 45.6314 34.5591 46.8114 34.8891Z" fill="#00AECE"/>
<path d="M50.9428 29.0731C52.4947 29.0731 53.7528 27.815 53.7528 26.2631C53.7528 24.7112 52.4947 23.4531 50.9428 23.4531C49.3909 23.4531 48.1328 24.7112 48.1328 26.2631C48.1328 27.815 49.3909 29.0731 50.9428 29.0731Z" fill="#05325B"/>
<path d="M65.6823 31.6381C62.6323 31.6381 60.1523 29.1581 60.1523 26.1081C60.1523 23.0581 62.6323 20.5781 65.6823 20.5781C68.7323 20.5781 71.2123 23.0581 71.2123 26.1081C71.2123 29.1581 68.7323 31.6381 65.6823 31.6381ZM65.6823 23.4781C64.2323 23.4781 63.0523 24.6581 63.0523 26.1081C63.0523 27.5581 64.2323 28.7381 65.6823 28.7381C67.1323 28.7381 68.3123 27.5581 68.3123 26.1081C68.3123 24.6581 67.1323 23.4781 65.6823 23.4781Z" fill="#05325B"/>
<path d="M58.7915 53.9698C36.2315 53.9698 27.1315 42.1498 26.7515 41.6498C26.1215 40.8098 26.2915 39.6198 27.1315 38.9898C27.9715 38.3598 29.1615 38.5298 29.7915 39.3698C29.9215 39.5298 38.3115 50.1698 58.7915 50.1698C62.3515 50.1698 65.7215 49.8498 68.8115 49.2198C69.8415 49.0098 70.8415 49.6698 71.0515 50.6998C71.2615 51.7298 70.6015 52.7298 69.5715 52.9398C66.2215 53.6198 62.6015 53.9698 58.7915 53.9698ZM76.4515 50.7698C75.7115 50.7698 75.0015 50.3298 74.7015 49.6098C74.2915 48.6398 74.7515 47.5298 75.7215 47.1198C83.1015 44.0198 85.8715 39.5798 85.8915 39.5398L87.5115 40.5298H87.5215L89.3815 40.1498C89.7315 41.8898 84.9415 47.3798 77.1915 50.6398C76.9515 50.7398 76.7015 50.7898 76.4515 50.7898V50.7698Z" fill="#3DE3F9"/>
<path d="M58.153 67.8819C28.913 67.8819 17.113 56.2519 16.623 55.7519C15.883 55.0019 15.893 53.8019 16.643 53.0619C17.393 52.3319 18.583 52.3319 19.323 53.0719C19.433 53.1819 30.653 64.0719 58.143 64.0719C58.623 64.0719 59.093 64.0719 59.563 64.0619C60.653 64.0819 61.473 64.8819 61.493 65.9319C61.513 66.9819 60.673 67.8419 59.623 67.8619C59.133 67.8619 58.643 67.8719 58.143 67.8719L58.153 67.8819ZM67.193 67.4719C66.223 67.4719 65.393 66.7319 65.303 65.7519C65.203 64.7019 65.973 63.7819 67.013 63.6819C87.443 61.7419 94.413 53.3319 94.483 53.2419C95.133 52.4319 96.333 52.2919 97.153 52.9419C97.973 53.5919 98.123 54.7719 97.473 55.5919C97.163 55.9919 89.613 65.3519 67.373 67.4619C67.313 67.4619 67.253 67.4619 67.193 67.4619V67.4719Z" fill="#05325B"/>
<path d="M60.3329 82.4832C59.2829 82.4832 58.4329 81.6332 58.4329 80.5932C58.4329 79.5432 59.2829 78.6932 60.3229 78.6832C84.3629 78.6132 96.6929 73.1032 101.913 69.8232C102.803 69.2632 103.973 69.5332 104.533 70.4232C105.093 71.3132 104.823 72.4832 103.933 73.0432C98.3729 76.5332 85.3229 82.4132 60.3329 82.4832ZM52.7329 82.3232C52.7329 82.3232 52.6729 82.3232 52.6429 82.3232C22.3629 80.9032 10.0029 70.9132 9.49288 70.4932C8.68288 69.8232 8.57288 68.6232 9.24288 67.8132C9.91288 67.0032 11.1029 66.8932 11.9129 67.5632C12.0329 67.6632 23.9729 77.1732 52.8229 78.5332C53.8729 78.5832 54.6829 79.4732 54.6329 80.5232C54.5829 81.5432 53.7429 82.3332 52.7329 82.3332V82.3232Z" fill="#3DE3F9"/>
<path d="M60.6019 98.5082C57.7819 98.5082 54.9719 98.4582 52.2519 98.3482C51.2019 98.3082 50.3819 97.4282 50.4219 96.3782C50.4619 95.3282 51.3219 94.4782 52.3919 94.5582C55.0619 94.6582 57.8219 94.7182 60.5919 94.7182C74.0019 94.7182 85.8019 93.5182 95.6819 91.1382C96.7019 90.8982 97.7319 91.5182 97.9719 92.5382C98.2119 93.5582 97.5919 94.5882 96.5719 94.8282C86.4119 97.2682 74.3019 98.5082 60.6019 98.5082ZM44.7419 97.9082C44.6919 97.9082 44.6419 97.9082 44.5919 97.9082C14.3319 95.5082 1.83194 86.9682 1.31194 86.5982C0.451944 85.9982 0.241944 84.8082 0.841944 83.9482C1.44194 83.0882 2.62194 82.8882 3.48194 83.4782C3.64194 83.5882 15.8619 91.8182 44.8819 94.0982C45.9319 94.1782 46.7119 95.0982 46.6319 96.1382C46.5519 97.1282 45.7219 97.8882 44.7419 97.8882V97.9082ZM103.432 92.7982C102.642 92.7982 101.902 92.2982 101.632 91.5082C101.292 90.5182 101.832 89.4382 102.822 89.0982C110.902 86.3682 114.112 83.6482 114.142 83.6182C114.932 82.9282 116.132 83.0182 116.822 83.8082C117.512 84.5982 117.422 85.7982 116.632 86.4882C116.252 86.8182 112.672 89.7882 104.042 92.6982C103.842 92.7682 103.632 92.7982 103.432 92.7982Z" fill="#05325B"/>
<path d="M95.1114 17.55H19.6014C17.9914 17.55 16.6914 16.25 16.6914 14.64V2.91C16.6914 1.31 17.9914 0 19.6014 0H95.1114C96.7214 0 98.0214 1.3 98.0214 2.91V14.65C98.0214 16.25 96.7214 17.56 95.1114 17.56V17.55ZM22.5114 11.74H92.2014V5.81H22.5114V11.74Z" fill="#00AECE"/>
</g>
<defs>
<clipPath id="clip0_580_2350">
<rect width="116.78" height="98.51" fill="white" transform="translate(0.5)"/>
</clipPath>
</defs>
</svg>
