<?xml version="1.0" encoding="UTF-8"?>
<svg id="Capa_2" data-name="Capa 2" xmlns="http://www.w3.org/2000/svg" viewBox="0 0 171.5 129.34">
  <defs>
    <style>
      .cls-1 {
        fill: #015a96;
      }

      .cls-1, .cls-2, .cls-3, .cls-4 {
        stroke-width: 0px;
      }

      .cls-2 {
        fill: #3de3f9;
      }

      .cls-5 {
        fill: none;
        stroke: #015a96;
        stroke-miterlimit: 10;
        stroke-width: 3px;
      }

      .cls-3 {
        fill: #05325b;
      }

      .cls-4 {
        fill: #00aece;
      }

      .cls-6 {
        fill: #fff;
        font-family: MicrosoftYaHeiUI, 'Microsoft YaHei UI';
        font-size: 11.14px;
      }
    </style>
  </defs>
  <g id="Capa_1-2" data-name="Capa 1">
    <circle class="cls-2" cx="92.86" cy="28.38" r="7.2"/>
    <rect class="cls-2" x="93.03" y="37.14" width="6.39" height="20.67" rx="2.54" ry="2.54"/>
    <rect class="cls-2" x="88.07" y="38.11" width="6.39" height="21.14" rx="2.54" ry="2.54" transform="translate(-11.21 62.72) rotate(-35.87)"/>
    <rect class="cls-2" x="83.05" y="56.24" width="8.59" height="20.67" rx="3.42" ry="3.42" transform="translate(-22.18 74.73) rotate(-41.58)"/>
    <rect class="cls-2" x="74.22" y="57.21" width="8.59" height="20.67" rx="3.42" ry="3.42" transform="translate(-5.43 6.88) rotate(-4.85)"/>
    <rect class="cls-2" x="87.68" y="67.68" width="7.97" height="21.96" rx="3.18" ry="3.18"/>
    <rect class="cls-2" x="70.53" y="68.48" width="7.97" height="23.01" rx="3.18" ry="3.18" transform="translate(66.84 -29.06) rotate(38.94)"/>
    <rect class="cls-2" x="76.71" y="35.52" width="12.95" height="30.36" rx="5.16" ry="5.16" transform="translate(24.15 -26.79) rotate(21.34)"/>
    <polygon class="cls-4" points="81.13 29 85.62 33.49 80.88 35.44 79.45 33.9 81.13 29"/>
    <path class="cls-4" d="m77.8,35.24l1.44,1.44-7.19,18.78s-2.46,3.3-6.05,3.98-6.78-1.51-6.78-1.51c0,0-4.31-3.02-3.7-9.52s9.47-10.98,9.47-10.98c0,0,6.34-2.92,12.81-2.19Z"/>
    <text class="cls-6" transform="translate(61.86 52.21)"><tspan x="0" y="0">$</tspan></text>
    <path class="cls-1" d="m159.84,107.84H11.66c-6.43,0-11.66-5.23-11.66-11.66V11.66C0,5.23,5.23,0,11.66,0h148.18c6.43,0,11.66,5.23,11.66,11.66v84.53c0,6.43-5.23,11.66-11.66,11.66ZM11.66,2.91C6.83,2.91,2.91,6.83,2.91,11.66v84.53c0,4.82,3.92,8.75,8.75,8.75h148.18c4.82,0,8.75-3.92,8.75-8.75V11.66c0-4.82-3.92-8.75-8.75-8.75H11.66Z"/>
    <path class="cls-4" d="m108.99,115.81h-41.67v-10.46h41.67v10.46Zm-38.76-2.91h35.85v-4.64h-35.85v4.64Z"/>
    <path class="cls-3" d="m136.47,129.34H43.26l11.6-16.39h70.01l11.6,16.39Zm-87.58-2.91h81.96l-7.48-10.56H56.36l-7.48,10.56Z"/>
    <line class="cls-5" x1="49.87" y1="89.34" x2="118.28" y2="20.4"/>
    <line class="cls-5" x1="119.85" y1="89.34" x2="51.44" y2="20.4"/>
    <path class="cls-2" d="m151.1,100.52H20.39c-6.43,0-11.66-5.23-11.66-11.66V18.71c0-6.43,5.23-11.66,11.66-11.66h130.71c6.43,0,11.66,5.23,11.66,11.66v70.15c0,6.43-5.23,11.66-11.66,11.66ZM20.39,9.97c-4.82,0-8.75,3.92-8.75,8.75v70.15c0,4.82,3.92,8.75,8.75,8.75h130.71c4.82,0,8.75-3.92,8.75-8.75V18.71c0-4.82-3.92-8.75-8.75-8.75H20.39Z"/>
  </g>
</svg>