<?xml version="1.0" encoding="UTF-8"?>
<svg id="Capa_2" data-name="Capa 2" xmlns="http://www.w3.org/2000/svg" viewBox="0 0 364.52 121.35">
  <defs>
    <style>
      .cls-1 {
        fill: #015a96;
      }

      .cls-1, .cls-2, .cls-3, .cls-4, .cls-5 {
        stroke-width: 0px;
      }

      .cls-2 {
        fill: #3de3f9;
      }

      .cls-3 {
        fill: #05325b;
      }

      .cls-6 {
        stroke: #3de3f9;
      }

      .cls-6, .cls-7 {
        stroke-linecap: round;
      }

      .cls-6, .cls-7, .cls-8, .cls-5 {
        fill: #fff;
      }

      .cls-6, .cls-7, .cls-8, .cls-9 {
        stroke-linejoin: round;
      }

      .cls-6, .cls-7, .cls-8, .cls-9, .cls-10 {
        stroke-width: 2px;
      }

      .cls-4 {
        fill: #00aece;
      }

      .cls-7, .cls-8, .cls-9 {
        stroke: #0c74bb;
      }

      .cls-9, .cls-10 {
        fill: none;
      }

      .cls-10 {
        stroke: #00aece;
        stroke-miterlimit: 10;
      }
    </style>
  </defs>
  <g id="Capa_1-2" data-name="Capa 1">
    <path class="cls-1" d="m119.25,80.46H8.7c-4.8,0-8.7-3.9-8.7-8.7V8.7C0,3.9,3.9,0,8.7,0h110.55c4.8,0,8.7,3.9,8.7,8.7v63.06c0,4.8-3.9,8.7-8.7,8.7ZM8.7,2.17c-3.6,0-6.53,2.93-6.53,6.53v63.06c0,3.6,2.93,6.53,6.53,6.53h110.55c3.6,0,6.53-2.93,6.53-6.53V8.7c0-3.6-2.93-6.53-6.53-6.53H8.7Z"/>
    <path class="cls-4" d="m81.31,86.4h-31.09v-7.81h31.09v7.81Zm-28.92-2.17h26.75v-3.46h-26.75v3.46Z"/>
    <path class="cls-3" d="m101.81,96.49H32.27l8.66-12.22h52.23l8.66,12.22Zm-65.34-2.17h61.14l-5.58-7.88h-49.98l-5.58,7.88Z"/>
    <path class="cls-2" d="m112.73,75H15.22c-4.8,0-8.7-3.9-8.7-8.7V13.96c0-4.8,3.9-8.7,8.7-8.7h97.52c4.8,0,8.7,3.9,8.7,8.7v52.34c0,4.8-3.9,8.7-8.7,8.7ZM15.22,7.44c-3.6,0-6.53,2.93-6.53,6.53v52.34c0,3.6,2.93,6.53,6.53,6.53h97.52c3.6,0,6.53-2.93,6.53-6.53V13.96c0-3.6-2.93-6.53-6.53-6.53H15.22Z"/>
    <rect class="cls-5" x="95.68" y="94.57" width="29.29" height="5.43"/>
    <path class="cls-4" d="m125.88,100.97h-31.09v-7.81h31.09v7.81Zm-28.92-2.17h26.75v-3.46h-26.75v3.46Z"/>
    <rect class="cls-5" x="45.54" y="15" width="122.57" height="79.29" rx="8.14" ry="8.14"/>
    <path class="cls-1" d="m163.82,95.03H53.27c-4.8,0-8.7-3.9-8.7-8.7V23.27c0-4.8,3.9-8.7,8.7-8.7h110.55c4.8,0,8.7,3.9,8.7,8.7v63.06c0,4.8-3.9,8.7-8.7,8.7ZM53.27,16.74c-3.6,0-6.53,2.93-6.53,6.53v63.06c0,3.6,2.93,6.53,6.53,6.53h110.55c3.6,0,6.53-2.93,6.53-6.53V23.27c0-3.6-2.93-6.53-6.53-6.53H53.27Z"/>
    <path class="cls-3" d="m146.38,111.07h-69.54l8.66-12.22h52.23l8.66,12.22Zm-65.34-2.17h61.14l-5.58-7.88h-49.98l-5.58,7.88Z"/>
    <path class="cls-2" d="m157.3,89.57H59.79c-4.8,0-8.7-3.9-8.7-8.7V28.53c0-4.8,3.9-8.7,8.7-8.7h97.52c4.8,0,8.7,3.9,8.7,8.7v52.34c0,4.8-3.9,8.7-8.7,8.7ZM59.79,22.01c-3.6,0-6.53,2.93-6.53,6.53v52.34c0,3.6,2.93,6.53,6.53,6.53h97.52c3.6,0,6.53-2.93,6.53-6.53V28.53c0-3.6-2.93-6.53-6.53-6.53H59.79Z"/>
    <rect class="cls-5" x="161.97" y="104.86" width="29.29" height="5.43"/>
    <path class="cls-1" d="m245.27,80.46h110.55c4.8,0,8.7-3.9,8.7-8.7V8.7c0-4.8-3.9-8.7-8.7-8.7h-110.55c-4.8,0-8.7,3.9-8.7,8.7v63.06c0,4.8,3.9,8.7,8.7,8.7ZM355.82,2.17c3.6,0,6.53,2.93,6.53,6.53v63.06c0,3.6-2.93,6.53-6.53,6.53h-110.55c-3.6,0-6.53-2.93-6.53-6.53V8.7c0-3.6,2.93-6.53,6.53-6.53h110.55Z"/>
    <path class="cls-4" d="m283.21,86.4h31.09v-7.81h-31.09v7.81Zm28.92-2.17h-26.75v-3.46h26.75v3.46Z"/>
    <path class="cls-3" d="m262.71,96.49h69.54l-8.66-12.22h-52.23l-8.66,12.22Zm65.34-2.17h-61.14l5.58-7.88h49.98l5.58,7.88Z"/>
    <path class="cls-2" d="m251.79,75h97.52c4.8,0,8.7-3.9,8.7-8.7V13.96c0-4.8-3.9-8.7-8.7-8.7h-97.52c-4.8,0-8.7,3.9-8.7,8.7v52.34c0,4.8,3.9,8.7,8.7,8.7ZM349.3,7.44c3.6,0,6.53,2.93,6.53,6.53v52.34c0,3.6-2.93,6.53-6.53,6.53h-97.52c-3.6,0-6.53-2.93-6.53-6.53V13.96c0-3.6,2.93-6.53,6.53-6.53h97.52Z"/>
    <rect class="cls-5" x="239.55" y="94.57" width="29.29" height="5.43" transform="translate(508.39 194.57) rotate(180)"/>
    <path class="cls-4" d="m238.63,100.97h31.09v-7.81h-31.09v7.81Zm28.92-2.17h-26.75v-3.46h26.75v3.46Z"/>
    <rect class="cls-5" x="196.41" y="15" width="122.57" height="79.29" rx="8.14" ry="8.14" transform="translate(515.39 109.29) rotate(180)"/>
    <path class="cls-1" d="m200.7,95.03h110.55c4.8,0,8.7-3.9,8.7-8.7V23.27c0-4.8-3.9-8.7-8.7-8.7h-110.55c-4.8,0-8.7,3.9-8.7,8.7v63.06c0,4.8,3.9,8.7,8.7,8.7Zm110.55-78.29c3.6,0,6.53,2.93,6.53,6.53v63.06c0,3.6-2.93,6.53-6.53,6.53h-110.55c-3.6,0-6.53-2.93-6.53-6.53V23.27c0-3.6,2.93-6.53,6.53-6.53h110.55Z"/>
    <path class="cls-3" d="m218.13,111.07h69.54l-8.66-12.22h-52.23l-8.66,12.22Zm65.34-2.17h-61.14l5.58-7.88h49.98l5.58,7.88Z"/>
    <rect class="cls-8" x="96" y="60.43" width="17.36" height="17.36" transform="translate(209.36 138.21) rotate(180)"/>
    <polygon class="cls-7" points="113.36 60.43 105.22 52.29 87.97 52.39 96 60.43 113.36 60.43"/>
    <polyline class="cls-9" points="87.97 52.39 87.97 71.71 96 77.79"/>
    <rect class="cls-8" x="73.25" y="60.43" width="17.36" height="17.36" transform="translate(163.86 138.21) rotate(180)"/>
    <polygon class="cls-7" points="90.61 60.43 79.07 52.29 65.22 52.39 73.25 60.43 90.61 60.43"/>
    <polyline class="cls-9" points="65.22 52.39 65.22 71.71 73.25 77.79"/>
    <rect class="cls-8" x="86.68" y="40.71" width="17.36" height="17.36" transform="translate(190.72 98.79) rotate(180)"/>
    <polygon class="cls-7" points="104.04 40.71 95.89 32.57 78.64 32.68 86.68 40.71 104.04 40.71"/>
    <polyline class="cls-9" points="78.64 32.68 78.64 52 86.68 58.07"/>
    <path class="cls-2" d="m207.22,89.57h97.52c4.8,0,8.7-3.9,8.7-8.7V28.53c0-4.8-3.9-8.7-8.7-8.7h-97.52c-4.8,0-8.7,3.9-8.7,8.7v52.34c0,4.8,3.9,8.7,8.7,8.7Zm97.52-67.56c3.6,0,6.53,2.93,6.53,6.53v52.34c0,3.6-2.93,6.53-6.53,6.53h-97.52c-3.6,0-6.53-2.93-6.53-6.53V28.53c0-3.6,2.93-6.53,6.53-6.53h97.52Z"/>
    <path class="cls-4" d="m192.17,111.26h-31.09v-7.81h31.09v7.81Zm-28.92-2.17h26.75v-3.46h-26.75v3.46Z"/>
    <rect class="cls-5" x="111.82" y="25.29" width="126.14" height="79.29" rx="8.14" ry="8.14"/>
    <path class="cls-1" d="m230.11,105.31h-110.55c-4.8,0-8.7-3.9-8.7-8.7v-63.06c0-4.8,3.9-8.7,8.7-8.7h110.55c4.8,0,8.7,3.9,8.7,8.7v63.06c0,4.8-3.9,8.7-8.7,8.7ZM119.55,27.03c-3.6,0-6.53,2.93-6.53,6.53v63.06c0,3.6,2.93,6.53,6.53,6.53h110.55c3.6,0,6.53-2.93,6.53-6.53v-63.06c0-3.6-2.93-6.53-6.53-6.53h-110.55Z"/>
    <path class="cls-3" d="m212.67,121.35h-69.54l8.66-12.22h52.23l8.66,12.22Zm-65.34-2.17h61.14l-5.58-7.88h-49.98l-5.58,7.88Z"/>
    <rect class="cls-10" x="118.39" y="40.71" width="112.89" height="48.43"/>
    <path class="cls-2" d="m223.59,99.85h-97.52c-4.8,0-8.7-3.9-8.7-8.7v-52.34c0-4.8,3.9-8.7,8.7-8.7h97.52c4.8,0,8.7,3.9,8.7,8.7v52.34c0,4.8-3.9,8.7-8.7,8.7ZM126.07,32.29c-3.6,0-6.53,2.93-6.53,6.53v52.34c0,3.6,2.93,6.53,6.53,6.53h97.52c3.6,0,6.53-2.93,6.53-6.53v-52.34c0-3.6-2.93-6.53-6.53-6.53h-97.52Z"/>
    <rect class="cls-8" x="250.82" y="56.57" width="17.36" height="17.36"/>
    <polygon class="cls-7" points="250.82 56.57 258.97 48.43 276.22 48.54 268.18 56.57 250.82 56.57"/>
    <polyline class="cls-9" points="276.22 48.54 276.22 67.86 268.18 73.93"/>
    <rect class="cls-8" x="273.57" y="56.57" width="17.36" height="17.36"/>
    <polygon class="cls-7" points="273.57 56.57 285.32 48.43 298.97 48.54 290.93 56.57 273.57 56.57"/>
    <polyline class="cls-9" points="298.97 48.54 298.97 67.86 290.93 73.93"/>
    <rect class="cls-8" x="260.14" y="36.86" width="17.36" height="17.36"/>
    <polygon class="cls-7" points="260.14 36.86 268.29 28.71 285.54 28.82 277.5 36.86 260.14 36.86"/>
    <polyline class="cls-9" points="285.54 28.82 285.54 48.14 277.5 54.21"/>
    <path class="cls-6" d="m147.68,67.87h0c-3.88,0-7.19,2.43-7.83,5.75l-2.24,11.7h20.14l-2.24-11.7c-.64-3.32-3.95-5.75-7.83-5.75Z"/>
    <circle class="cls-6" cx="147.28" cy="59.79" r="6.03"/>
    <path class="cls-7" d="m183.97,67.87h0c-3.88,0-7.19,2.43-7.83,5.75l-2.24,11.7h20.14l-2.24-11.7c-.64-3.32-3.95-5.75-7.83-5.75Z"/>
    <circle class="cls-7" cx="183.57" cy="59.79" r="6.03"/>
    <path class="cls-7" d="m205.97,67.87h0c-3.88,0-7.19,2.43-7.83,5.75l-2.24,11.7h20.14l-2.24-11.7c-.64-3.32-3.95-5.75-7.83-5.75Z"/>
    <circle class="cls-7" cx="205.57" cy="59.79" r="6.03"/>
  </g>
</svg>