<svg width="133" height="91" viewBox="0 0 133 91" fill="none" xmlns="http://www.w3.org/2000/svg">
<g clip-path="url(#clip0_580_2332)">
<path d="M126.988 14.75H84.7084C81.6384 14.75 79.1484 12.26 79.1484 9.19V0H132.548V9.19C132.548 12.26 130.058 14.75 126.988 14.75ZM83.8484 4.7V9.19C83.8484 9.66 84.2284 10.05 84.7084 10.05H126.988C127.458 10.05 127.848 9.66 127.848 9.19V4.7H83.8484Z" fill="#00AECE"/>
<path d="M112.89 52.5116H99.25V20.1016H112.89V52.5016V52.5116ZM103.95 47.8116H108.18V24.8116H103.95V47.8116Z" fill="#00AECE"/>
<path d="M117.92 24.7969H93.7898C90.6498 24.7969 88.0898 22.2369 88.0898 19.0969V10.0469H123.62V19.0969C123.62 22.2369 121.06 24.7969 117.92 24.7969ZM92.7898 14.7469V19.0969C92.7898 19.6469 93.2398 20.0969 93.7898 20.0969H117.92C118.47 20.0969 118.92 19.6469 118.92 19.0969V14.7469H92.7898Z" fill="#05325B"/>
<path d="M106.628 61.4425H93.8984V47.8125H112.898V55.1825C112.898 58.6325 110.088 61.4425 106.638 61.4425H106.628ZM98.5984 56.7425H106.628C107.488 56.7425 108.188 56.0425 108.188 55.1825V52.5125H98.5884V56.7425H98.5984Z" fill="#00AECE"/>
<path d="M30.7606 90.3293C30.0306 90.3293 29.2706 90.2893 28.4806 90.2093C15.3406 88.8793 12.4106 70.4892 12.2906 69.6992C10.6406 53.6493 15.8906 45.4793 20.5806 41.4393C24.1706 38.3493 29.3106 38.1793 33.0806 41.0193C36.1706 43.3493 37.4606 46.0093 37.5106 46.1293C42.2306 56.8193 47.6906 60.5993 49.2506 61.5093C50.3806 62.1593 51.0206 63.4493 50.8906 64.7993C49.7906 76.1193 46.9106 80.5593 46.0206 81.6893C44.4506 84.9593 39.5206 90.3293 30.7606 90.3293ZM23.0406 44.2993C19.0306 47.7493 14.5506 54.8793 16.0206 69.2293C16.0306 69.2993 18.6206 85.4293 28.8606 86.4693C39.2006 87.5093 42.6606 79.9893 42.7006 79.9193L42.8306 79.6292L43.0506 79.3993C43.0506 79.3993 46.0206 75.8693 47.1406 64.6393C44.6706 63.1493 38.9506 58.7093 34.1006 47.7093C34.1006 47.7093 33.1206 45.7693 30.8306 44.0393C28.4406 42.2393 25.3206 42.3493 23.0406 44.2993Z" fill="#3DE3F9"/>
<path d="M12.84 73.1433L8.74998 67.1933C7.51998 65.4033 -3.14002 49.4233 1.78998 40.0533C3.91998 36.0033 8.41998 33.9433 15.15 33.9433C22.76 33.9433 30.04 33.2333 37.07 32.5433C52.96 30.9933 67.97 29.5233 84.2 36.3633C90.75 38.8633 101.8 47.6433 96.22 62.7933L95.71 64.1833L64.02 67.2033C62.29 67.6633 53.61 69.3933 45.34 60.2633C41.93 56.5033 40.19 53.8433 38.79 51.7033C36.88 48.7833 35.82 47.1733 31.68 44.8133C28.43 42.9633 24.63 42.9133 21.5 44.6633C16.34 47.5633 13.34 55.1133 13.05 65.9133L12.85 73.1233L12.84 73.1433ZM26.39 38.6933C28.99 38.6933 31.6 39.3733 34 40.7433C39.13 43.6633 40.63 45.9633 42.72 49.1433C44.03 51.1433 45.66 53.6333 48.82 57.1233C55.74 64.7533 62.58 62.7533 62.87 62.6633L63.36 62.5633L92.27 59.8033C96.31 46.2033 83.04 40.9633 82.45 40.7333C67.24 34.3233 52.81 35.7333 37.53 37.2333C30.39 37.9333 23 38.6533 15.15 38.6533C10.3 38.6533 7.19998 39.8633 5.94998 42.2433C3.90998 46.1233 6.34998 52.9833 9.00998 58.2933C10.72 47.6133 15.29 42.7733 19.19 40.5833C21.43 39.3233 23.9 38.6933 26.39 38.6933Z" fill="#00AECE"/>
<path d="M51.4596 87.1191C50.1996 87.1191 49.0296 86.4791 48.3496 85.3891C47.6096 84.1891 47.6196 82.7091 48.3696 81.5191C49.6796 79.4491 51.7396 75.2791 50.8796 70.5191L50.6496 69.2291L51.6296 68.3491C52.6496 67.4391 53.6596 67.7391 54.9296 68.1191C56.1696 68.4891 58.7396 69.2591 60.3296 69.2791C61.4096 69.2891 62.4396 69.7591 63.1496 70.5491C63.8496 71.3291 64.1796 72.3791 64.0796 73.4291C63.2796 81.2891 58.6996 86.3991 51.8496 87.1091C51.7196 87.1191 51.5896 87.1291 51.4596 87.1291V87.1191ZM55.7796 73.2391C55.6896 76.7191 54.6096 79.7491 53.5096 81.9591C57.3196 80.6591 58.7796 77.1291 59.2796 73.9091C58.1596 73.7991 56.9596 73.5391 55.7796 73.2391Z" fill="#05325B"/>
<path d="M65.6613 84.7131C64.6513 84.7131 63.6813 84.2331 63.1013 83.4131C62.4813 82.5331 62.4213 81.3931 62.9413 80.4531C64.4613 77.7031 64.7013 72.5831 64.6613 70.8531L64.6213 69.1331L95.1313 65.7031L94.5813 68.2631C93.5613 72.9731 89.5013 77.7631 87.0313 79.8231C86.4313 80.3231 84.8413 81.6531 66.1913 84.6731C66.0213 84.7031 65.8513 84.7131 65.6713 84.7131H65.6613ZM68.3913 72.4931C68.3113 74.5131 68.0113 77.9231 66.9313 80.7331C79.4013 78.6731 83.9413 77.3631 84.6513 76.8931C86.2513 75.5531 88.5913 72.8431 89.9513 70.0631L68.3913 72.4931Z" fill="#3DE3F9"/>
<path d="M28.6708 77.7519C22.8208 77.7519 18.0508 72.0119 18.0508 64.9619C18.0508 57.9119 22.8108 52.1719 28.6708 52.1719C34.5308 52.1719 39.2908 57.9119 39.2908 64.9619C39.2908 72.0119 34.5308 77.7519 28.6708 77.7519ZM28.6708 56.8619C25.4608 56.8619 22.7608 60.5719 22.7608 64.9519C22.7608 69.3319 25.4708 73.0419 28.6708 73.0419C31.8708 73.0419 34.5808 69.3319 34.5808 64.9519C34.5808 60.5719 31.8708 56.8619 28.6708 56.8619Z" fill="#05325B"/>
<path d="M27.1897 70.4309C28.9901 70.4309 30.4497 68.255 30.4497 65.5709C30.4497 62.8868 28.9901 60.7109 27.1897 60.7109C25.3892 60.7109 23.9297 62.8868 23.9297 65.5709C23.9297 68.255 25.3892 70.4309 27.1897 70.4309Z" fill="#05325B"/>
<path d="M27.1883 71.3734C24.8283 71.3734 22.9883 68.8234 22.9883 65.5734C22.9883 62.3234 24.8383 59.7734 27.1883 59.7734C29.5383 59.7734 31.3883 62.3234 31.3883 65.5734C31.3883 68.8234 29.5383 71.3734 27.1883 71.3734ZM27.1883 61.6534C25.9283 61.6534 24.8683 63.4434 24.8683 65.5734C24.8683 67.7034 25.9283 69.4934 27.1883 69.4934C28.4483 69.4934 29.5083 67.7034 29.5083 65.5734C29.5083 63.4434 28.4483 61.6534 27.1883 61.6534Z" fill="#3DE3F9"/>
</g>
<defs>
<clipPath id="clip0_580_2332">
<rect width="132.05" height="90.33" fill="white" transform="translate(0.5)"/>
</clipPath>
</defs>
</svg>
