<?xml version="1.0" encoding="utf-8"?>
<!-- Generator: Adobe Illustrator 24.0.1, SVG Export Plug-In . SVG Version: 6.00 Build 0)  -->
<svg version="1.1" id="Layer_1_-_Vectplace.com" xmlns="http://www.w3.org/2000/svg" xmlns:xlink="http://www.w3.org/1999/xlink"
	 x="0px" y="0px" viewBox="0 0 500 500" style="enable-background:new 0 0 500 500;" xml:space="preserve">
<style type="text/css">
	.st0{fill:#FFFFFF;}
	.st1{fill:#FF9ACC;}
	.st2{fill:#4B8ED2;}
</style>
<g>
	<path d="M482.4749146,260.1051941c-5.7976379-25.1030579-28.5875854-27.6777649-50.6268005-30.1694031
		c-11.7312317-1.3256531-23.8615417-2.6965942-34.2860107-7.1815491
		c-9.3496094-4.0233154-17.7521667-11.1994629-26.6476746-18.7962952
		c-16.0408325-13.6977234-34.2030334-29.1916351-61.0120239-26.0670929
		c-0.9577026-0.575592-1.9234924-1.1349945-2.9029541-1.6604919c-6.0965881-3.2719727-12.5342102-5.807373-19.1087646-7.7815399
		c-13.1632385-3.960083-26.8813782-5.6153107-40.5351563-5.6343842c-13.6548309,0.0831909-27.3470306,1.7584381-40.5126343,5.648941
		c-6.5737457,1.9498291-13.0174408,4.4521332-19.1138763,7.7220764c-1.4618225,0.7876129-2.9028168,1.6343384-4.3107758,2.5380402
		c-37.3966064-4.7407379-58.6834564,20.7871704-75.8023376,41.3244476
		c-7.8934479,9.4693298-15.3489685,18.4144592-23.2240829,23.207901
		c-7.5979004,4.6251831-17.2640915,7.1664581-26.6115379,9.6246643
		c-22.1805038,5.8332672-45.1165924,11.864975-41.5597992,45.5507355
		c1.9631157,18.5881348,17.6939259,33.1550903,41.0539169,38.0143433c5.257267,1.0937195,10.8871994,1.6708069,16.7085953,1.6708069
		c26.0799026-0.0010986,55.9772949-11.5770569,73.2591858-40.0048828c0.850769,0.4938049,1.6929779,1.0090637,2.5538025,1.4798889
		l2.7037964,1.3133545c6.3795929,3.0578613,13.0440063,5.2621155,19.7771759,7.0474854
		c2.7557678,0.7641907,5.5358887,1.374939,8.4012146,1.9363403c1.9445801,0.411499,3.8929901,0.794281,5.852066,1.0952759
		c1.9358826,0.3123474,3.863266,0.7174377,5.8065643,0.9526978l5.8236084,0.7758179
		c15.5435333,1.9442444,31.1597443,2.5496216,46.7362366,2.6058655c15.572464-0.0641785,31.1790314-0.5831604,46.727951-2.3777161
		c6.5386658-0.7796021,13.0974426-1.7177429,19.602356-3.0042114c2.6829224-0.4718323,4.09552-0.7889404,6.8219604-1.4910278
		c6.5914001-1.5906372,13.0991516-3.6183472,19.4420471-6.2999573c5.632843-2.4352112,11.14151-5.5146484,15.9703369-9.5853577
		c22.5907288,21.2922668,44.2803345,27.4569092,61.8098145,27.4558411
		c17.587677-0.0010681,30.9880981-6.1989136,36.8979492-9.5254211
		C473.6770325,298.3848572,486.4221802,277.1950989,482.4749146,260.1051941z M449.7308044,306.1585999
		c-11.0263367,6.2079468-49.9279175,23.0568848-92.6396179-17.0036011c0.1567383-0.1634216,0.3234558-0.3136292,0.4781189-0.4797974
		c2.7258301-3.1387634,5.0319519-6.6930542,6.6035156-10.6099243c1.4913635-3.9486084,2.1657104-8.1458435,2.207489-12.288147
		c0.0039978-8.3398743-2.5617981-16.1973114-5.8236694-23.4451294c-3.3648071-7.2245026-7.6078186-13.9812012-12.963562-19.7642975
		c-0.4537048-0.4897003-1.1972961-0.6333008-1.8128662-0.3029022c-0.7311096,0.3923645-1.0056763,1.3031921-0.6133423,2.034317
		l0.006012,0.0111237c3.659668,6.818512,7.6448975,13.2774506,10.8499146,20.1037903
		c3.0582581,6.8374634,5.333313,14.0974121,5.2903137,21.3392944c-0.0542908,3.5981445-0.6422729,7.1468506-1.9006958,10.464447
		c-1.342041,3.2855835-3.2997437,6.2892456-5.6592712,9.0059204c-4.9478149,5.2783203-11.4361572,9.1827087-18.3291626,12.1242676
		c-6.9199219,2.9468384-14.2731628,5.0039368-21.7130432,6.6621094l-5.6189575,1.1242981
		c-1.8716431,0.3797913-3.7775879,0.6200867-5.6644592,0.9373169c-3.7704163,0.659729-7.5955505,1.0441895-11.4017639,1.5220947
		c-15.2663269,1.7115784-30.7042236,2.1766968-46.1264038,2.1877441
		c-15.4184113-0.0055237-30.8492279-0.5547485-46.0860138-2.4109497l-5.7038879-0.7400208
		c-1.9062958-0.2233276-3.7776489-0.6130676-5.6683655-0.9108887c-3.7909241-0.5678406-7.501709-1.444519-11.2362061-2.2316284
		c-7.3903351-1.8139343-14.6730042-4.0741577-21.4407654-7.2922668l-2.5309448-1.21521
		c-0.8175507-0.4447327-1.6079102-0.9304504-2.4139862-1.3924561c-0.7936707-0.4785767-1.6252441-0.9092102-2.3895111-1.4250793
		l-2.2529297-1.5977173l-1.1283875-0.7965698c-0.365799-0.2764587-0.6933594-0.5931091-1.0423737-0.8871765l-2.0681458-1.791687
		c-0.6684113-0.6156311-1.2414398-1.3140564-1.8696747-1.964386l-0.9250641-0.9909363
		c-0.3101807-0.3290405-0.5406036-0.715271-0.8157196-1.0693359c-4.4477539-5.6501465-6.5910645-12.8027954-6.2041779-20.0681152
		c0.0792084-3.631897,0.8179474-7.276413,1.8055725-10.8487244l0.7940826-2.6751404l0.9641571-2.635849
		c0.3020172-0.884552,0.6623535-1.7515717,1.0446625-2.6120453l1.1167908-2.590683
		c3.2268066-6.8324738,7.2051392-13.2976074,10.8075104-20.1513977l0.0068817-0.0121918
		c0.3088226-0.5880585,0.1985931-1.3323212-0.3131409-1.8036804c-0.6105042-0.562439-1.5614014-0.523407-2.123764,0.0871582
		c-5.3422089,5.7996216-9.5303497,12.5814056-12.9058685,19.7831116l-1.194931,2.743103
		c-0.4068451,0.9102325-0.7925262,1.8310547-1.1224518,2.7799072l-1.0406036,2.8209686l-0.8718872,2.8942566
		c-1.0869217,3.8791046-1.9178696,7.8928375-2.0316696,12.0201569c-0.4955673,8.2041626,2.0209579,16.8499756,7.1872177,23.40448
		c0.3169861,0.411377,0.5951385,0.8595581,0.945755,1.2393799l1.0498505,1.1419373
		c0.7114258,0.7476196,1.3800507,1.5483093,2.1318512,2.2477112l2.31604,2.0259705
		c0.3905945,0.3309326,0.7648163,0.6872253,1.1697083,0.9963074l1.2405548,0.8877869l0.9512329,0.6778564
		c-19.873848,32.7978516-57.5997086,41.8165894-84.7640457,36.162384
		c-21.4912567-4.4709473-35.3689728-17.0586243-37.1228333-33.6706848
		c-3.1091652-29.4424133,15.8861313-34.437561,37.8805733-40.2211914
		c9.6920738-2.5488281,19.7142067-5.1849976,27.9317894-10.1866302
		c8.5800018-5.2227478,16.2922363-14.4752808,24.4575043-24.2714386
		c16.280304-19.5315247,34.6101456-41.5025024,65.9794083-40.0462036c-2.1076508,1.813858-4.0625458,3.8028564-5.7784424,6.0038757
		c-0.4044952,0.5184174-0.4083252,1.2665253,0.0304718,1.7915497c0.5051422,0.6043701,1.4045868,0.6848602,2.0089569,0.1797333
		l0.0261536-0.0218506c3.3170013-2.7722321,6.8224335-5.2327881,10.475296-7.4670563
		c0.5698547-0.1217499,1.0715637-0.4374542,1.4277802-0.8879852c1.424057-0.8358002,2.8711853-1.6367493,4.3430481-2.4012451
		c5.7870789-3.006897,11.9634094-5.3178711,18.2896118-7.1025391c12.6771851-3.5271912,25.9206696-5.1210785,39.1190491-5.0914917
		c13.2012024-0.0303955,26.4320068,1.6408081,39.0683594,5.2508698c6.3079834,1.8224792,12.4572754,4.1761932,18.2338257,7.1999512
		c5.7815552,3.0332489,11.1954346,6.5688171,16.4732056,10.5330658l0.0179138,0.0138855
		c0.5062256,0.3800201,1.2232361,0.3890533,1.7438965-0.021225c0.6206055-0.4891052,0.7272644-1.3886108,0.2382202-2.0092316
		c-1.9670105-2.4962311-4.2432556-4.7148438-6.7032166-6.7122803c21.4284058-0.1789093,36.572998,12.7541199,51.2593384,25.296814
		c9.1899719,7.8470764,17.8702698,15.2605286,27.9112854,19.5804596
		c11.0997009,4.7772827,23.6016235,6.1902924,35.6920471,7.5558472
		c22.1799622,2.5067444,41.3354187,4.6715546,46.3419189,26.3488922
		C481.0387268,275.9708252,469.0437622,295.2891846,449.7308044,306.1585999z"/>
	<path d="M263.6307068,264.1069336c-1.1481934-0.4109497-2.4139709,0.1812134-2.8270874,1.3299561
		c-0.4136658,1.1476746,0.1812134,2.4129028,1.3288879,2.8271179c1.5710144,0.5662842,2.7898865,2.1863708,2.8977356,3.8518066
		c0.1078796,1.6664734-0.8914795,3.4289551-2.3757019,4.192627c-1.6697083,0.8575134-3.7660522,0.5857239-5.2286682,0.2071228
		c-1.2598572-0.3268433-2.4975739-0.8197632-3.8081207-1.3418274c-0.8504944-0.337616-1.7020874-0.6763-2.5666046-0.9740295
		c-3.1059265-1.0699768-5.7475128-1.3137512-8.0725098-0.7453308c-2.2565002,0.551178-4.0653687,1.8013306-5.8149109,3.0093994
		c-1.6691895,1.1530762-3.2456207,2.2424927-4.8905334,2.4193726c-1.8185883,0.1952515-3.7590485-0.9125061-4.5167847-2.5757751
		c-0.7577362-1.6632385-0.3187408-3.8539734,1.0214691-5.0976257c0.8941803-0.8294678,0.9465027-2.2273865,0.1170349-3.121582
		c-0.8300171-0.8952637-2.2273865-0.9470215-3.1221161-0.1164856c-2.7165375,2.5196838-3.5729828,6.7964783-2.0364685,10.1672058
		c1.4146423,3.1054077,4.7400665,5.1828613,8.1356049,5.1828613c0.2906952,0,0.5824738-0.0151062,0.8731537-0.0463867
		c2.7613068-0.2966309,4.9757538-1.8272095,6.9296875-3.1765747c1.4852905-1.0257874,2.8880463-1.9944153,4.3533783-2.3535767
		c1.4777222-0.3602905,3.3038635-0.1542664,5.5830078,0.6309814c0.7992706,0.276123,1.5861359,0.5900269,2.3730011,0.902832
		c1.3790283,0.5490112,2.8049927,1.1163635,4.3328857,1.5133057c3.1668701,0.8186951,6.0559998,0.6288452,8.3572388-0.555481
		c3.0730591-1.5791321,4.9876099-4.9573975,4.7643433-8.4057922
		C269.2158813,268.3826294,266.8817139,265.2783203,263.6307068,264.1069336z"/>
	<path class="st0" d="M477.6318665,261.2237549c-5.0065002-21.6773376-24.1619568-23.8421478-46.3419189-26.3488922
		c-12.0904236-1.3655548-24.5923462-2.7785645-35.6920471-7.5558472
		c-10.0410156-4.319931-18.7213135-11.7333832-27.9112854-19.5804596
		c-14.6863403-12.5426941-29.8309326-25.4757233-51.2593384-25.296814c2.4599609,1.9974365,4.7362061,4.2160492,6.7032166,6.7122803
		c0.4890442,0.6206207,0.3823853,1.5201263-0.2382202,2.0092316c-0.5206604,0.4102783-1.2376709,0.4012451-1.7438965,0.021225
		l-0.0179138-0.0138855c-5.277771-3.9642487-10.6916504-7.4998169-16.4732056-10.5330658
		c-5.7765503-3.0237579-11.9258423-5.3774719-18.2338257-7.1999512c-12.6363525-3.6100616-25.867157-5.2812653-39.0683594-5.2508698
		c-13.1983795-0.0295868-26.441864,1.5643005-39.1190491,5.0914917c-6.3262024,1.784668-12.502533,4.0956421-18.2896118,7.1025391
		c-1.4718628,0.7644958-2.9189911,1.5654449-4.3430481,2.4012451c-0.3562164,0.450531-0.8579254,0.7662354-1.4277802,0.8879852
		c-3.6528625,2.2342682-7.1582947,4.6948242-10.475296,7.4670563l-0.0261536,0.0218506
		c-0.6043701,0.505127-1.5038147,0.4246368-2.0089569-0.1797333c-0.438797-0.5250244-0.434967-1.2731323-0.0304718-1.7915497
		c1.7158966-2.2010193,3.6707916-4.1900177,5.7784424-6.0038757c-31.3692627-1.4562988-49.6991043,20.514679-65.9794083,40.0462036
		c-8.1652679,9.7961578-15.8775024,19.0486908-24.4575043,24.2714386
		c-8.2175827,5.0016327-18.2397156,7.6378021-27.9317894,10.1866302
		c-21.994442,5.7836304-40.9897385,10.7787781-37.8805733,40.2211914
		c1.7538605,16.6120605,15.6315765,29.1997375,37.1228333,33.6706848
		c27.1643372,5.6542053,64.8901978-3.3645325,84.7640457-36.162384l-0.9512329-0.6778564l-1.2405548-0.8877869
		c-0.404892-0.309082-0.7791138-0.6653748-1.1697083-0.9963074l-2.31604-2.0259705
		c-0.7518005-0.6994019-1.4204254-1.5000916-2.1318512-2.2477112l-1.0498505-1.1419373
		c-0.3506165-0.3798218-0.6287689-0.8280029-0.945755-1.2393799c-5.1662598-6.5545044-7.682785-15.2003174-7.1872177-23.40448
		c0.1138-4.1273193,0.9447479-8.1410522,2.0316696-12.0201569l0.8718872-2.8942566l1.0406036-2.8209686
		c0.3299255-0.9488525,0.7156067-1.8696747,1.1224518-2.7799072l1.194931-2.743103
		c3.3755188-7.2017059,7.5636597-13.98349,12.9058685-19.7831116c0.5623627-0.6105652,1.5132599-0.6495972,2.123764-0.0871582
		c0.511734,0.4713593,0.6219635,1.2156219,0.3131409,1.8036804l-0.0068817,0.0121918
		c-3.6023712,6.8537903-7.5807037,13.318924-10.8075104,20.1513977l-1.1167908,2.590683
		c-0.382309,0.8604736-0.7426453,1.7274933-1.0446625,2.6120453l-0.9641571,2.635849l-0.7940826,2.6751404
		c-0.9876251,3.5723114-1.7263641,7.2168274-1.8055725,10.8487244c-0.3868866,7.2653198,1.756424,14.4179688,6.2041779,20.0681152
		c0.275116,0.3540649,0.5055389,0.7402954,0.8157196,1.0693359l0.9250641,0.9909363
		c0.6282349,0.6503296,1.2012634,1.3487549,1.8696747,1.964386l2.0681458,1.791687
		c0.3490143,0.2940674,0.6765747,0.6107178,1.0423737,0.8871765l1.1283875,0.7965698l2.2529297,1.5977173
		c0.764267,0.5158691,1.5958405,0.9465027,2.3895111,1.4250793c0.806076,0.4620056,1.5964355,0.9477234,2.4139862,1.3924561
		l2.5309448,1.21521c6.7677612,3.2181091,14.0504303,5.4783325,21.4407654,7.2922668
		c3.7344971,0.7871094,7.445282,1.6637878,11.2362061,2.2316284c1.8907166,0.297821,3.7620697,0.687561,5.6683655,0.9108887
		l5.7038879,0.7400208c15.2367859,1.8562012,30.6676025,2.405426,46.0860138,2.4109497
		c15.4221802-0.0110474,30.8600769-0.4761658,46.1264038-2.1877441c3.8062134-0.4779053,7.6313477-0.8623657,11.4017639-1.5220947
		c1.8868713-0.3172302,3.7928162-0.5575256,5.6644592-0.9373169l5.6189575-1.1242981
		c7.4398804-1.6581726,14.7931213-3.715271,21.7130432-6.6621094c6.8930054-2.9415588,13.3813477-6.8459473,18.3291626-12.1242676
		c2.3595276-2.7166748,4.3172302-5.7203369,5.6592712-9.0059204c1.2584229-3.3175964,1.846405-6.8663025,1.9006958-10.464447
		c0.0429993-7.2418823-2.2320557-14.5018311-5.2903137-21.3392944c-3.2050171-6.8263397-7.1902466-13.2852783-10.8499146-20.1037903
		l-0.006012-0.0111237c-0.392334-0.7311249-0.1177673-1.6419525,0.6133423-2.034317
		c0.6155701-0.3303986,1.3591614-0.1867981,1.8128662,0.3029022c5.3557434,5.7830963,9.5987549,12.5397949,12.963562,19.7642975
		c3.2618713,7.247818,5.8276672,15.1052551,5.8236694,23.4451294c-0.0417786,4.1423035-0.7161255,8.3395386-2.207489,12.288147
		c-1.5715637,3.9168701-3.8776855,7.4711609-6.6035156,10.6099243c-0.1546631,0.1661682-0.3213806,0.3163757-0.4781189,0.4797974
		c42.7117004,40.0604858,81.6132813,23.2115479,92.6396179,17.0036011
		C469.0437622,295.2891846,481.0387268,275.9708252,477.6318665,261.2237549z M264.6742859,280.2368469
		c-2.301239,1.1843262-5.1903687,1.374176-8.3572388,0.555481c-1.5278931-0.3969421-2.9538574-0.9642944-4.3328857-1.5133057
		c-0.7868652-0.3128052-1.5737305-0.626709-2.3730011-0.902832c-2.2791443-0.7852478-4.1052856-0.991272-5.5830078-0.6309814
		c-1.465332,0.3591614-2.8680878,1.3277893-4.3533783,2.3535767c-1.9539337,1.3493652-4.1683807,2.8799438-6.9296875,3.1765747
		c-0.2906799,0.0312805-0.5824585,0.0463867-0.8731537,0.0463867c-3.3955383,0-6.7209625-2.0774536-8.1356049-5.1828613
		c-1.5365143-3.3707275-0.680069-7.647522,2.0364685-10.1672058c0.8947296-0.8305359,2.292099-0.7787781,3.1221161,0.1164856
		c0.8294678,0.8941956,0.7771454,2.2921143-0.1170349,3.121582c-1.34021,1.2436523-1.7792053,3.4343872-1.0214691,5.0976257
		c0.7577362,1.663269,2.6981964,2.7710266,4.5167847,2.5757751c1.6449127-0.1768799,3.221344-1.2662964,4.8905334-2.4193726
		c1.7495422-1.2080688,3.5584106-2.4582214,5.8149109-3.0093994c2.3249969-0.5684204,4.9665833-0.324646,8.0725098,0.7453308
		c0.8645172,0.2977295,1.7161102,0.6364136,2.5666046,0.9740295c1.3105469,0.5220642,2.5482635,1.0149841,3.8081207,1.3418274
		c1.462616,0.3786011,3.55896,0.6503906,5.2286682-0.2071228c1.4842224-0.7636719,2.4835815-2.5261536,2.3757019-4.192627
		c-0.1078491-1.6654358-1.3267212-3.2855225-2.8977356-3.8518066c-1.1476746-0.4142151-1.7425537-1.6794434-1.3288879-2.8271179
		c0.4131165-1.1487427,1.678894-1.7409058,2.8270874-1.3299561c3.2510071,1.1713867,5.5851746,4.2756958,5.8079224,7.7241211
		C269.6618958,275.2794495,267.747345,278.6577148,264.6742859,280.2368469z"/>
	<path class="st1" d="M187.7578735,283.0513916c-0.2966919,9.3596497-10.1266937,9.0480652-22.2525787,8.6637268
		c-12.125946-0.3843384-21.9558868-0.6959229-21.659256-10.0555725
		c0.2095184-6.6098633,10.2093506-11.6566772,22.3352966-11.2723389
		C178.3072052,270.7716064,187.967392,276.4414978,187.7578735,283.0513916z M328.4186401,270.387207
		c-12.1258545,0.3843994-21.7860413,6.0542908-21.5765381,12.6641846c0.2966309,9.3596497,10.1266479,9.0480652,22.252594,8.6637268
		c12.1258545-0.3843384,21.9558716-0.6959229,21.6592407-10.0555725
		C350.5444031,275.0496826,340.5445862,270.0028687,328.4186401,270.387207z"/>
	<path class="st2" d="M310.2000427,262.9930115c-5.5466919,0.3033752-10.3833618-5.670105-10.803009-13.3421631
		c-0.4195862-7.6720581,3.7367249-14.1374664,9.2834167-14.4408264c5.5466614-0.30336,10.3833313,5.6701202,10.8029785,13.3421783
		C319.9030457,256.2242432,315.7467041,262.6896667,310.2000427,262.9930115z M182.4410095,237.1196136
		c-5.5245667-0.5806427-10.6541443,5.1432648-11.4573212,12.7847137
		c-0.8031158,7.6413879,3.0242767,14.3067322,8.5488434,14.8873901c5.5245667,0.580719,10.6542206-5.1431885,11.4573364-12.7846527
		C191.793045,244.3656158,187.9655762,237.7002563,182.4410095,237.1196136z"/>
</g>
</svg>
