<svg width="94" height="110" viewBox="0 0 94 110" fill="none" xmlns="http://www.w3.org/2000/svg">
<g clip-path="url(#clip0_580_1263)">
<path d="M17.59 24.9289C16.68 25.6789 15.52 26.1289 14.25 26.1289C11.35 26.1289 9 23.7789 9 20.8789C9 19.3489 9.66 17.9689 10.71 17.0089C10.71 17.0089 17.13 9.51891 29.99 4.71891C42.85 -0.0810878 56.01 1.90891 56.01 1.90891C56.01 1.90891 81.15 5.35891 91.79 23.8389L91.98 24.3489C91.98 24.3489 91.66 24.6589 90.72 23.6289C89.78 22.5989 80.87 12.5389 67.19 9.15891C67.19 9.15891 38.7 -0.181087 17.77 24.7489L17.59 24.9289Z" fill="#00AECE" stroke="#00AECE" stroke-width="2" stroke-miterlimit="10"/>
<path d="M84.0894 86.9188C85.1494 86.2488 86.1594 85.7188 87.4294 85.7188C90.3294 85.7188 92.6794 88.0688 92.6794 90.9688C92.6794 92.4988 92.0194 93.8788 90.9694 94.8388C90.9694 94.8388 76.4094 109.359 53.2494 109.309C30.0894 109.259 15.2994 93.9888 15.2994 93.9888C15.2994 93.9888 5.23939 83.9288 1.49939 69.1988C-2.24061 54.4688 2.13939 41.7188 2.13939 41.7188C2.13939 41.7188 3.58939 35.8888 4.76939 36.3988C4.76939 36.3988 5.04939 36.2688 4.20939 38.8688C3.36939 41.4688 2.42939 45.0188 2.24939 50.0488C2.06939 55.0788 2.53939 62.5288 4.43939 67.9088C6.33939 73.2888 8.55939 78.5788 12.2994 83.1688C16.0394 87.7588 20.7194 93.2088 30.8894 97.5088C41.0594 101.809 49.0394 101.719 57.0294 100.839C65.0094 99.9588 69.5694 97.2388 74.8794 94.1688C80.1894 91.0988 82.8394 87.6788 84.0594 86.9088L84.0894 86.9188Z" fill="#3DE3F9"/>
<path d="M71.0595 34.619C69.7395 31.839 68.5495 30.119 67.0295 29.009C65.5095 27.899 63.3795 26.259 58.9595 25.529C54.5495 24.799 53.3095 25.119 48.9695 25.359C44.6295 25.599 37.8995 27.979 35.5695 29.529L38.4095 35.759C38.4095 35.759 42.2395 33.009 48.8595 31.999C55.4795 30.989 58.7295 32.479 58.7295 32.479C58.7295 32.479 63.9495 34.449 64.4695 40.809C64.4695 40.809 64.9095 45.979 64.6495 49.619C64.6495 49.619 58.0695 46.159 49.3895 46.639C49.3895 46.639 40.2695 46.639 34.4795 53.129C28.6895 59.619 31.5895 69.749 31.5895 69.749C31.5895 69.749 33.5195 78.339 42.7295 80.319C51.9395 82.289 59.5695 77.689 59.5695 77.689C59.5695 77.689 62.8895 75.479 64.5795 73.549V79.839H72.4395V43.149C72.4395 43.149 72.3795 37.389 71.0695 34.609L71.0595 34.619ZM64.5595 66.689C64.5595 66.689 59.1695 75.199 48.3795 74.669C37.5895 74.139 38.4295 63.359 38.4295 63.359C38.4295 63.359 38.0395 53.929 47.4195 53.099C56.7995 52.269 62.5495 54.279 64.6095 55.859L64.5695 66.689H64.5595Z" fill="#05325B"/>
</g>
<defs>
<clipPath id="clip0_580_1263">
<rect width="93.14" height="108.81" fill="white" transform="translate(0 0.5)"/>
</clipPath>
</defs>
</svg>
