<svg width="151" height="198" viewBox="0 0 151 198" fill="none" xmlns="http://www.w3.org/2000/svg">
<g clip-path="url(#clip0_580_1268)">
<path d="M28.1986 192.154H26.2986V190.184H26.2486C25.4186 191.694 24.1986 192.454 22.5886 192.454C21.4086 192.454 20.4786 192.124 19.8086 191.454C19.1386 190.784 18.8086 189.904 18.8086 188.804C18.8086 186.444 20.1186 185.074 22.7386 184.684L26.2986 184.154C26.2986 182.014 25.4786 180.934 23.8486 180.934C22.4186 180.934 21.1186 181.454 19.9686 182.484V180.414C21.1386 179.624 22.4886 179.234 24.0086 179.234C26.7986 179.234 28.1986 180.804 28.1986 183.944V192.154ZM26.2986 185.774L23.4286 186.194C22.5486 186.324 21.8786 186.554 21.4286 186.894C20.9786 187.224 20.7586 187.814 20.7586 188.664C20.7586 189.284 20.9686 189.784 21.3786 190.174C21.7886 190.564 22.3486 190.764 23.0286 190.764C23.9686 190.764 24.7486 190.414 25.3686 189.714C25.9886 189.014 26.2886 188.124 26.2886 187.044V185.784L26.2986 185.774Z" fill="#415364"/>
<path d="M31.0703 191.694V189.524C32.1103 190.334 33.2503 190.744 34.5003 190.744C36.1703 190.744 37.0103 190.154 37.0103 188.974C37.0103 188.634 36.9403 188.354 36.8003 188.114C36.6603 187.874 36.4603 187.674 36.2203 187.494C35.9803 187.314 35.6903 187.154 35.3603 187.004C35.0303 186.854 34.6803 186.714 34.3003 186.554C33.7703 186.334 33.3103 186.104 32.9103 185.884C32.5103 185.654 32.1803 185.404 31.9103 185.124C31.6403 184.844 31.4403 184.514 31.3103 184.154C31.1803 183.794 31.1103 183.374 31.1103 182.884C31.1103 182.294 31.2403 181.774 31.4903 181.314C31.7403 180.854 32.0903 180.474 32.5103 180.164C32.9403 179.854 33.4203 179.624 33.9703 179.464C34.5203 179.304 35.0803 179.234 35.6603 179.234C36.6903 179.234 37.6103 179.424 38.4203 179.804V181.854C37.5403 181.244 36.5403 180.944 35.4003 180.944C35.0403 180.944 34.7203 180.984 34.4403 181.074C34.1503 181.164 33.9103 181.284 33.7003 181.434C33.4903 181.584 33.3403 181.774 33.2203 181.994C33.1003 182.214 33.0503 182.454 33.0503 182.714C33.0503 183.044 33.1103 183.314 33.2203 183.544C33.3303 183.774 33.5003 183.964 33.7103 184.134C33.9303 184.304 34.1903 184.464 34.5003 184.604C34.8103 184.744 35.1603 184.894 35.5603 185.064C36.0903 185.274 36.5603 185.494 36.9803 185.724C37.4003 185.954 37.7503 186.204 38.0503 186.484C38.3403 186.764 38.5703 187.094 38.7303 187.464C38.8903 187.834 38.9703 188.274 38.9703 188.784C38.9703 189.404 38.8403 189.954 38.5803 190.414C38.3203 190.874 37.9703 191.254 37.5403 191.564C37.1103 191.874 36.6103 192.094 36.0403 192.244C35.4803 192.394 34.8803 192.464 34.2603 192.464C33.0403 192.464 31.9803 192.214 31.0803 191.714L31.0703 191.694Z" fill="#415364"/>
<path d="M43.8289 190.33H43.7789V197.96H41.8789V179.54H43.7789V181.76H43.8289C44.7689 180.08 46.1389 179.25 47.9389 179.25C49.4689 179.25 50.6689 179.81 51.5289 180.94C52.3889 182.07 52.8189 183.58 52.8189 185.48C52.8189 187.59 52.3389 189.28 51.3689 190.55C50.3989 191.82 49.0789 192.45 47.3989 192.45C45.8589 192.45 44.6689 191.74 43.8289 190.33ZM43.7789 185.24V187C43.7789 188.04 44.0989 188.93 44.7389 189.66C45.3789 190.39 46.1889 190.75 47.1689 190.75C48.3189 190.75 49.2289 190.28 49.8789 189.34C50.5289 188.4 50.8589 187.1 50.8589 185.43C50.8589 184.03 50.5489 182.93 49.9389 182.13C49.3289 181.33 48.4989 180.93 47.4489 180.93C46.3389 180.93 45.4489 181.34 44.7789 182.16C44.1089 182.98 43.7689 184 43.7689 185.23L43.7789 185.24Z" fill="#415364"/>
<path d="M65.4191 186.344H57.0191C57.0491 187.744 57.4091 188.834 58.0891 189.594C58.7691 190.354 59.7091 190.744 60.8991 190.744C62.2391 190.744 63.4691 190.274 64.5891 189.334V191.234C63.5491 192.044 62.1591 192.444 60.4391 192.444C58.7191 192.444 57.4391 191.874 56.4791 190.724C55.5191 189.574 55.0391 187.964 55.0391 185.884C55.0391 183.924 55.5591 182.324 56.6091 181.084C57.6591 179.844 58.9591 179.234 60.5191 179.234C62.0791 179.234 63.2791 179.764 64.1291 180.834C64.9791 181.904 65.4091 183.384 65.4091 185.284V186.344H65.4191ZM63.4691 184.634C63.4691 183.464 63.1991 182.564 62.6691 181.914C62.1491 181.264 61.4191 180.944 60.4891 180.944C59.5591 180.944 58.8291 181.284 58.1991 181.964C57.5691 182.644 57.1891 183.534 57.0391 184.634H63.4591H63.4691Z" fill="#415364"/>
<path d="M70.2086 192.157H68.3086V173.477H70.2086V192.157Z" fill="#415364"/>
<path d="M77.7617 192.692C77.7617 192.622 77.8017 192.482 77.8817 192.262L84.9017 174.992C85.0217 174.692 85.1717 174.492 85.3317 174.392C85.5017 174.292 85.7517 174.242 86.1017 174.242H88.0817C88.4317 174.242 88.6917 174.292 88.8717 174.392C89.0417 174.492 89.2017 174.682 89.3217 174.962L96.3017 192.252C96.3617 192.412 96.3917 192.552 96.3917 192.682C96.3917 192.982 96.1317 193.132 95.6217 193.132H93.7717C93.2117 193.132 92.8217 193.082 92.5817 192.972C92.3417 192.862 92.1817 192.652 92.1017 192.332L90.8617 188.962H83.1617L81.9217 192.332C81.8217 192.652 81.6517 192.862 81.4317 192.972C81.2017 193.082 80.8217 193.132 80.2917 193.132H78.5317C78.0117 193.132 77.7617 192.982 77.7617 192.682V192.692ZM89.8117 186.152L87.8617 180.602C87.4517 179.342 87.2017 178.322 87.1217 177.522H86.9417C86.8017 178.512 86.5617 179.542 86.2317 180.602L84.2517 186.152H89.8117Z" fill="#00567D"/>
<path d="M99.4734 192.955C99.3434 192.825 99.2734 192.585 99.2734 192.255V175.205C99.2734 174.865 99.3434 174.635 99.4734 174.505C99.6034 174.375 99.8634 174.305 100.233 174.305H106.693C109.333 174.305 111.373 174.925 112.813 176.165C114.253 177.405 114.973 179.125 114.973 181.315V186.145C114.973 188.345 114.253 190.055 112.813 191.295C111.373 192.535 109.333 193.155 106.693 193.155H100.233C99.8634 193.155 99.6134 193.085 99.4734 192.955ZM106.783 190.045C108.203 190.045 109.283 189.715 110.013 189.065C110.743 188.415 111.113 187.445 111.113 186.165V181.275C111.113 180.005 110.743 179.035 110.013 178.375C109.283 177.725 108.203 177.395 106.783 177.395H103.133V190.035H106.783V190.045Z" fill="#00567D"/>
<path d="M119.29 192.955C119.15 192.825 119.07 192.585 119.07 192.255V175.205C119.07 174.865 119.14 174.635 119.29 174.505C119.43 174.375 119.69 174.305 120.06 174.305H121.7C122.11 174.305 122.42 174.345 122.61 174.435C122.81 174.525 122.98 174.715 123.12 174.995L128.81 185.195L134.5 175.025C134.67 174.725 134.83 174.525 134.98 174.445C135.13 174.355 135.41 174.315 135.8 174.315H137.59C137.98 174.315 138.25 174.385 138.39 174.515C138.53 174.645 138.61 174.885 138.61 175.215V192.265C138.61 192.605 138.54 192.835 138.39 192.965C138.25 193.095 137.98 193.165 137.59 193.165H135.89C135.52 193.165 135.26 193.095 135.12 192.965C134.98 192.835 134.9 192.595 134.9 192.265V184.165C134.9 182.465 135.1 180.705 135.49 178.875H135.3C134.66 180.645 133.93 182.255 133.11 183.705L130.51 188.225C130.37 188.475 130.22 188.645 130.06 188.745C129.9 188.845 129.68 188.895 129.4 188.895H128.19C127.88 188.895 127.65 188.855 127.51 188.765C127.37 188.675 127.22 188.495 127.08 188.235L124.39 183.715C123.94 182.955 123.56 182.215 123.26 181.495C122.96 180.775 122.65 179.895 122.32 178.855H122.1C122.51 180.785 122.72 182.565 122.72 184.195V192.275C122.72 192.615 122.65 192.845 122.5 192.975C122.36 193.105 122.1 193.175 121.73 193.175H120.06C119.69 193.175 119.43 193.105 119.29 192.975V192.955Z" fill="#00567D"/>
<path d="M75.06 150.62C33.67 150.62 0 116.95 0 75.56C0 34.17 33.67 0.5 75.06 0.5C116.45 0.5 150.12 34.17 150.12 75.56C150.12 116.95 116.45 150.62 75.06 150.62ZM75.06 11.64C39.82 11.64 11.14 40.31 11.14 75.56C11.14 110.81 39.81 139.48 75.06 139.48C110.31 139.48 138.98 110.81 138.98 75.56C138.98 40.31 110.3 11.64 75.06 11.64Z" fill="#00567D"/>
<path d="M86.3503 60.2366C85.4503 60.2366 84.7003 59.5366 84.6403 58.6366C84.5803 57.6966 85.2903 56.8766 86.2403 56.8166C90.4503 56.5366 93.4403 54.9666 95.1103 52.1366C96.3003 50.1166 96.6003 47.5066 95.9303 44.9666C94.0003 37.6466 86.8903 37.8466 86.5803 37.8666C85.8803 37.8866 85.1703 37.4566 84.9103 36.7766C82.8503 31.4366 77.0103 30.0866 76.2303 29.9266C65.4703 29.4866 64.6103 38.9766 64.5503 40.0666C64.5003 40.9166 63.8403 41.6066 62.9903 41.6866C54.6703 42.4466 54.9103 47.7366 54.9203 47.9666C55.0103 50.9766 55.8503 53.2166 57.4203 54.6966C59.7203 56.8466 62.9303 56.7566 62.9603 56.7466C63.8803 56.7166 64.7003 57.4466 64.7403 58.3866C64.7803 59.3266 64.0603 60.1266 63.1103 60.1766C62.9203 60.1766 58.4803 60.3566 55.1103 57.2366C52.8203 55.1166 51.6003 52.0466 51.4903 48.1266C51.4903 48.0966 51.1003 40.0566 61.2703 38.4466C62.0803 33.4266 65.9903 26.0266 76.5003 26.5066C76.5703 26.5066 76.6303 26.5166 76.7003 26.5266C77.0303 26.5766 84.4003 27.8566 87.6303 34.4666C91.3803 34.7466 97.3503 36.9566 99.2403 44.0966C100.16 47.5666 99.7403 51.0466 98.0603 53.8866C96.4903 56.5466 93.2103 59.7966 86.4603 60.2466C86.4203 60.2466 86.3803 60.2466 86.3503 60.2466V60.2366Z" fill="#A2A9AD"/>
<path d="M70.56 52.3894C72.53 52.4194 77.16 52.3794 79.12 52.3594C79.62 52.3594 80.02 52.7494 80.02 53.2494V61.5894C80.02 62.0794 80.42 62.4794 80.91 62.4794H83.77C84.56 62.4794 84.96 63.4394 84.4 63.9994L75.3 73.0994C74.95 73.4494 74.39 73.4494 74.04 73.0994L65.32 64.3794C64.76 63.8194 65.16 62.8594 65.95 62.8594H68.79C69.28 62.8594 69.68 62.4594 69.68 61.9694L69.66 53.2894C69.66 52.7894 70.06 52.3894 70.56 52.3994V52.3894Z" fill="#00567D"/>
<path d="M69.4498 86.2809C69.3198 86.2809 69.1898 86.2609 69.0498 86.2309L33.4298 77.7809C32.6498 77.5909 32.0898 76.8909 32.0898 76.0909V57.2009C32.0898 56.2409 32.8698 55.4609 33.8298 55.4609H50.2098C50.9698 55.4609 51.7098 55.9109 51.9298 56.6309C52.2898 57.8109 51.4198 58.8909 50.2998 58.8909H35.5398C35.5398 58.8909 35.5098 58.9009 35.5098 58.9209V74.7409C35.5098 74.7409 35.5098 74.7609 35.5298 74.7609L69.7098 82.8609C70.6098 83.0709 71.2798 83.9209 71.1298 84.8309C70.9898 85.6809 70.2498 86.2709 69.4398 86.2709L69.4498 86.2809Z" fill="#00567D"/>
<path d="M81.6185 86.3625C80.8485 86.3625 80.1585 85.8425 79.9585 85.0725C79.7285 84.1525 80.2785 83.2225 81.1985 82.9925L115.319 74.3125C115.319 74.3125 115.339 74.3025 115.339 74.2925V58.5225C115.339 58.5225 115.329 58.4925 115.309 58.4925H102.099C101.339 58.4925 100.599 58.0425 100.379 57.3225C100.019 56.1425 100.889 55.0625 102.009 55.0625H117.029C117.989 55.0625 118.769 55.8425 118.769 56.8025V75.6225C118.769 76.4225 118.229 77.1125 117.459 77.3125L82.0485 86.3225C81.9085 86.3625 81.7685 86.3725 81.6285 86.3725L81.6185 86.3625Z" fill="#00567D"/>
<path d="M79.5305 94.5297H71.2805C69.3205 94.5297 67.7305 92.9397 67.7305 90.9797V82.7297C67.7305 80.7697 69.3205 79.1797 71.2805 79.1797H79.5305C81.4905 79.1797 83.0805 80.7697 83.0805 82.7297V90.9797C83.0805 92.9397 81.4905 94.5297 79.5305 94.5297ZM71.2805 82.6197C71.2105 82.6197 71.1605 82.6697 71.1605 82.7397V90.9897C71.1605 91.0597 71.2105 91.1097 71.2805 91.1097H79.5305C79.6005 91.1097 79.6505 91.0597 79.6505 90.9897V82.7397C79.6505 82.6697 79.6005 82.6197 79.5305 82.6197H71.2805Z" fill="#00567D"/>
<path d="M115.42 116.319H35.8298C34.8698 116.319 34.0898 115.539 34.0898 114.579V84.3493C34.0898 83.5893 34.5398 82.8493 35.2598 82.6293C36.4398 82.2693 37.5198 83.1393 37.5198 84.2593V112.859C37.5198 112.859 37.5298 112.889 37.5498 112.889H113.72C113.72 112.889 113.75 112.879 113.75 112.859V84.4193C113.75 83.6593 114.2 82.9193 114.92 82.6993C116.1 82.3393 117.18 83.2093 117.18 84.3293V114.569C117.18 115.529 116.4 116.309 115.44 116.309L115.42 116.319Z" fill="#00567D"/>
</g>
<defs>
<clipPath id="clip0_580_1268">
<rect width="150.12" height="197.46" fill="white" transform="translate(0 0.5)"/>
</clipPath>
</defs>
</svg>
