<svg width="133" height="95" viewBox="0 0 133 95" fill="none" xmlns="http://www.w3.org/2000/svg">
<g clip-path="url(#clip0_580_1364)">
<path d="M32.0586 52.7812V75.7712H55.5386V52.7812H32.0586ZM52.0986 62.5913H45.5186V56.2213H52.0986V62.5913ZM42.0786 56.2213V62.5913H35.4986V56.2213H42.0786ZM35.4986 66.0312H42.0786V72.3412H35.4986V66.0312ZM45.5186 72.3412V66.0312H52.0986V72.3412H45.5186Z" fill="#05325B"/>
<path d="M66.0786 73.317C65.8286 73.317 65.5786 73.267 65.3386 73.147C64.4786 72.737 64.1186 71.717 64.5286 70.857C64.6386 70.627 75.9286 47.517 100.429 50.747C101.369 50.867 102.029 51.737 101.909 52.677C101.789 53.617 100.929 54.277 99.9786 54.157C77.9986 51.257 68.0486 71.477 67.6286 72.337C67.3386 72.957 66.7186 73.317 66.0786 73.317Z" fill="#3DE3F9"/>
<path d="M74.2114 77.1424C73.9814 77.1424 73.7514 77.0924 73.5214 76.9924C72.6514 76.6124 72.2614 75.6024 72.6414 74.7324C72.7114 74.5724 79.8014 58.8524 99.4514 59.5624C100.401 59.5924 101.141 60.3924 101.111 61.3424C101.081 62.2924 100.241 63.0424 99.3314 63.0024C82.1014 62.4024 76.0414 75.5524 75.7914 76.1124C75.5114 76.7524 74.8714 77.1424 74.2114 77.1424Z" fill="#05325B"/>
<path d="M83.1404 80.8982C82.8704 80.8982 82.6004 80.8382 82.3504 80.7082C81.5104 80.2682 81.1804 79.2382 81.6104 78.3982C81.8204 77.9882 86.8904 68.4282 98.7604 69.2182C99.7104 69.2782 100.42 70.0982 100.36 71.0482C100.3 71.9982 99.4604 72.7082 98.5304 72.6482C88.9604 72.0282 84.8304 79.6582 84.6604 79.9782C84.3504 80.5682 83.7504 80.8982 83.1304 80.8982H83.1404Z" fill="#3DE3F9"/>
<path d="M95.1409 86.8288C92.5609 86.8288 90.4609 84.7288 90.4609 82.1488C90.4609 79.5688 92.5609 77.4688 95.1409 77.4688C97.7209 77.4688 99.8209 79.5688 99.8209 82.1488C99.8209 84.7288 97.7209 86.8288 95.1409 86.8288ZM95.1409 80.8988C94.4509 80.8988 93.9009 81.4587 93.9009 82.1387C93.9009 82.8187 94.4609 83.3787 95.1409 83.3787C95.8209 83.3787 96.3809 82.8187 96.3809 82.1387C96.3809 81.4587 95.8209 80.8988 95.1409 80.8988Z" fill="#05325B"/>
<path d="M127.65 37.5C125.07 37.5 122.97 39.6 122.97 42.18C122.97 42.39 123.01 42.59 123.03 42.79L116.58 46.35H109.36V37.59H125.9L65.77 0L5.76 37.51C5.41 37.43 5.06 37.37 4.68 37.37C2.1 37.37 0 39.47 0 42.05C0 44.63 2.1 46.73 4.68 46.73C5.72 46.73 6.68 46.38 7.46 45.8L15.1 49.92H22.8V58.25H16.85C16.11 56.63 14.49 55.49 12.59 55.49C10.01 55.49 7.91 57.59 7.91 60.17C7.91 62.75 10.01 64.85 12.59 64.85C14.64 64.85 16.37 63.52 17 61.68H22.8V70.42H14.68L11.59 75.18C11.27 75.11 10.95 75.07 10.61 75.07C8.03 75.07 5.93 77.17 5.93 79.75C5.93 82.33 8.03 84.43 10.61 84.43C13.19 84.43 15.29 82.33 15.29 79.75C15.29 78.76 14.98 77.84 14.45 77.08L16.55 73.85H22.8V94.45H109.36V73.3H115.99L118.03 76.67C117.42 77.46 117.04 78.44 117.04 79.51C117.04 82.09 119.14 84.19 121.72 84.19C124.3 84.19 126.4 82.09 126.4 79.51C126.4 76.93 124.3 74.83 121.72 74.83C121.47 74.83 121.22 74.87 120.98 74.9L117.93 69.86H109.36V61.16H115.44C116.02 63.08 117.79 64.49 119.9 64.49C122.48 64.49 124.58 62.39 124.58 59.81C124.58 57.23 122.48 55.13 119.9 55.13C118.07 55.13 116.5 56.19 115.73 57.72H109.36V49.76H117.46L124.7 45.77C125.51 46.43 126.52 46.84 127.64 46.84C130.22 46.84 132.32 44.74 132.32 42.16C132.32 39.58 130.22 37.48 127.64 37.48L127.65 37.5ZM12.59 61.42C11.9 61.42 11.35 60.86 11.35 60.18C11.35 59.5 11.91 58.94 12.59 58.94C13.27 58.94 13.83 59.5 13.83 60.18C13.83 60.86 13.27 61.42 12.59 61.42ZM10.61 81.02C9.92 81.02 9.37 80.46 9.37 79.78C9.37 79.1 9.93 78.54 10.61 78.54C11.29 78.54 11.85 79.1 11.85 79.78C11.85 80.46 11.29 81.02 10.61 81.02ZM122.97 79.53C122.97 80.22 122.41 80.77 121.73 80.77C121.05 80.77 120.49 80.21 120.49 79.53C120.49 78.85 121.05 78.29 121.73 78.29C122.41 78.29 122.97 78.85 122.97 79.53ZM119.91 58.59C120.6 58.59 121.15 59.15 121.15 59.83C121.15 60.51 120.59 61.07 119.91 61.07C119.23 61.07 118.67 60.51 118.67 59.83C118.67 59.15 119.23 58.59 119.91 58.59ZM65.77 4.06L113.91 34.15H17.63L65.77 4.06ZM4.68 43.3C3.99 43.3 3.44 42.74 3.44 42.06C3.44 41.38 4 40.82 4.68 40.82C5.36 40.82 5.92 41.38 5.92 42.06C5.92 42.74 5.36 43.3 4.68 43.3ZM15.96 46.49L9.28 42.88C9.33 42.61 9.36 42.34 9.36 42.06C9.36 39.94 7.93 38.16 5.99 37.59H22.8V46.49H15.96ZM105.92 91.03H26.24V37.58H105.92V91.03ZM127.64 43.42C126.95 43.42 126.4 42.86 126.4 42.18C126.4 41.5 126.96 40.94 127.64 40.94C128.32 40.94 128.88 41.5 128.88 42.18C128.88 42.86 128.32 43.42 127.64 43.42Z" fill="#00AECE"/>
</g>
<defs>
<clipPath id="clip0_580_1364">
<rect width="132.33" height="94.47" fill="white"/>
</clipPath>
</defs>
</svg>
