<svg width="123" height="123" viewBox="0 0 123 123" fill="none" xmlns="http://www.w3.org/2000/svg">
<g clip-path="url(#clip0_580_2164)">
<path d="M71.1684 110.059H5.43844C4.72844 110.059 4.14844 109.479 4.14844 108.769V66.1894C4.14844 61.3194 8.10844 57.3594 12.9784 57.3594H64.0784C68.6984 57.3594 72.4584 61.1194 72.4584 65.7394V108.769C72.4584 109.479 71.8784 110.059 71.1684 110.059ZM6.71844 107.479H69.8784V65.7394C69.8784 62.5394 67.2784 59.9394 64.0784 59.9394H12.9784C9.52844 59.9394 6.71844 62.7494 6.71844 66.1994V107.489V107.479Z" fill="#00AECE"/>
<path d="M66.23 121.796H10.1C4.53 121.796 0 117.266 0 111.696V108.446C0 107.736 0.58 107.156 1.29 107.156H75.41C76.12 107.156 76.7 107.736 76.7 108.446V111.336C76.7 117.106 72 121.806 66.23 121.806V121.796ZM2.58 109.726V111.696C2.58 115.846 5.96 119.216 10.1 119.216H66.23C70.58 119.216 74.12 115.676 74.12 111.326V109.726H2.58Z" fill="#00AECE"/>
<path d="M43.8414 118.086H32.4214C30.2314 118.086 28.4414 116.296 28.4414 114.106V113.886C28.4414 111.686 30.2314 109.906 32.4214 109.906H43.8414C46.0414 109.906 47.8214 111.696 47.8214 113.886V114.106C47.8214 116.306 46.0314 118.086 43.8414 118.086ZM32.4214 112.486C31.6514 112.486 31.0214 113.116 31.0214 113.896V114.116C31.0214 114.886 31.6514 115.526 32.4214 115.526H43.8414C44.6214 115.526 45.2514 114.896 45.2514 114.116V113.896C45.2514 113.126 44.6214 112.486 43.8414 112.486H32.4214Z" fill="#3DE3F9"/>
<path d="M59.1709 101.471H17.8809C14.8909 101.471 12.4609 99.0413 12.4609 96.0513V71.4512C12.4609 68.4612 14.8909 66.0312 17.8809 66.0312H59.1809C62.1709 66.0312 64.6009 68.4612 64.6009 71.4512V96.0513C64.6009 99.0413 62.1709 101.471 59.1809 101.471H59.1709ZM17.8709 68.6113C16.3009 68.6113 15.0309 69.8912 15.0309 71.4512V96.0513C15.0309 97.6213 16.3109 98.8913 17.8709 98.8913H59.1709C60.7409 98.8913 62.0109 97.6113 62.0109 96.0513V71.4512C62.0109 69.8812 60.7309 68.6113 59.1709 68.6113H17.8809H17.8709Z" fill="#3DE3F9"/>
<path d="M20.1905 77.8106C21.411 77.8106 22.4005 76.8212 22.4005 75.6006C22.4005 74.3801 21.411 73.3906 20.1905 73.3906C18.9699 73.3906 17.9805 74.3801 17.9805 75.6006C17.9805 76.8212 18.9699 77.8106 20.1905 77.8106Z" fill="#00AECE"/>
<path d="M20.1905 86.2169C21.411 86.2169 22.4005 85.2274 22.4005 84.0069C22.4005 82.7863 21.411 81.7969 20.1905 81.7969C18.9699 81.7969 17.9805 82.7863 17.9805 84.0069C17.9805 85.2274 18.9699 86.2169 20.1905 86.2169Z" fill="#05325B"/>
<path d="M20.1905 94.5528C21.411 94.5528 22.4005 93.5634 22.4005 92.3428C22.4005 91.1223 21.411 90.1328 20.1905 90.1328C18.9699 90.1328 17.9805 91.1223 17.9805 92.3428C17.9805 93.5634 18.9699 94.5528 20.1905 94.5528Z" fill="#00AECE"/>
<path d="M47.9412 73.8984H34.6413C33.7521 73.8984 33.0312 74.6193 33.0312 75.5084V75.8784C33.0312 76.7676 33.7521 77.4884 34.6413 77.4884H47.9412C48.8304 77.4884 49.5513 76.7676 49.5513 75.8784V75.5084C49.5513 74.6193 48.8304 73.8984 47.9412 73.8984Z" fill="#00AECE"/>
<path d="M113.371 77.9922H100.501C99.6114 77.9922 98.8906 78.713 98.8906 79.6022V79.9722C98.8906 80.8614 99.6114 81.5822 100.501 81.5822H113.371C114.26 81.5822 114.981 80.8614 114.981 79.9722V79.6022C114.981 78.713 114.26 77.9922 113.371 77.9922Z" fill="#05325B"/>
<path d="M94.5492 77.9922H92.3092C91.42 77.9922 90.6992 78.713 90.6992 79.6022V79.9722C90.6992 80.8614 91.42 81.5822 92.3092 81.5822H94.5492C95.4384 81.5822 96.1592 80.8614 96.1592 79.9722V79.6022C96.1592 78.713 95.4384 77.9922 94.5492 77.9922Z" fill="#05325B"/>
<path d="M113.371 86.25H100.501C99.6114 86.25 98.8906 86.9708 98.8906 87.86V88.23C98.8906 89.1192 99.6114 89.84 100.501 89.84H113.371C114.26 89.84 114.981 89.1192 114.981 88.23V87.86C114.981 86.9708 114.26 86.25 113.371 86.25Z" fill="#00AECE"/>
<path d="M94.5492 86.25H92.3092C91.42 86.25 90.6992 86.9708 90.6992 87.86V88.23C90.6992 89.1192 91.42 89.84 92.3092 89.84H94.5492C95.4384 89.84 96.1592 89.1192 96.1592 88.23V87.86C96.1592 86.9708 95.4384 86.25 94.5492 86.25Z" fill="#00AECE"/>
<path d="M113.371 94.5781H100.501C99.6114 94.5781 98.8906 95.2989 98.8906 96.1881V96.5581C98.8906 97.4473 99.6114 98.1681 100.501 98.1681H113.371C114.26 98.1681 114.981 97.4473 114.981 96.5581V96.1881C114.981 95.2989 114.26 94.5781 113.371 94.5781Z" fill="#05325B"/>
<path d="M94.5492 94.5781H92.3092C91.42 94.5781 90.6992 95.2989 90.6992 96.1881V96.5581C90.6992 97.4473 91.42 98.1681 92.3092 98.1681H94.5492C95.4384 98.1681 96.1592 97.4473 96.1592 96.5581V96.1881C96.1592 95.2989 95.4384 94.5781 94.5492 94.5781Z" fill="#05325B"/>
<path d="M47.9412 81.9375H34.6413C33.7521 81.9375 33.0312 82.6583 33.0312 83.5475V83.9175C33.0312 84.8067 33.7521 85.5275 34.6413 85.5275H47.9412C48.8304 85.5275 49.5513 84.8067 49.5513 83.9175V83.5475C49.5513 82.6583 48.8304 81.9375 47.9412 81.9375Z" fill="#05325B"/>
<path d="M47.9412 90.2734H34.6413C33.7521 90.2734 33.0312 90.9943 33.0312 91.8834V92.2534C33.0312 93.1426 33.7521 93.8634 34.6413 93.8634H47.9412C48.8304 93.8634 49.5513 93.1426 49.5513 92.2534V91.8834C49.5513 90.9943 48.8304 90.2734 47.9412 90.2734Z" fill="#00AECE"/>
<path d="M115.988 122.588H89.2481C85.5681 122.588 82.5781 119.598 82.5781 115.928V64.4178C82.5781 60.7478 85.5681 57.7578 89.2481 57.7578H115.988C119.668 57.7578 122.658 60.7478 122.658 64.4178V115.928C122.658 119.598 119.668 122.588 115.988 122.588ZM89.2481 60.3178C86.9981 60.3178 85.1581 62.1478 85.1581 64.4078V115.918C85.1581 118.168 86.9881 120.008 89.2481 120.008H115.988C118.238 120.008 120.078 118.178 120.078 115.918V64.4078C120.078 62.1578 118.248 60.3178 115.988 60.3178H89.2481Z" fill="#00AECE"/>
<path d="M121.26 110.313H83.7705C83.0605 110.313 82.4805 109.733 82.4805 109.023V71.3134C82.4805 70.6034 83.0605 70.0234 83.7705 70.0234H121.26C121.97 70.0234 122.55 70.6034 122.55 71.3134V109.023C122.55 109.733 121.97 110.313 121.26 110.313ZM85.0605 107.733H119.98V72.6034H85.0605V107.733Z" fill="#3DE3F9"/>
<path d="M101.982 60.4634C101.272 60.4634 100.692 59.8834 100.692 59.1734V28.8634C100.692 28.3034 100.242 27.8534 99.6817 27.8534H20.1017C19.5417 27.8534 19.0917 28.3034 19.0917 28.8634V58.8834C19.0917 59.5934 18.5117 60.1734 17.8017 60.1734C17.0917 60.1734 16.5117 59.5934 16.5117 58.8834V28.8634C16.5117 26.8834 18.1217 25.2734 20.1017 25.2734H99.6817C101.662 25.2734 103.272 26.8834 103.272 28.8634V59.1734C103.272 59.8834 102.692 60.4634 101.982 60.4634Z" fill="#00AECE"/>
<path d="M61.7589 49.5491C75.0855 49.5491 85.8889 38.7457 85.8889 25.4191C85.8889 12.0924 75.0855 1.28906 61.7589 1.28906C48.4323 1.28906 37.6289 12.0924 37.6289 25.4191C37.6289 38.7457 48.4323 49.5491 61.7589 49.5491Z" fill="white"/>
<path d="M61.7598 50.84C47.7398 50.84 36.3398 39.44 36.3398 25.42C36.3398 11.4 47.7398 0 61.7598 0C75.7798 0 87.1798 11.4 87.1798 25.42C87.1798 39.44 75.7798 50.84 61.7598 50.84ZM61.7598 2.58C49.1598 2.58 38.9198 12.83 38.9198 25.42C38.9198 38.01 49.1698 48.26 61.7598 48.26C74.3498 48.26 84.5998 38.01 84.5998 25.42C84.5998 12.83 74.3598 2.58 61.7598 2.58Z" fill="#00AECE"/>
<path d="M57.9611 43.3022C57.2511 43.3022 56.6811 42.7322 56.6711 42.0222L56.6511 38.8422L54.4111 41.1022C53.9111 41.6022 53.0911 41.6122 52.5911 41.1022L46.8911 35.4522C46.3811 34.9522 46.3811 34.1322 46.8911 33.6322L49.1311 31.3722L45.9511 31.3922C45.2411 31.3922 44.6711 30.8222 44.6611 30.1122L44.6211 22.0822C44.6211 21.7422 44.7511 21.4122 44.9911 21.1722C45.2311 20.9322 45.5611 20.7922 45.9011 20.7922L49.0811 20.7722L46.8211 18.5422C46.3111 18.0422 46.3111 17.2222 46.8211 16.7222L52.4711 11.0222C52.7111 10.7822 53.0411 10.6422 53.3811 10.6422C53.7211 10.6822 54.0511 10.7722 54.2911 11.0122L56.5511 13.2522L56.5311 10.0722C56.5311 9.36219 57.1011 8.78219 57.8111 8.78219L65.8411 8.74219C66.1811 8.74219 66.5011 8.87219 66.7511 9.11219C66.9911 9.35219 67.1311 9.68219 67.1311 10.0222L67.1511 13.2022L69.3911 10.9422C69.8911 10.4422 70.7111 10.4322 71.2111 10.9422L76.9111 16.5922C77.4211 17.0922 77.4211 17.9122 76.9111 18.4122L74.6711 20.6722L77.8511 20.6522C78.1911 20.6522 78.5111 20.7822 78.7611 21.0222C79.0011 21.2622 79.1411 21.5922 79.1411 21.9322L79.1811 29.9622C79.1811 30.3022 79.0511 30.6322 78.8111 30.8722C78.5711 31.1122 78.2411 31.2522 77.9011 31.2522L74.7211 31.2722L76.9811 33.5022C77.2211 33.7422 77.3611 34.0722 77.3611 34.4122C77.3611 34.7522 77.2311 35.0822 76.9911 35.3222L71.3411 41.0222C70.8411 41.5222 70.0211 41.5322 69.5211 41.0222L67.2611 38.7822L67.2811 41.9622C67.2811 42.3022 67.1511 42.6322 66.9111 42.8722C66.6711 43.1122 66.3411 43.2522 66.0011 43.2522L57.9711 43.2922L57.9611 43.3022ZM57.9311 34.4422C58.0911 34.4422 58.2611 34.4722 58.4211 34.5422C58.9011 34.7422 59.2211 35.2022 59.2211 35.7322L59.2511 40.7322L64.7011 40.7022L64.6711 35.7022C64.6711 35.1822 64.9811 34.7122 65.4611 34.5122C65.9411 34.3122 66.5011 34.4222 66.8611 34.7822L70.4111 38.3022L74.2511 34.4322L70.7011 30.9122C70.3311 30.5422 70.2211 29.9922 70.4111 29.5122C70.6011 29.0322 71.0711 28.7122 71.6011 28.7122L76.6011 28.6822L76.5711 23.2322L71.5711 23.2622C71.0511 23.2622 70.5811 22.9522 70.3811 22.4722C70.1811 21.9922 70.2911 21.4322 70.6511 21.0722L74.1711 17.5222L70.3011 13.6922L66.7811 17.2422C66.4111 17.6122 65.8611 17.7222 65.3811 17.5322C64.9011 17.3322 64.5811 16.8722 64.5811 16.3422L64.5611 11.3422L59.1111 11.3722L59.1311 16.3722C59.1311 16.8922 58.8211 17.3622 58.3411 17.5622C57.8611 17.7622 57.3111 17.6622 56.9411 17.2922L53.3911 13.7722L49.5511 17.6422L53.1011 21.1622C53.4711 21.5322 53.5811 22.0822 53.3911 22.5622C53.1911 23.0422 52.7311 23.3622 52.2011 23.3622L47.2011 23.3922L47.2311 28.8422L52.2311 28.8122C52.7511 28.8122 53.2211 29.1222 53.4211 29.6022C53.6211 30.0822 53.5111 30.6422 53.1511 31.0022L49.6311 34.5522L53.5011 38.3822L57.0211 34.8322C57.2711 34.5822 57.6011 34.4522 57.9411 34.4522L57.9311 34.4422Z" fill="#3DE3F9"/>
<path d="M61.8289 30.3297C59.2389 30.3297 57.1289 28.2197 57.1289 25.6297C57.1289 23.0397 59.2389 20.9297 61.8289 20.9297C64.4189 20.9297 66.5289 23.0397 66.5289 25.6297C66.5289 28.2197 64.4189 30.3297 61.8289 30.3297ZM61.8289 23.5097C60.6589 23.5097 59.7089 24.4597 59.7089 25.6297C59.7089 26.7997 60.6589 27.7497 61.8289 27.7497C62.9989 27.7497 63.9489 26.7997 63.9489 25.6297C63.9489 24.4597 62.9989 23.5097 61.8289 23.5097Z" fill="#05325B"/>
<path d="M105.08 63.5625H100.46C99.5546 63.5625 98.8203 64.2967 98.8203 65.2025V65.5825C98.8203 66.4882 99.5546 67.2225 100.46 67.2225H105.08C105.986 67.2225 106.72 66.4882 106.72 65.5825V65.2025C106.72 64.2967 105.986 63.5625 105.08 63.5625Z" fill="#3DE3F9"/>
<path d="M105.08 99.6484H100.46C99.5546 99.6484 98.8203 100.383 98.8203 101.288V101.668C98.8203 102.574 99.5546 103.308 100.46 103.308H105.08C105.986 103.308 106.72 102.574 106.72 101.668V101.288C106.72 100.383 105.986 99.6484 105.08 99.6484Z" fill="#00AECE"/>
<path d="M105.08 112.789H100.46C99.5546 112.789 98.8203 113.523 98.8203 114.429V114.809C98.8203 115.715 99.5546 116.449 100.46 116.449H105.08C105.986 116.449 106.72 115.715 106.72 114.809V114.429C106.72 113.523 105.986 112.789 105.08 112.789Z" fill="#3DE3F9"/>
</g>
<defs>
<clipPath id="clip0_580_2164">
<rect width="122.66" height="122.59" fill="white"/>
</clipPath>
</defs>
</svg>
