<svg width="143" height="86" viewBox="0 0 143 86" fill="none" xmlns="http://www.w3.org/2000/svg">
<g clip-path="url(#clip0_580_2346)">
<path d="M140.318 55.03C140.318 39.25 127.528 26.45 111.738 26.45C110.668 26.45 109.608 26.51 108.568 26.63C106.648 12.71 94.7083 2 80.2683 2C68.8483 2 58.9983 8.7 54.4183 18.38C51.4483 16.88 48.0883 16.03 44.5283 16.03C32.4083 16.03 22.5883 25.85 22.5883 37.97C22.5883 38.68 22.6283 39.39 22.6883 40.08C11.3883 40.97 2.48828 50.42 2.48828 61.95C2.48828 74.07 12.3083 83.89 24.4283 83.89C25.6883 83.89 26.9183 83.82 28.1283 83.89L110.378 83.57C110.828 83.59 111.278 83.6 111.728 83.6C112.148 83.6 112.568 83.59 112.978 83.57H113.038C128.208 82.88 140.308 70.37 140.308 55.02L140.318 55.03Z" fill="white" stroke="#00AECE" stroke-width="4" stroke-miterlimit="10"/>
<path d="M89.5682 44.9315C88.6482 44.0815 79.4682 34.8615 73.4582 28.8015C72.9582 28.2915 72.2882 28.0515 71.6282 28.0715C70.9682 28.0615 70.2982 28.3015 69.7982 28.8015C63.7882 34.8615 54.6082 44.0815 53.6882 44.9315C52.7082 45.7415 52.4782 47.1715 53.1982 48.2515C53.6782 48.9715 54.4682 49.3615 55.2782 49.3615C55.7582 49.3615 56.2382 49.2215 56.6682 48.9415C56.9082 48.7815 57.2082 48.5815 69.1182 36.5915V72.3915C69.1182 73.7715 70.2382 74.8915 71.6182 74.8915C72.9982 74.8915 74.1182 73.7715 74.1182 72.3915V36.5515C86.0682 48.5815 86.3682 48.7815 86.6082 48.9415C87.0382 49.2315 87.5182 49.3615 87.9982 49.3615C88.8082 49.3615 89.5982 48.9715 90.0782 48.2515C90.7982 47.1715 90.5682 45.7315 89.5882 44.9315H89.5682Z" fill="#3DE3F9" stroke="#05325B" stroke-width="3" stroke-miterlimit="10"/>
</g>
<defs>
<clipPath id="clip0_580_2346">
<rect width="141.82" height="85.9" fill="white" transform="translate(0.5)"/>
</clipPath>
</defs>
</svg>
