<svg width="240" height="103" viewBox="0 0 240 103" fill="none" xmlns="http://www.w3.org/2000/svg">
<path d="M17.1734 22.2092C16.3134 22.9192 15.2134 23.3492 14.0034 23.3492C11.2534 23.3492 9.02344 21.1192 9.02344 18.3692C9.02344 16.9192 9.64344 15.6092 10.6434 14.6992C10.6434 14.6992 16.7334 7.59918 28.9234 3.04918C41.1134 -1.50082 53.5834 0.389184 53.5834 0.389184C53.5834 0.389184 77.4134 3.65918 87.4934 21.1692L87.6734 21.6492C87.6734 21.6492 87.3734 21.9392 86.4834 20.9692C85.5934 19.9992 77.1434 10.4592 64.1834 7.25918C64.1834 7.25918 37.1834 -1.59082 17.3434 22.0292" fill="#75CEDE"/>
<path d="M80.1916 80.9554C81.2016 80.3154 82.1516 79.8154 83.3616 79.8154C86.1116 79.8154 88.3416 82.0454 88.3416 84.7954C88.3416 86.2454 87.7216 87.5554 86.7216 88.4654C86.7216 88.4654 72.9216 102.235 50.9816 102.175C29.0416 102.115 15.0216 87.6554 15.0216 87.6554C15.0216 87.6554 5.49161 78.1254 1.94161 64.1654C-1.60839 50.2054 2.55161 38.1254 2.55161 38.1254C2.55161 38.1254 3.92161 32.5954 5.04161 33.0854C5.04161 33.0854 5.30161 32.9654 4.51161 35.4254C3.72161 37.8954 2.82161 41.2554 2.65161 46.0254C2.48161 50.7954 2.93161 57.8554 4.73161 62.9554C6.53161 68.0554 8.64161 73.0654 12.1816 77.4154C15.7316 81.7654 20.1616 86.9354 29.8016 91.0054C39.4416 95.0754 47.0116 94.9954 54.5716 94.1654C62.1316 93.3354 66.4616 90.7554 71.4816 87.8454C76.5116 84.9354 79.0316 81.6954 80.1816 80.9654L80.1916 80.9554Z" fill="#B1D34A"/>
<path d="M67.8509 31.3907C66.6009 28.7607 65.4709 27.1207 64.0309 26.0707C62.5909 25.0207 60.5709 23.4707 56.3809 22.7707C52.2009 22.0807 51.0309 22.3807 46.9109 22.6107C42.8009 22.8407 36.4209 25.1007 34.2109 26.5707L36.9009 32.4707C36.9009 32.4707 40.5309 29.8707 46.8009 28.9107C53.0809 27.9507 56.1509 29.3707 56.1509 29.3707C56.1509 29.3707 61.1009 31.2407 61.5909 37.2707C61.5909 37.2707 62.0109 42.1707 61.7609 45.6207C61.7609 45.6207 55.5309 42.3407 47.3009 42.7907C47.3009 42.7907 38.6609 42.7907 33.1709 48.9407C27.6809 55.0907 30.4309 64.6907 30.4309 64.6907C30.4309 64.6907 32.2609 72.8407 40.9909 74.7107C49.7209 76.5807 56.9509 72.2207 56.9509 72.2207C56.9509 72.2207 60.0909 70.1307 61.7009 68.3007V74.2607H69.1509V39.4907C69.1509 39.4907 69.0909 34.0307 67.8509 31.4007V31.3907ZM61.6909 61.7807C61.6909 61.7807 56.5809 69.8407 46.3509 69.3407C36.1309 68.8407 36.9209 58.6207 36.9209 58.6207C36.9209 58.6207 36.5509 49.6807 45.4409 48.9007C54.3309 48.1107 59.7809 50.0207 61.7309 51.5207L61.6909 61.7907V61.7807Z" fill="#017CBA"/>
<path d="M112.341 27.8891L108.271 33.2491C108.271 33.2491 103.981 28.5291 95.5811 28.6191C87.1911 28.6991 87.2711 34.1891 87.2711 34.1891C87.2711 34.1891 86.1111 39.5091 94.2511 42.7191C94.2511 42.7191 103.811 47.0691 106.971 49.0591C106.971 49.0591 111.931 52.5491 112.841 55.8791C113.751 59.1991 114.341 66.5991 109.721 70.6791C105.111 74.7491 98.3711 75.2091 98.3711 75.2091C98.3711 75.2091 91.1711 75.7491 84.8511 72.8691C78.5311 69.9891 78.3711 68.7391 78.3711 68.7391L82.5811 63.4491C82.5811 63.4491 87.0411 68.2691 95.2111 68.9891C103.381 69.7091 105.491 65.3291 105.491 65.3291C105.491 65.3291 106.631 64.2491 106.571 60.6491C106.511 57.0491 102.251 54.7791 102.251 54.7791C102.251 54.7791 99.3411 52.8691 94.7411 51.1191C90.1411 49.3691 84.1011 45.9391 82.3811 43.1691C80.6611 40.3991 79.4711 35.2691 80.9411 31.2791C82.4111 27.2891 86.2011 23.4091 93.3211 22.5191C100.441 21.6291 109.391 24.8091 112.331 27.8891H112.341Z" fill="#017CBA"/>
<path d="M166.26 37.6463C166.26 37.6463 164.43 30.0563 160.33 26.6463C156.23 23.2363 153.51 23.0163 153.51 23.0163C153.51 23.0163 148.83 21.6063 144.23 23.0463C139.63 24.4863 137.89 26.1263 133.98 29.5263L134.03 23.5463L126.57 23.5163V93.6963L134 88.1663V68.7763C134 68.7763 136.7 72.0363 141.44 74.0963C146.18 76.1563 152.66 74.7163 152.66 74.7163C152.66 74.7163 158.45 73.7663 162.61 67.2563C166.77 60.7463 166.49 56.5863 167.24 51.5163C167.99 46.4463 166.27 37.6363 166.27 37.6363L166.26 37.6463ZM157.98 61.8663C157.98 61.8663 154.32 72.0863 142.77 68.0963C142.77 68.0963 136.7 66.5563 133.92 61.3263L133.88 36.0163C133.88 36.0163 141.65 25.8363 151.75 29.4463C151.75 29.4463 159.31 32.2263 160.02 43.9063C160.73 55.5863 157.98 61.8563 157.98 61.8563V61.8663Z" fill="#017CBA"/>
<path d="M185.671 51.2601L193.491 45.3701H211.871C211.871 45.3701 211.341 34.9001 206.361 31.5701C201.371 28.2501 197.181 28.6201 197.181 28.6201C197.181 28.6201 190.781 28.8301 187.041 35.5601C187.041 35.5601 182.631 44.0801 184.801 54.6801C186.961 65.2801 192.611 67.4801 192.611 67.4801C192.611 67.4801 197.311 70.3101 205.411 67.9001C205.411 67.9001 209.031 66.6901 212.561 64.1601L216.181 69.4001C216.181 69.4001 208.201 75.3001 199.061 75.2601C199.061 75.2601 191.451 75.9201 185.261 70.5601C185.261 70.5601 180.611 66.0001 178.721 59.6301C176.841 53.2601 177.561 44.2801 177.561 44.2801C177.561 44.2801 179.111 24.8901 195.011 22.7201C195.011 22.7201 206.091 20.9501 212.521 28.4801C218.951 36.0201 218.671 46.2101 218.671 46.2101C218.671 46.2101 218.521 50.8301 218.321 51.3501L185.691 51.2601H185.671Z" fill="#017CBA"/>
<path d="M232.003 7.86562L239.403 2.01562V74.1856H231.973L232.003 7.86562Z" fill="#017CBA"/>
</svg>
