<svg width="191" height="119" viewBox="0 0 191 119" fill="none" xmlns="http://www.w3.org/2000/svg">
<path d="M32.7483 26.5728L39.7383 40.7328C39.7383 40.7328 41.2283 23.5828 50.2683 14.3728C59.3083 5.16276 67.2383 3.88276 67.2383 3.88276C67.2383 3.88276 81.1383 -1.23724 95.6383 6.69276C95.6383 6.69276 107.668 14.2828 108.688 25.6328C108.688 25.6328 119.778 21.9628 133.278 26.8228C133.278 26.8228 143.448 30.5928 149.148 38.5328C149.148 38.5328 160.858 33.0928 175.958 40.0028C175.958 40.0028 187.988 45.1228 190.668 58.0428C190.668 58.0428 189.198 45.6928 178.128 39.3028C167.058 32.9028 156.568 34.0528 150.168 35.8528C150.168 35.8528 138.968 19.0728 112.788 23.0828C112.788 23.0828 107.838 -1.05724 74.7483 0.0527642C74.7483 0.0527642 67.7583 -0.547236 52.2283 8.84276C52.2283 8.84276 40.7983 16.6028 38.9183 31.8728L32.7383 26.5828L32.7483 26.5728Z" fill="#00A2FF"/>
<path d="M27.96 28.5197C27.96 28.5197 28.92 28.6797 29.62 30.4097C30.32 32.1397 34.61 41.2497 34.61 41.2497C34.61 41.2497 35.57 44.1897 33.62 44.9297C31.67 45.6697 27.16 46.6297 24.06 47.7397C20.96 48.8597 19.17 51.4197 18.43 53.4297C17.69 55.4497 18.88 57.4297 18.88 57.4297C18.88 57.4297 20.77 60.6297 28.89 63.6997C28.89 63.6997 33.75 66.0697 35.64 66.6697C37.53 67.2697 41.37 69.9297 43.64 72.3297C45.91 74.7297 50.52 81.2497 50.26 91.6797C50 102.11 43.61 107.74 43.61 107.74C43.61 107.74 34.27 118.62 17.38 118.49C17.38 118.49 16.06 118.3 15.57 116.31C15.08 114.32 14.48 110.64 13.59 107.97C12.69 105.3 12.05 103.73 12.31 102.85C12.57 101.97 13.14 101.55 15.76 101.4C18.38 101.25 19.56 101.55 24.57 100.01C29.58 98.4697 32.42 93.8297 32.42 93.8297C32.42 93.8297 34.17 91.1597 32.87 88.4297C31.57 85.6997 30.12 84.5497 30.12 84.5497C30.12 84.5497 25.41 81.0497 21.55 79.7297C17.69 78.4097 13.33 77.0197 10.45 74.9697C7.57002 72.9197 3.73002 68.7597 2.74002 66.1397C1.75002 63.5197 -0.0399781 58.9397 0.690022 52.4497C1.43002 45.9597 3.98002 42.3397 3.98002 42.3397C3.98002 42.3397 6.32002 37.9597 11.47 34.6297C16.62 31.2997 25.16 28.6797 25.16 28.6797C25.16 28.6797 26.89 28.3897 27.97 28.4897L27.96 28.5197Z" fill="#00A2FF"/>
<path d="M58.6998 45.7903C62.9027 45.7903 66.3098 42.3832 66.3098 38.1803C66.3098 33.9774 62.9027 30.5703 58.6998 30.5703C54.497 30.5703 51.0898 33.9774 51.0898 38.1803C51.0898 42.3832 54.497 45.7903 58.6998 45.7903Z" fill="#00A2FF"/>
<path d="M76.7416 45.6628C80.961 45.6628 84.3816 42.2423 84.3816 38.0228C84.3816 33.8034 80.961 30.3828 76.7416 30.3828C72.5221 30.3828 69.1016 33.8034 69.1016 38.0228C69.1016 42.2423 72.5221 45.6628 76.7416 45.6628Z" fill="#00A2FF"/>
<path d="M65.543 55.9791C65.5017 52.3398 62.518 49.423 58.8786 49.4643C55.2393 49.5056 52.3225 52.4893 52.3638 56.1286L52.7774 92.5863C52.8187 96.2256 55.8025 99.1424 59.4418 99.1011C63.0811 99.0598 65.9979 96.0761 65.9566 92.4368L65.543 55.9791Z" fill="#00A2FF"/>
<path d="M83.7656 55.6197C83.7243 51.9804 80.7406 49.0636 77.1013 49.1049C73.462 49.1462 70.5452 52.1299 70.5865 55.7693L71.0001 92.2269C71.0414 95.8662 74.0251 98.783 77.6644 98.7417C81.3037 98.7004 84.2205 95.7167 84.1792 92.0774L83.7656 55.6197Z" fill="#00A2FF"/>
<path d="M133.93 82.4796C133.93 82.4796 133.82 50.1196 133.93 49.3596C134.04 48.5996 133.07 48.4496 133.07 48.4496L123.01 48.4996C122.11 48.5796 121.89 49.1996 121.87 49.6396C121.85 50.0696 121.81 50.3396 121.17 50.6996C120.53 51.0496 119.91 50.4396 119.91 50.4396C119.76 50.2096 117.94 49.3296 117.94 49.3296C113.74 47.5596 109.99 47.6896 109.99 47.6896C109.99 47.6896 104.36 47.8596 100.84 49.4996C97.3198 51.1396 94.0198 53.6196 91.8598 56.5596C89.7098 59.4996 88.0598 62.7896 87.2998 66.8596C86.5298 70.9296 86.6198 73.0896 86.6998 76.3096C86.7898 79.5296 88.2098 83.2796 88.2098 83.2796C88.8698 85.1096 90.4098 89.1096 93.8998 92.4096C97.3898 95.6996 101.43 97.1596 101.43 97.1596C101.43 97.1596 107.57 99.1396 113.23 97.7796C118.89 96.4196 119.24 94.9696 119.98 95.1096C120.72 95.2496 121.05 95.9396 121.05 95.9396C121.05 98.0496 120.22 100.07 120.22 100.07C120.22 100.07 119.81 102.26 117.06 104.46C114.31 106.66 111.07 106.7 109.6 106.85C108.13 107 105.05 106.97 101.82 106.02C98.5898 105.08 95.9798 103.37 95.9798 103.37C95.9798 103.37 95.1998 102.89 94.8198 102.83C94.4398 102.77 93.8698 103.04 93.7998 103.53C93.7398 104.02 93.1198 105.68 92.9498 106.34C92.7798 107 91.4398 111.31 91.1298 112.06C90.8198 112.8 91.1698 113.32 91.1698 113.32C94.3998 115.85 101.37 117.35 101.37 117.35C101.37 117.35 114.87 119.91 125.62 112.87C136.37 105.83 133.94 82.4796 133.94 82.4796H133.93ZM118.88 83.4496C116.9 86.2996 113.46 87.4696 110.32 87.4696C104.34 87.4696 99.4898 81.0196 99.4898 73.0496C99.4898 65.0796 104.34 58.6296 110.32 58.6296C113.29 58.6296 116.72 59.6396 118.68 62.2096C120.67 64.8196 121.15 69.0296 121.15 73.0396C121.15 76.8196 120.67 80.8696 118.88 83.4396V83.4496Z" fill="#00A2FF"/>
<path d="M178.782 53.8813C174.352 49.4413 167.792 47.0312 161.172 47.0312C154.932 47.0312 148.842 49.3113 144.492 53.3013C139.352 58.0212 136.512 65.0813 136.512 72.7913C136.512 79.4613 138.532 85.8913 142.502 90.4713C147.012 95.6613 153.922 98.5513 161.162 98.5513C168.402 98.5513 175.792 95.4813 180.312 89.8913C183.942 85.4013 185.812 79.1313 185.812 72.7913C185.812 65.4813 183.452 58.5613 178.772 53.8713L178.782 53.8813ZM161.152 88.0413C154.702 88.0413 149.472 81.2313 149.472 72.8313C149.472 64.4313 154.702 57.6213 161.152 57.6213C167.602 57.6213 172.832 64.4313 172.832 72.8313C172.832 81.2313 167.602 88.0413 161.152 88.0413Z" fill="#00A2FF"/>
</svg>
