<svg width="155" height="250" viewBox="0 0 155 250" fill="none" xmlns="http://www.w3.org/2000/svg">
<path opacity="0.28" d="M57.5205 82.3066C71.4877 82.3066 82.8105 70.9838 82.8105 57.0166C82.8105 43.0493 71.4877 31.7266 57.5205 31.7266C43.5532 31.7266 32.2305 43.0493 32.2305 57.0166C32.2305 70.9838 43.5532 82.3066 57.5205 82.3066Z" fill="#3DE3F9" stroke="#3DE3F9" stroke-width="6" stroke-miterlimit="10" stroke-linecap="round"/>
<path d="M112.08 65.97V49.06L102.24 47.1C101.05 42.11 99.06 37.44 96.39 33.22L101.92 24.94L89.96 12.98L81.57 18.58C77.42 16.03 72.84 14.11 67.95 12.98L65.96 3H49.05L47.06 12.98C42.2 14.11 37.64 16.01 33.51 18.54L25.18 12.98L13.22 24.94L18.69 33.13C16.06 37.27 14.07 41.86 12.86 46.77L3 48.73V65.64L12.58 67.55C13.7 72.72 15.69 77.57 18.39 81.93L13.16 89.76L25.12 101.72L32.84 96.56C37.21 99.35 42.09 101.41 47.31 102.6L49.12 111.69H66.03L67.85 102.57C72.97 101.39 77.76 99.36 82.07 96.63L89.9 101.86L101.86 89.9L96.58 82C99.24 77.72 101.22 72.97 102.36 67.91L112.08 65.97Z" stroke="#015A96" stroke-width="6" stroke-miterlimit="10" stroke-linecap="round"/>
<path opacity="0.28" d="M77.5619 207.03C96.4169 207.03 111.702 191.745 111.702 172.89C111.702 154.035 96.4169 138.75 77.5619 138.75C58.7069 138.75 43.4219 154.035 43.4219 172.89C43.4219 191.745 58.7069 207.03 77.5619 207.03Z" fill="#3DE3F9" stroke="#3DE3F9" stroke-width="6" stroke-miterlimit="10" stroke-linecap="round"/>
<path d="M151.22 184.98V162.15L137.93 159.51C136.33 152.77 133.63 146.46 130.04 140.78L137.51 129.6L121.37 113.46L110.04 121.03C104.44 117.58 98.25 115 91.66 113.47L88.98 100H66.15L63.47 113.47C56.91 114.99 50.75 117.56 45.18 120.98L33.94 113.47L17.8 129.61L25.18 140.66C21.62 146.25 18.94 152.45 17.31 159.07L4 161.72V184.55L16.93 187.12C18.44 194.1 21.13 200.64 24.77 206.53L17.71 217.1L33.85 233.24L44.27 226.28C50.17 230.04 56.76 232.83 63.8 234.43L66.24 246.7H89.07L91.52 234.39C98.43 232.8 104.9 230.06 110.72 226.38L121.29 233.44L137.43 217.3L130.3 206.63C133.89 200.85 136.56 194.44 138.1 187.61L151.22 185V184.98Z" stroke="#015A96" stroke-width="6" stroke-miterlimit="10" stroke-linecap="round"/>
</svg>
