<svg width="423" height="421" viewBox="0 0 423 421" fill="none" xmlns="http://www.w3.org/2000/svg">
<g clip-path="url(#clip0_580_2322)">
<path d="M367.538 245.122V193.822L337.688 187.882C334.088 172.752 328.028 158.572 319.948 145.802L336.728 120.682L300.458 84.4119L275.008 101.412C262.428 93.6719 248.528 87.8619 233.708 84.4219L227.688 54.1719H176.388L170.368 84.4219C155.638 87.8419 141.798 93.6019 129.268 101.292L104.008 84.4119L67.7383 120.682L84.3183 145.502C76.3283 158.062 70.2983 171.992 66.6483 186.862L36.7383 192.812V244.112L65.7983 249.892C69.1983 265.572 75.2283 280.272 83.4183 293.492L67.5483 317.242L103.818 353.512L127.228 337.882C140.498 346.332 155.288 352.602 171.098 356.192L176.588 383.762H227.888L233.398 356.102C248.928 352.532 263.468 346.372 276.528 338.092L300.278 353.952L336.548 317.682L320.538 293.712C328.608 280.732 334.608 266.332 338.058 250.972L367.538 245.102V245.122Z" stroke="#015A96" stroke-width="6" stroke-miterlimit="10" stroke-linecap="round"/>
<path opacity="0.1" d="M422.44 243.78V178.43L384.41 170.86C379.83 151.58 372.11 133.52 361.81 117.25L383.18 85.25L336.97 39.04L304.55 60.69C288.52 50.83 270.81 43.43 251.94 39.05L244.28 0.5H178.93L171.26 39.04C152.49 43.4 134.86 50.74 118.9 60.53L86.71 39.03L40.5 85.24L61.63 116.87C51.45 132.87 43.77 150.62 39.12 169.56L1 177.14V242.49L38.02 249.86C42.35 269.84 50.04 288.56 60.47 305.41L40.26 335.67L86.47 381.88L116.29 361.96C133.19 372.73 152.04 380.72 172.18 385.28L179.17 420.41H244.52L251.53 385.17C271.31 380.63 289.83 372.77 306.48 362.23L336.73 382.44L382.94 336.23L362.54 305.7C372.82 289.16 380.46 270.82 384.87 251.25L422.43 243.77L422.44 243.78Z" fill="#00AECE" stroke="#3DE3F9" stroke-miterlimit="10"/>
<path d="M203.528 316.869C258.729 316.869 303.478 272.12 303.478 216.919C303.478 161.718 258.729 116.969 203.528 116.969C148.327 116.969 103.578 161.718 103.578 216.919C103.578 272.12 148.327 316.869 203.528 316.869Z" fill="white"/>
<path d="M202.04 294.658C244.4 294.658 278.74 260.318 278.74 217.958C278.74 175.598 244.4 141.258 202.04 141.258C159.68 141.258 125.34 175.598 125.34 217.958C125.34 260.318 159.68 294.658 202.04 294.658Z" stroke="#3DE3F9" stroke-width="7" stroke-miterlimit="10" stroke-linecap="round"/>
</g>
<defs>
<clipPath id="clip0_580_2322">
<rect width="422.44" height="420.92" fill="white" transform="translate(0.5)"/>
</clipPath>
</defs>
</svg>
