<?xml version="1.0" encoding="UTF-8"?>
<svg id="Capa_2" data-name="Capa 2" xmlns="http://www.w3.org/2000/svg" viewBox="0 0 150.12 150.12">
  <defs>
    <style>
      .cls-1 {
        fill: #a2a9ad;
      }

      .cls-1, .cls-2 {
        stroke-width: 0px;
      }

      .cls-2 {
        fill: #93d500;
      }
    </style>
  </defs>
  <g id="Capa_1-2" data-name="Capa 1">
    <g>
      <path class="cls-2" d="m75.06,150.12C33.67,150.12,0,116.45,0,75.06S33.67,0,75.06,0s75.06,33.67,75.06,75.06-33.67,75.06-75.06,75.06Zm0-138.98c-35.24,0-63.92,28.67-63.92,63.92s28.67,63.92,63.92,63.92,63.92-28.67,63.92-63.92S110.3,11.14,75.06,11.14Z"/>
      <path class="cls-2" d="m109.41,50.57H41.91c-4.77,0-8.63,3.86-8.63,8.63v11.61c0,3.81,2.47,7.03,5.89,8.18l4.54-14.56c.64-2.06,2.55-3.47,4.72-3.47h53.55c2.16,0,4.07,1.41,4.72,3.47l4.61,14.79c3.85-.86,6.74-4.3,6.74-8.41v-11.61c0-4.77-3.86-8.63-8.63-8.63Z"/>
      <path class="cls-1" d="m104.91,107.62h-58.42c-.21,0-.42-.03-.62-.09-3.23-.98-5.45-2.61-6.61-4.86-1.3-2.52-.74-4.87-.56-5.47l7.39-30.63c.23-.96,1.09-1.64,2.08-1.64h5.88c1.18,0,2.14.96,2.14,2.14s-.96,2.14-2.14,2.14h-4.19l-7.01,29.06c-.02.06-.03.12-.05.18-.15.52-.72,3.33,4.03,4.88h57.75c.9-.32,3.99-1.67,4.37-4.95-.07-.61-.3-2.59-.78-4.73-.5-2.26-5.02-19.39-6.43-24.74h-3.47c-1.18,0-2.14-.96-2.14-2.14s.96-2.14,2.14-2.14h5.12c.97,0,1.82.65,2.07,1.59.26.97,6.28,23.75,6.89,26.5.63,2.85.87,5.35.88,5.46.01.13.01.25,0,.38-.58,6.9-7.45,8.9-7.74,8.99-.19.05-.38.08-.58.08Z"/>
      <path class="cls-2" d="m74.16,91.61c-1.32-.04-2.55-.17-3.71-.37-1.15-.2-2.1-.49-2.84-.85l.2-4.01c.5.19.99.35,1.46.49.48.14.97.26,1.48.36.51.1,1.04.18,1.6.24.56.06,1.18.1,1.85.11l.04-4.31c-.8-.12-1.59-.27-2.38-.47-.78-.2-1.48-.49-2.09-.88-.61-.39-1.09-.9-1.45-1.53-.36-.62-.51-1.43-.45-2.4.04-.78.22-1.47.55-2.07.32-.59.76-1.1,1.32-1.53.56-.42,1.22-.76,2-1.02.77-.26,1.64-.44,2.61-.54l.02-1.7h2.8l.02,1.65c.87.04,1.75.14,2.65.28.9.14,1.74.33,2.5.58l.16,3.41c-1.9-.59-3.66-.91-5.28-.98l.04,3.97c.79.12,1.57.29,2.34.49.78.2,1.48.5,2.1.89s1.15.91,1.57,1.56c.42.65.66,1.5.72,2.54.09,1.7-.43,3.06-1.57,4.07-1.15,1.02-2.84,1.66-5.05,1.91l.02,2.22h-3.25l.02-2.11Zm-2.25-13.8c-.01.5.18.89.57,1.15s.99.47,1.8.62l.03-3.43c-.89.09-1.51.28-1.85.57-.35.29-.53.65-.54,1.09Zm7.8,7.79c-.01-.55-.22-.96-.62-1.24-.4-.28-1-.49-1.81-.63l.04,3.71c1.62-.22,2.41-.83,2.39-1.84Z"/>
    </g>
  </g>
</svg>