<?xml version="1.0" encoding="UTF-8"?>
<svg id="Capa_2" data-name="Capa 2" xmlns="http://www.w3.org/2000/svg" viewBox="0 0 150.12 150.12">
  <defs>
    <style>
      .cls-1 {
        fill: #fff;
      }

      .cls-1, .cls-2 {
        stroke-width: 0px;
      }

      .cls-2 {
        fill: #4d4084;
      }

      .cls-3 {
        fill: none;
        stroke: #b3b9bc;
        stroke-linecap: round;
        stroke-miterlimit: 10;
        stroke-width: 4px;
      }
    </style>
  </defs>
  <g id="Capa_1-2" data-name="Capa 1">
    <g>
      <circle class="cls-3" cx="57.1" cy="60.85" r="9.97"/>
      <path class="cls-3" d="m83.96,65.5v-8.39l-4.88-.97c-.59-2.48-1.58-4.79-2.9-6.88l2.74-4.11-5.93-5.93-4.16,2.78c-2.06-1.27-4.33-2.22-6.75-2.78l-.99-4.95h-8.39l-.99,4.95c-2.41.56-4.67,1.5-6.72,2.76l-4.13-2.76-5.93,5.93,2.71,4.06c-1.31,2.05-2.29,4.33-2.89,6.76l-4.89.97v8.39l4.75.95c.56,2.56,1.54,4.97,2.88,7.13l-2.6,3.89,5.93,5.93,3.83-2.56c2.17,1.38,4.59,2.41,7.18,2.99l.9,4.51h8.39l.9-4.52c2.54-.58,4.92-1.59,7.06-2.95l3.88,2.59,5.93-5.93-2.62-3.92c1.32-2.12,2.3-4.48,2.87-6.99l4.82-.96Z"/>
      <path class="cls-2" d="m124.42,89.98l-.23-6.68-3.91-.64c-.54-1.95-1.39-3.77-2.5-5.4l2.07-3.35-4.89-4.56-3.23,2.33c-1.67-.95-3.51-1.64-5.45-2.02l-.92-3.91-6.68.23-.65,3.97c-1.9.51-3.68,1.33-5.27,2.38l-3.37-2.08-4.56,4.89,2.27,3.16c-.98,1.67-1.7,3.51-2.11,5.46l-3.87.91.23,6.68,3.81.62c.51,2.03,1.37,3.91,2.49,5.6l-1.96,3.16,4.89,4.56,2.98-2.14c1.77,1.04,3.72,1.79,5.79,2.18l.84,3.56,6.68-.23.59-3.63c2.01-.54,3.87-1.4,5.53-2.54l3.16,1.96,4.56-4.89-2.19-3.05c.99-1.73,1.71-3.63,2.09-5.64l3.81-.9Z"/>
      <circle class="cls-1" cx="102.39" cy="87.56" r="10"/>
      <path class="cls-2" d="m75.06,150.12C33.67,150.12,0,116.45,0,75.06S33.67,0,75.06,0s75.06,33.67,75.06,75.06-33.67,75.06-75.06,75.06Zm0-138.98c-35.24,0-63.92,28.67-63.92,63.92s28.67,63.92,63.92,63.92,63.92-28.67,63.92-63.92S110.3,11.14,75.06,11.14Z"/>
    </g>
  </g>
</svg>