<?xml version="1.0" encoding="UTF-8"?>
<svg id="Capa_2" data-name="Capa 2" xmlns="http://www.w3.org/2000/svg" viewBox="0 0 150.12 150.12">
  <defs>
    <style>
      .cls-1 {
        fill: #a2a9ad;
      }

      .cls-1, .cls-2 {
        stroke-width: 0px;
      }

      .cls-2 {
        fill: #00acd8;
      }
    </style>
  </defs>
  <g id="Capa_1-2" data-name="Capa 1">
    <g>
      <path class="cls-2" d="m75.06,150.12C33.67,150.12,0,116.45,0,75.06S33.67,0,75.06,0s75.06,33.67,75.06,75.06-33.67,75.06-75.06,75.06Zm0-138.98c-35.24,0-63.92,28.67-63.92,63.92s28.67,63.92,63.92,63.92,63.92-28.67,63.92-63.92S110.3,11.14,75.06,11.14Z"/>
      <path class="cls-1" d="m98.31,116.27h-44.74c-4.79,0-8.68-3.89-8.68-8.68v-63.23c0-4.79,3.89-8.68,8.68-8.68h44.74c4.79,0,8.68,3.89,8.68,8.68v63.23c0,4.79-3.89,8.68-8.68,8.68ZM53.57,40.82c-1.95,0-3.54,1.59-3.54,3.54v63.23c0,1.95,1.59,3.54,3.54,3.54h44.74c1.95,0,3.54-1.59,3.54-3.54v-63.23c0-1.95-1.59-3.54-3.54-3.54h-44.74Z"/>
      <circle class="cls-2" cx="60.42" cy="75.33" r="3.25"/>
      <circle class="cls-2" cx="70.42" cy="75.33" r="3.25"/>
      <circle class="cls-2" cx="80.96" cy="75.33" r="3.25"/>
      <circle class="cls-2" cx="91.27" cy="75.33" r="3.25"/>
      <circle class="cls-2" cx="60.42" cy="85.79" r="3.25"/>
      <circle class="cls-2" cx="70.42" cy="85.79" r="3.25"/>
      <circle class="cls-2" cx="80.96" cy="85.79" r="3.25"/>
      <circle class="cls-2" cx="60.42" cy="96.78" r="3.25"/>
      <circle class="cls-2" cx="70.42" cy="96.78" r="3.25"/>
      <circle class="cls-2" cx="80.96" cy="96.78" r="3.25"/>
      <rect class="cls-2" x="88.21" y="83.08" width="5.88" height="16.57" rx="2.94" ry="2.94"/>
      <rect class="cls-1" x="57.54" y="50.06" width="36.75" height="14.46"/>
    </g>
  </g>
</svg>