<?xml version="1.0" encoding="UTF-8"?>
<svg id="Capa_2" data-name="Capa 2" xmlns="http://www.w3.org/2000/svg" viewBox="0 0 150.12 150.12">
  <defs>
    <style>
      .cls-1 {
        fill: #a2a9ad;
      }

      .cls-1, .cls-2 {
        stroke-width: 0px;
      }

      .cls-2 {
        fill: #ff8300;
      }
    </style>
  </defs>
  <g id="Capa_1-2" data-name="Capa 1">
    <g>
      <path class="cls-1" d="m36.94,105.61c-1.42,0-2.57-1.15-2.57-2.57v-12.62c0-.45.12-.89.34-1.28.26-.46,6.71-11.27,29.93-11.27s27.21,13.62,27.35,14.2c.04.19.07.39.07.58v9.98c0,1.42-1.15,2.57-2.57,2.57s-2.57-1.15-2.57-2.57v-9.61c-.52-1.51-4.22-10.01-22.27-10.01s-23.67,6.43-25.12,8.22v11.81c0,1.42-1.15,2.57-2.57,2.57Z"/>
      <g>
        <path class="cls-2" d="m75.06,150.12C33.67,150.12,0,116.45,0,75.06S33.67,0,75.06,0s75.06,33.67,75.06,75.06-33.67,75.06-75.06,75.06Zm0-138.98c-35.24,0-63.92,28.67-63.92,63.92s28.67,63.92,63.92,63.92,63.92-28.67,63.92-63.92S110.3,11.14,75.06,11.14Z"/>
        <path class="cls-1" d="m63.66,75.17c-.23,0-.61,0-1.12-.05-8.75-.69-15.65-8.18-15.69-17.05l-.06-10.2c0-.16.01-.31.04-.47.08-.44,2.09-10.67,17.66-10.13,5.86.2,10.14,1.8,12.73,4.76,2.47,2.83,2.48,5.87,2.43,6.68v7.58c0,5.73-2.3,11.15-6.32,14.86-2.88,2.66-6.08,4.01-9.5,4.02-.04,0-.1,0-.17,0Zm-11.73-27l.05,9.88c.03,6.22,4.85,11.47,10.96,11.95.44.04.72.04.77.03,2.18,0,4.22-.89,6.12-2.66,2.96-2.74,4.67-6.78,4.67-11.08v-7.67c0-.09,0-.17.01-.26,0-.02.08-1.57-1.25-3.03-1.61-1.77-4.71-2.78-8.96-2.92-10-.34-12.06,4.69-12.38,5.76Z"/>
        <path class="cls-2" d="m86.52,55.57s1.09-6.08,10.78-5.75c9.69.33,9.09,6.3,9.09,6.3v5.5c0,3.5-1.36,6.92-3.94,9.3-1.46,1.35-3.32,2.39-5.59,2.39,0,0-.28,0-.75-.03-5.39-.42-9.52-4.99-9.55-10.4l-.04-7.31Z"/>
      </g>
      <path class="cls-2" d="m84.69,79.11s22.7-7.94,31.56,6.11v6.31h-21.38s1.12-8.35-10.18-12.42Z"/>
    </g>
  </g>
</svg>