<?xml version="1.0" encoding="UTF-8"?>
<svg id="Capa_2" data-name="Capa 2" xmlns="http://www.w3.org/2000/svg" viewBox="0 0 150.12 150.12">
  <defs>
    <style>
      .cls-1 {
        fill: #ffd100;
      }

      .cls-1, .cls-2 {
        stroke-width: 0px;
      }

      .cls-2 {
        fill: #a2a9ae;
      }

      .cls-3 {
        fill: none;
        stroke: #a2a9ae;
        stroke-miterlimit: 10;
        stroke-width: 4px;
      }
    </style>
  </defs>
  <g id="Capa_1-2" data-name="Capa 1">
    <g>
      <line class="cls-3" x1="95.31" y1="51.86" x2="95.31" y2="41.98"/>
      <g>
        <path class="cls-1" d="m75.06,150.12C33.67,150.12,0,116.45,0,75.06S33.67,0,75.06,0s75.06,33.67,75.06,75.06-33.67,75.06-75.06,75.06Zm0-138.98c-35.24,0-63.92,28.67-63.92,63.92s28.67,63.92,63.92,63.92,63.92-28.67,63.92-63.92S110.3,11.14,75.06,11.14Z"/>
        <path class="cls-2" d="m111.78,43.59h-32.34v-11.67h32.34v11.67Zm-28.92-3.43h25.49v-4.82h-25.49v4.82Z"/>
        <path class="cls-2" d="m108.53,95.62H41.57v-38.98c0-3.53,2.87-6.4,6.4-6.4h54.17c3.53,0,6.4,2.87,6.4,6.4v38.98Zm-63.53-3.43h60.1v-35.55c0-1.64-1.33-2.97-2.97-2.97h-54.17c-1.64,0-2.97,1.33-2.97,2.97v35.55Z"/>
        <path class="cls-2" d="m112.6,113.74H36.88v-16.5c0-2.45,1.99-4.44,4.44-4.44h66.84c2.45,0,4.44,1.99,4.44,4.44v16.5Zm-72.29-3.43h68.86v-13.07c0-.56-.45-1.01-1.01-1.01H41.32c-.56,0-1.01.45-1.01,1.01v13.07Z"/>
        <circle class="cls-1" cx="54.1" cy="72.6" r="3.18"/>
        <circle class="cls-1" cx="54.1" cy="83.7" r="3.18"/>
        <circle class="cls-1" cx="64.23" cy="72.6" r="3.18"/>
        <circle class="cls-1" cx="64.23" cy="83.7" r="3.18"/>
        <circle class="cls-1" cx="75.17" cy="72.6" r="3.18"/>
        <circle class="cls-1" cx="75.17" cy="83.7" r="3.18"/>
        <circle class="cls-1" cx="85.3" cy="72.6" r="3.18"/>
        <circle class="cls-1" cx="85.3" cy="83.7" r="3.18"/>
        <rect class="cls-1" x="54.58" y="36.04" width="15.35" height="25.12"/>
        <path class="cls-2" d="m75.58,64.16h-25.35c-.95,0-1.71-.77-1.71-1.71s.77-1.71,1.71-1.71h25.35c.95,0,1.71.77,1.71,1.71s-.77,1.71-1.71,1.71Z"/>
        <rect class="cls-1" x="92.86" y="69.47" width="5.8" height="16.24" rx="2.64" ry="2.64"/>
      </g>
    </g>
  </g>
</svg>