<?xml version="1.0" encoding="UTF-8"?>
<svg id="Capa_2" data-name="Capa 2" xmlns="http://www.w3.org/2000/svg" viewBox="0 0 118.71 118.72">
  <defs>
    <style>
      .cls-1 {
        fill: #ea0029;
      }

      .cls-1, .cls-2, .cls-3 {
        stroke-width: 0px;
      }

      .cls-2 {
        fill: #a2a9ad;
      }

      .cls-3 {
        fill: #fff;
      }
    </style>
  </defs>
  <g id="Capa_1-2" data-name="Capa 1">
    <g>
      <path class="cls-1" d="m59.36,118.72C26.63,118.72,0,92.09,0,59.36S26.63,0,59.36,0s59.36,26.63,59.36,59.36-26.63,59.36-59.36,59.36Zm0-109.91c-27.87,0-50.55,22.68-50.55,50.55s22.68,50.55,50.55,50.55,50.55-22.68,50.55-50.55S87.23,8.81,59.36,8.81Z"/>
      <path class="cls-1" d="m31.94,58.59s-2.98-30.84,33.09-26.49l1.71-6.8c.26-1.05,1.59-1.37,2.31-.57l17.71,19.84c.64.72.4,1.86-.48,2.26l-24.18,10.99c-1.01.46-2.11-.41-1.91-1.49l1.3-7.08s-20.53-3.86-29.55,9.34Z"/>
      <g>
        <path class="cls-3" d="m85.14,59.67s2.98,30.84-33.09,26.49l-1.71,6.8c-.26,1.05-1.59,1.37-2.31.57l-17.71-19.84c-.64-.72-.4-1.86.48-2.26l24.18-10.99c1.01-.46,2.11.41,1.91,1.49l-1.3,7.08s20.53,3.86,29.55-9.34Z"/>
        <path class="cls-2" d="m49.02,95.33c-.76,0-1.49-.32-2.01-.9l-17.71-19.84c-.6-.67-.83-1.55-.65-2.43s.76-1.59,1.58-1.96l24.18-10.99c.93-.42,2-.29,2.8.33.8.63,1.19,1.64,1,2.64l-1.04,5.7c4.58.55,19.72,1.46,26.84-8.96l2.11-3.09.36,3.72c.05.53,1.15,13-7.38,21.32-5.8,5.67-14.56,7.95-26.04,6.77l-1.43,5.65c-.25.97-1,1.72-1.97,1.96-.22.05-.43.08-.65.08Zm6.53-33.65l-24.2,10.98s-.04.02-.04.05,0,.06.02.07l17.71,19.84,1.99-7.95,1.18.14c11.2,1.35,19.6-.63,24.99-5.87,4.94-4.82,6.25-11.42,6.56-15.48-10.13,10.17-27.61,7.03-28.42,6.88l-1.33-.25,1.54-8.41Z"/>
      </g>
    </g>
  </g>
</svg>